<?xml version="1.0" encoding="utf-8" standalone="no"?>
<!DOCTYPE svg PUBLIC "-//W3C//DTD SVG 1.1//EN"
  "http://www.w3.org/Graphics/SVG/1.1/DTD/svg11.dtd">
<svg xmlns:xlink="http://www.w3.org/1999/xlink" width="1440pt" height="360pt" viewBox="0 0 1440 360" xmlns="http://www.w3.org/2000/svg" version="1.1">
 <metadata>
  <rdf:RDF xmlns:dc="http://purl.org/dc/elements/1.1/" xmlns:cc="http://creativecommons.org/ns#" xmlns:rdf="http://www.w3.org/1999/02/22-rdf-syntax-ns#">
   <cc:Work>
    <dc:type rdf:resource="http://purl.org/dc/dcmitype/StillImage"/>
    <dc:date>2025-01-01T22:43:39.190957</dc:date>
    <dc:format>image/svg+xml</dc:format>
    <dc:creator>
     <cc:Agent>
      <dc:title>Matplotlib v3.10.0, https://matplotlib.org/</dc:title>
     </cc:Agent>
    </dc:creator>
   </cc:Work>
  </rdf:RDF>
 </metadata>
 <defs>
  <style type="text/css">*{stroke-linejoin: round; stroke-linecap: butt}</style>
 </defs>
 <g id="figure_1">
  <g id="patch_1">
   <path d="M 0 360 
L 1440 360 
L 1440 0 
L 0 0 
z
" style="fill: #ffffff"/>
  </g>
  <g id="axes_1">
   <g id="patch_2">
    <path d="M 180 320.4 
L 687.272727 320.4 
L 687.272727 43.2 
L 180 43.2 
z
" style="fill: #ffffff"/>
   </g>
   <g id="patch_3">
    <path d="M 203.057851 320.4 
L 226.407574 320.4 
L 226.407574 56.4 
L 203.057851 56.4 
z
" clip-path="url(#pe8632fbfc3)" style="fill: #add8e6"/>
   </g>
   <g id="patch_4">
    <path d="M 232.245005 320.4 
L 255.594727 320.4 
L 255.594727 63.024843 
L 232.245005 63.024843 
z
" clip-path="url(#pe8632fbfc3)" style="fill: #add8e6"/>
   </g>
   <g id="patch_5">
    <path d="M 261.432158 320.4 
L 284.781881 320.4 
L 284.781881 76.473275 
L 261.432158 76.473275 
z
" clip-path="url(#pe8632fbfc3)" style="fill: #add8e6"/>
   </g>
   <g id="patch_6">
    <path d="M 290.619312 320.4 
L 313.969034 320.4 
L 313.969034 83.230615 
L 290.619312 83.230615 
z
" clip-path="url(#pe8632fbfc3)" style="fill: #add8e6"/>
   </g>
   <g id="patch_7">
    <path d="M 319.806465 320.4 
L 343.156188 320.4 
L 343.156188 83.959348 
L 319.806465 83.959348 
z
" clip-path="url(#pe8632fbfc3)" style="fill: #add8e6"/>
   </g>
   <g id="patch_8">
    <path d="M 348.993619 320.4 
L 372.343341 320.4 
L 372.343341 83.959348 
L 348.993619 83.959348 
z
" clip-path="url(#pe8632fbfc3)" style="fill: #add8e6"/>
   </g>
   <g id="patch_9">
    <path d="M 378.180772 320.4 
L 401.530495 320.4 
L 401.530495 85.54931 
L 378.180772 85.54931 
z
" clip-path="url(#pe8632fbfc3)" style="fill: #add8e6"/>
   </g>
   <g id="patch_10">
    <path d="M 407.367926 320.4 
L 430.717648 320.4 
L 430.717648 86.80803 
L 407.367926 86.80803 
z
" clip-path="url(#pe8632fbfc3)" style="fill: #add8e6"/>
   </g>
   <g id="patch_11">
    <path d="M 436.555079 320.4 
L 459.904802 320.4 
L 459.904802 88.132999 
L 436.555079 88.132999 
z
" clip-path="url(#pe8632fbfc3)" style="fill: #add8e6"/>
   </g>
   <g id="patch_12">
    <path d="M 465.742232 320.4 
L 489.091955 320.4 
L 489.091955 88.199247 
L 465.742232 88.199247 
z
" clip-path="url(#pe8632fbfc3)" style="fill: #add8e6"/>
   </g>
   <g id="patch_13">
    <path d="M 494.929386 320.4 
L 518.279109 320.4 
L 518.279109 91.379172 
L 494.929386 91.379172 
z
" clip-path="url(#pe8632fbfc3)" style="fill: #add8e6"/>
   </g>
   <g id="patch_14">
    <path d="M 524.116539 320.4 
L 547.466262 320.4 
L 547.466262 92.041656 
L 524.116539 92.041656 
z
" clip-path="url(#pe8632fbfc3)" style="fill: #add8e6"/>
   </g>
   <g id="patch_15">
    <path d="M 553.303693 320.4 
L 576.653416 320.4 
L 576.653416 94.559097 
L 553.303693 94.559097 
z
" clip-path="url(#pe8632fbfc3)" style="fill: #add8e6"/>
   </g>
   <g id="patch_16">
    <path d="M 582.490846 320.4 
L 605.840569 320.4 
L 605.840569 96.679046 
L 582.490846 96.679046 
z
" clip-path="url(#pe8632fbfc3)" style="fill: #add8e6"/>
   </g>
   <g id="patch_17">
    <path d="M 611.678 320.4 
L 635.027723 320.4 
L 635.027723 96.877792 
L 611.678 96.877792 
z
" clip-path="url(#pe8632fbfc3)" style="fill: #add8e6"/>
   </g>
   <g id="patch_18">
    <path d="M 640.865153 320.4 
L 664.214876 320.4 
L 664.214876 97.937767 
L 640.865153 97.937767 
z
" clip-path="url(#pe8632fbfc3)" style="fill: #add8e6"/>
   </g>
   <g id="matplotlib.axis_1">
    <g id="xtick_1">
     <g id="line2d_1">
      <defs>
       <path id="m44e7810dfd" d="M 0 0 
L 0 3.5 
" style="stroke: #000000; stroke-width: 0.8"/>
      </defs>
      <g>
       <use xlink:href="#m44e7810dfd" x="214.732713" y="320.4" style="stroke: #000000; stroke-width: 0.8"/>
      </g>
     </g>
     <g id="text_1">
      <!-- tourist -->
      <g transform="translate(217.545213 362.4) rotate(-90) scale(0.1 -0.1)">
       <defs>
        <path id="KaiTi-74" d="M 2750 200 
Q 2625 150 2462 112 
Q 2300 75 2025 75 
Q 1575 75 1300 325 
Q 1025 575 1025 1025 
L 1025 2525 
L 175 2525 
L 175 2925 
L 1025 2925 
L 1025 3900 
L 1525 3900 
L 1525 2925 
L 2550 2925 
L 2550 2525 
L 1525 2525 
L 1525 1000 
Q 1525 800 1625 662 
Q 1725 525 2000 525 
Q 2275 525 2450 575 
Q 2625 625 2750 700 
L 2750 200 
z
" transform="scale(0.015625)"/>
        <path id="KaiTi-6f" d="M 2925 1525 
Q 2925 875 2525 475 
Q 2125 75 1575 75 
Q 1025 75 625 475 
Q 225 875 225 1525 
Q 225 2175 625 2575 
Q 1025 2975 1575 2975 
Q 2125 2975 2525 2575 
Q 2925 2175 2925 1525 
z
M 2375 1525 
Q 2375 2025 2125 2275 
Q 1875 2525 1575 2525 
Q 1275 2525 1025 2275 
Q 775 2025 775 1525 
Q 775 1025 1025 775 
Q 1275 525 1575 525 
Q 1875 525 2125 775 
Q 2375 1025 2375 1525 
z
" transform="scale(0.015625)"/>
        <path id="KaiTi-75" d="M 2800 125 
L 2300 125 
L 2300 650 
Q 2100 375 1862 225 
Q 1625 75 1250 75 
Q 800 75 575 325 
Q 350 575 350 950 
L 350 2925 
L 850 2925 
L 850 1125 
Q 850 825 1000 650 
Q 1150 475 1400 475 
Q 1725 475 2012 812 
Q 2300 1150 2300 1650 
L 2300 2925 
L 2800 2925 
L 2800 125 
z
" transform="scale(0.015625)"/>
        <path id="KaiTi-72" d="M 2500 2425 
Q 2025 2500 1700 2287 
Q 1375 2075 1150 1550 
L 1150 125 
L 650 125 
L 650 2925 
L 1150 2925 
L 1150 2200 
Q 1375 2600 1712 2787 
Q 2050 2975 2500 2975 
L 2500 2425 
z
" transform="scale(0.015625)"/>
        <path id="KaiTi-69" d="M 1800 125 
L 1300 125 
L 1300 2925 
L 1800 2925 
L 1800 125 
z
M 1912 4075 
Q 1925 3875 1750 3775 
Q 1575 3675 1400 3762 
Q 1225 3850 1212 4050 
Q 1200 4250 1375 4350 
Q 1550 4450 1725 4362 
Q 1900 4275 1912 4075 
z
" transform="scale(0.015625)"/>
        <path id="KaiTi-73" d="M 2750 900 
Q 2750 500 2437 287 
Q 2125 75 1650 75 
Q 1050 75 725 312 
Q 400 550 400 1000 
L 900 1000 
Q 900 700 1112 600 
Q 1325 500 1625 500 
Q 1925 500 2075 612 
Q 2225 725 2225 900 
Q 2225 1025 2100 1150 
Q 1975 1275 1475 1350 
Q 900 1425 687 1637 
Q 475 1850 475 2200 
Q 475 2500 762 2737 
Q 1050 2975 1600 2975 
Q 2100 2975 2387 2750 
Q 2675 2525 2675 2150 
L 2175 2150 
Q 2175 2375 2012 2462 
Q 1850 2550 1600 2550 
Q 1275 2550 1137 2437 
Q 1000 2325 1000 2175 
Q 1000 2000 1125 1900 
Q 1250 1800 1650 1750 
Q 2300 1650 2525 1437 
Q 2750 1225 2750 900 
z
" transform="scale(0.015625)"/>
       </defs>
       <use xlink:href="#KaiTi-74"/>
       <use xlink:href="#KaiTi-6f" transform="translate(50 0)"/>
       <use xlink:href="#KaiTi-75" transform="translate(100 0)"/>
       <use xlink:href="#KaiTi-72" transform="translate(150 0)"/>
       <use xlink:href="#KaiTi-69" transform="translate(200 0)"/>
       <use xlink:href="#KaiTi-73" transform="translate(250 0)"/>
       <use xlink:href="#KaiTi-74" transform="translate(300 0)"/>
      </g>
     </g>
    </g>
    <g id="xtick_2">
     <g id="line2d_2">
      <g>
       <use xlink:href="#m44e7810dfd" x="243.919866" y="320.4" style="stroke: #000000; stroke-width: 0.8"/>
      </g>
     </g>
     <g id="text_2">
      <!-- jiangly -->
      <g transform="translate(246.771429 362.4) rotate(-90) scale(0.1 -0.1)">
       <defs>
        <path id="KaiTi-6a" d="M 2300 150 
Q 2300 -300 2025 -550 
Q 1750 -800 1300 -800 
Q 1025 -800 862 -762 
Q 700 -725 575 -675 
L 575 -175 
Q 700 -250 875 -300 
Q 1050 -350 1325 -350 
Q 1600 -350 1700 -212 
Q 1800 -75 1800 125 
L 1800 2925 
L 2300 2925 
L 2300 150 
z
M 2412 4075 
Q 2425 3875 2250 3775 
Q 2075 3675 1900 3762 
Q 1725 3850 1712 4050 
Q 1700 4250 1875 4350 
Q 2050 4450 2225 4362 
Q 2400 4275 2412 4075 
z
" transform="scale(0.015625)"/>
        <path id="KaiTi-61" d="M 2875 125 
L 2275 125 
Q 2225 175 2200 262 
Q 2175 350 2175 475 
Q 2000 275 1750 175 
Q 1500 75 1225 75 
Q 825 75 550 275 
Q 275 475 275 850 
Q 275 1225 525 1450 
Q 775 1675 1300 1750 
Q 1650 1800 1912 1875 
Q 2175 1950 2175 2075 
Q 2175 2225 2062 2375 
Q 1950 2525 1575 2525 
Q 1275 2525 1137 2412 
Q 1000 2300 950 2100 
L 400 2100 
Q 450 2500 762 2737 
Q 1075 2975 1575 2975 
Q 2125 2975 2400 2725 
Q 2675 2475 2675 2025 
L 2675 650 
Q 2675 500 2725 375 
Q 2775 250 2875 125 
z
M 2175 1050 
L 2175 1550 
Q 2025 1500 1887 1462 
Q 1750 1425 1425 1375 
Q 1050 1325 937 1200 
Q 825 1075 825 900 
Q 825 750 937 637 
Q 1050 525 1275 525 
Q 1500 525 1762 650 
Q 2025 775 2175 1050 
z
" transform="scale(0.015625)"/>
        <path id="KaiTi-6e" d="M 2800 125 
L 2300 125 
L 2300 1925 
Q 2300 2225 2150 2400 
Q 2000 2575 1750 2575 
Q 1425 2575 1137 2237 
Q 850 1900 850 1400 
L 850 125 
L 350 125 
L 350 2925 
L 850 2925 
L 850 2400 
Q 1050 2675 1287 2825 
Q 1525 2975 1900 2975 
Q 2350 2975 2575 2725 
Q 2800 2475 2800 2100 
L 2800 125 
z
" transform="scale(0.015625)"/>
        <path id="KaiTi-67" d="M 2975 2500 
Q 2800 2550 2637 2562 
Q 2475 2575 2300 2525 
Q 2375 2450 2425 2337 
Q 2475 2225 2475 2000 
Q 2475 1575 2187 1300 
Q 1900 1025 1475 1025 
Q 1375 1025 1212 1062 
Q 1050 1100 950 1150 
Q 875 1100 850 1050 
Q 825 1000 825 925 
Q 825 800 1000 737 
Q 1175 675 1625 675 
Q 2350 675 2612 475 
Q 2875 275 2875 -25 
Q 2875 -425 2487 -612 
Q 2100 -800 1575 -800 
Q 900 -800 575 -625 
Q 250 -450 250 -150 
Q 250 0 375 150 
Q 500 300 700 400 
Q 550 475 462 587 
Q 375 700 375 875 
Q 375 1025 487 1137 
Q 600 1250 750 1325 
Q 625 1450 550 1625 
Q 475 1800 475 2000 
Q 475 2425 762 2700 
Q 1050 2975 1475 2975 
Q 1700 2975 1862 2912 
Q 2025 2850 2150 2725 
Q 2350 2875 2550 2937 
Q 2750 3000 2975 2975 
L 2975 2500 
z
M 1975 2000 
Q 1975 2250 1850 2400 
Q 1725 2550 1475 2550 
Q 1225 2550 1100 2400 
Q 975 2250 975 2000 
Q 975 1750 1100 1600 
Q 1225 1450 1475 1450 
Q 1725 1450 1850 1600 
Q 1975 1750 1975 2000 
z
M 2400 -75 
Q 2400 25 2287 125 
Q 2175 225 1725 225 
Q 1625 225 1450 237 
Q 1275 250 1050 275 
Q 850 200 775 100 
Q 700 0 700 -100 
Q 700 -250 900 -350 
Q 1100 -450 1600 -450 
Q 2025 -450 2212 -337 
Q 2400 -225 2400 -75 
z
" transform="scale(0.015625)"/>
        <path id="KaiTi-6c" d="M 1825 125 
L 1325 125 
L 1325 4400 
L 1825 4400 
L 1825 125 
z
" transform="scale(0.015625)"/>
        <path id="KaiTi-79" d="M 2900 2925 
L 1750 -100 
Q 1650 -450 1450 -625 
Q 1250 -800 950 -800 
Q 825 -800 712 -787 
Q 600 -775 500 -725 
L 500 -225 
Q 600 -275 700 -300 
Q 800 -325 875 -325 
Q 1075 -325 1150 -262 
Q 1225 -200 1300 25 
L 200 2925 
L 750 2925 
L 1550 725 
L 1575 725 
L 2350 2925 
L 2900 2925 
z
" transform="scale(0.015625)"/>
       </defs>
       <use xlink:href="#KaiTi-6a"/>
       <use xlink:href="#KaiTi-69" transform="translate(50 0)"/>
       <use xlink:href="#KaiTi-61" transform="translate(100 0)"/>
       <use xlink:href="#KaiTi-6e" transform="translate(150 0)"/>
       <use xlink:href="#KaiTi-67" transform="translate(200 0)"/>
       <use xlink:href="#KaiTi-6c" transform="translate(250 0)"/>
       <use xlink:href="#KaiTi-79" transform="translate(300 0)"/>
      </g>
     </g>
    </g>
    <g id="xtick_3">
     <g id="line2d_3">
      <g>
       <use xlink:href="#m44e7810dfd" x="273.10702" y="320.4" style="stroke: #000000; stroke-width: 0.8"/>
      </g>
     </g>
     <g id="text_3">
      <!-- jqdai0815 -->
      <g transform="translate(275.978113 372.4) rotate(-90) scale(0.1 -0.1)">
       <defs>
        <path id="KaiTi-71" d="M 2750 -800 
L 2250 -800 
L 2250 500 
Q 2100 275 1900 162 
Q 1700 50 1425 50 
Q 925 50 575 425 
Q 225 800 225 1525 
Q 225 2250 575 2612 
Q 925 2975 1425 2975 
Q 1700 2975 1900 2875 
Q 2100 2775 2250 2550 
L 2250 2925 
L 2750 2925 
L 2750 -800 
z
M 2250 1525 
Q 2250 2000 2037 2262 
Q 1825 2525 1525 2525 
Q 1150 2525 962 2262 
Q 775 2000 775 1525 
Q 775 1050 962 775 
Q 1150 500 1525 500 
Q 1825 500 2037 775 
Q 2250 1050 2250 1525 
z
" transform="scale(0.015625)"/>
        <path id="KaiTi-64" d="M 2750 125 
L 2250 125 
L 2250 500 
Q 2100 275 1900 175 
Q 1700 75 1425 75 
Q 925 75 575 437 
Q 225 800 225 1525 
Q 225 2250 575 2625 
Q 925 3000 1425 3000 
Q 1700 3000 1900 2887 
Q 2100 2775 2250 2550 
L 2250 4400 
L 2750 4400 
L 2750 125 
z
M 2250 1525 
Q 2250 2000 2037 2275 
Q 1825 2550 1525 2550 
Q 1150 2550 962 2275 
Q 775 2000 775 1525 
Q 775 1050 962 787 
Q 1150 525 1525 525 
Q 1825 525 2037 787 
Q 2250 1050 2250 1525 
z
" transform="scale(0.015625)"/>
        <path id="KaiTi-30" d="M 225 2537 
Q 250 3200 412 3587 
Q 575 3975 875 4225 
Q 1175 4475 1612 4475 
Q 2050 4475 2375 4112 
Q 2700 3750 2800 3200 
Q 2900 2650 2862 1937 
Q 2825 1225 2612 775 
Q 2400 325 1975 150 
Q 1550 -25 1125 187 
Q 700 400 525 750 
Q 350 1100 275 1487 
Q 200 1875 225 2537 
z
M 750 2687 
Q 675 2000 800 1462 
Q 925 925 1212 700 
Q 1500 475 1800 612 
Q 2100 750 2237 1162 
Q 2375 1575 2375 2062 
Q 2375 2550 2337 2950 
Q 2300 3350 2112 3675 
Q 1925 4000 1612 4012 
Q 1300 4025 1062 3700 
Q 825 3375 750 2687 
z
" transform="scale(0.015625)"/>
        <path id="KaiTi-38" d="M 175 1375 
Q 175 1675 325 1962 
Q 475 2250 825 2425 
Q 525 2600 425 2812 
Q 325 3025 312 3300 
Q 300 3575 387 3775 
Q 475 3975 650 4150 
Q 825 4325 1037 4387 
Q 1250 4450 1500 4450 
Q 1750 4450 1950 4400 
Q 2150 4350 2375 4187 
Q 2600 4025 2700 3725 
Q 2800 3425 2687 3025 
Q 2575 2625 2100 2400 
Q 2525 2275 2700 2012 
Q 2875 1750 2875 1375 
Q 2875 1000 2762 775 
Q 2650 550 2512 400 
Q 2375 250 2137 162 
Q 1900 75 1537 75 
Q 1175 75 912 162 
Q 650 250 475 425 
Q 300 600 237 837 
Q 175 1075 175 1375 
z
M 687 1400 
Q 675 1100 787 875 
Q 900 650 1200 587 
Q 1500 525 1825 600 
Q 2150 675 2275 950 
Q 2400 1225 2362 1500 
Q 2325 1775 2050 1962 
Q 1775 2150 1450 2125 
Q 1125 2100 912 1900 
Q 700 1700 687 1400 
z
M 775 3350 
Q 775 3100 950 2875 
Q 1125 2650 1500 2650 
Q 1875 2650 2062 2875 
Q 2250 3100 2237 3412 
Q 2225 3725 2012 3875 
Q 1800 4025 1437 4000 
Q 1075 3975 925 3787 
Q 775 3600 775 3350 
z
" transform="scale(0.015625)"/>
        <path id="KaiTi-31" d="M 1400 3600 
Q 1075 3275 575 2975 
L 575 3450 
Q 1200 3875 1600 4450 
L 1900 4450 
L 1900 150 
L 1400 150 
L 1400 3600 
z
" transform="scale(0.015625)"/>
        <path id="KaiTi-35" d="M 550 1325 
Q 725 650 1150 575 
Q 1575 500 1837 662 
Q 2100 825 2212 1087 
Q 2325 1350 2312 1675 
Q 2300 2000 2137 2225 
Q 1975 2450 1725 2525 
Q 1475 2600 1162 2525 
Q 850 2450 650 2175 
L 225 2225 
Q 275 2375 700 4375 
L 2675 4375 
L 2675 3925 
L 1075 3925 
Q 950 3250 825 2850 
Q 1200 3025 1525 3012 
Q 1850 3000 2150 2862 
Q 2450 2725 2587 2487 
Q 2725 2250 2787 2012 
Q 2850 1775 2837 1500 
Q 2825 1225 2725 937 
Q 2625 650 2425 462 
Q 2225 275 1937 162 
Q 1650 50 1275 75 
Q 900 100 562 350 
Q 225 600 100 1200 
L 550 1325 
z
" transform="scale(0.015625)"/>
       </defs>
       <use xlink:href="#KaiTi-6a"/>
       <use xlink:href="#KaiTi-71" transform="translate(50 0)"/>
       <use xlink:href="#KaiTi-64" transform="translate(100 0)"/>
       <use xlink:href="#KaiTi-61" transform="translate(150 0)"/>
       <use xlink:href="#KaiTi-69" transform="translate(200 0)"/>
       <use xlink:href="#KaiTi-30" transform="translate(250 0)"/>
       <use xlink:href="#KaiTi-38" transform="translate(300 0)"/>
       <use xlink:href="#KaiTi-31" transform="translate(350 0)"/>
       <use xlink:href="#KaiTi-35" transform="translate(400 0)"/>
      </g>
     </g>
    </g>
    <g id="xtick_4">
     <g id="line2d_4">
      <g>
       <use xlink:href="#m44e7810dfd" x="302.294173" y="320.4" style="stroke: #000000; stroke-width: 0.8"/>
      </g>
     </g>
     <g id="text_4">
      <!-- Benq -->
      <g transform="translate(305.106673 347.4) rotate(-90) scale(0.1 -0.1)">
       <defs>
        <path id="KaiTi-42" d="M 2950 1400 
Q 2950 675 2550 400 
Q 2150 125 1525 125 
L 275 125 
L 275 4400 
L 1575 4400 
Q 2200 4400 2512 4075 
Q 2825 3750 2825 3300 
Q 2825 2850 2612 2637 
Q 2400 2425 2175 2350 
Q 2475 2275 2712 2037 
Q 2950 1800 2950 1400 
z
M 2250 3300 
Q 2250 3625 2062 3775 
Q 1875 3925 1600 3925 
L 850 3925 
L 850 2600 
L 1575 2600 
Q 1850 2600 2050 2762 
Q 2250 2925 2250 3300 
z
M 2350 1400 
Q 2350 1800 2087 1962 
Q 1825 2125 1500 2125 
L 850 2125 
L 850 600 
L 1425 600 
Q 1875 600 2112 775 
Q 2350 950 2350 1400 
z
" transform="scale(0.015625)"/>
        <path id="KaiTi-65" d="M 2850 1075 
Q 2800 625 2450 350 
Q 2100 75 1625 75 
Q 1025 75 637 462 
Q 250 850 250 1525 
Q 250 2200 637 2587 
Q 1025 2975 1625 2975 
Q 2150 2975 2487 2637 
Q 2825 2300 2825 1525 
L 800 1525 
Q 800 975 1037 750 
Q 1275 525 1625 525 
Q 1900 525 2075 662 
Q 2250 800 2300 1075 
L 2850 1075 
z
M 2250 1925 
Q 2200 2275 2025 2412 
Q 1850 2550 1575 2550 
Q 1325 2550 1125 2412 
Q 925 2275 825 1925 
L 2250 1925 
z
" transform="scale(0.015625)"/>
       </defs>
       <use xlink:href="#KaiTi-42"/>
       <use xlink:href="#KaiTi-65" transform="translate(50 0)"/>
       <use xlink:href="#KaiTi-6e" transform="translate(100 0)"/>
       <use xlink:href="#KaiTi-71" transform="translate(150 0)"/>
      </g>
     </g>
    </g>
    <g id="xtick_5">
     <g id="line2d_5">
      <g>
       <use xlink:href="#m44e7810dfd" x="331.481326" y="320.4" style="stroke: #000000; stroke-width: 0.8"/>
      </g>
     </g>
     <g id="text_5">
      <!-- cnnfls_csy -->
      <g transform="translate(334.293826 377.4) rotate(-90) scale(0.1 -0.1)">
       <defs>
        <path id="KaiTi-63" d="M 2850 1250 
Q 2850 725 2487 400 
Q 2125 75 1575 75 
Q 1025 75 625 462 
Q 225 850 225 1525 
Q 225 2200 625 2587 
Q 1025 2975 1575 2975 
Q 2125 2975 2450 2687 
Q 2775 2400 2775 2000 
L 2225 2000 
Q 2200 2300 2012 2412 
Q 1825 2525 1575 2525 
Q 1275 2525 1025 2287 
Q 775 2050 775 1525 
Q 775 1000 1025 762 
Q 1275 525 1575 525 
Q 1900 525 2100 700 
Q 2300 875 2300 1250 
L 2850 1250 
z
" transform="scale(0.015625)"/>
        <path id="KaiTi-66" d="M 2850 3825 
Q 2725 3900 2550 3950 
Q 2375 4000 2100 4000 
Q 1825 4000 1725 3862 
Q 1625 3725 1625 3525 
L 1625 2925 
L 2650 2925 
L 2650 2525 
L 1625 2525 
L 1625 125 
L 1125 125 
L 1125 2525 
L 275 2525 
L 275 2925 
L 1125 2925 
L 1125 3500 
Q 1125 3950 1400 4200 
Q 1675 4450 2125 4450 
Q 2400 4450 2562 4412 
Q 2725 4375 2850 4325 
L 2850 3825 
z
" transform="scale(0.015625)"/>
        <path id="KaiTi-5f" d="M 3150 -850 
L 0 -850 
L 0 -550 
L 3150 -550 
L 3150 -850 
z
" transform="scale(0.015625)"/>
       </defs>
       <use xlink:href="#KaiTi-63"/>
       <use xlink:href="#KaiTi-6e" transform="translate(50 0)"/>
       <use xlink:href="#KaiTi-6e" transform="translate(100 0)"/>
       <use xlink:href="#KaiTi-66" transform="translate(150 0)"/>
       <use xlink:href="#KaiTi-6c" transform="translate(200 0)"/>
       <use xlink:href="#KaiTi-73" transform="translate(250 0)"/>
       <use xlink:href="#KaiTi-5f" transform="translate(300 0)"/>
       <use xlink:href="#KaiTi-63" transform="translate(350 0)"/>
       <use xlink:href="#KaiTi-73" transform="translate(400 0)"/>
       <use xlink:href="#KaiTi-79" transform="translate(450 0)"/>
      </g>
     </g>
    </g>
    <g id="xtick_6">
     <g id="line2d_6">
      <g>
       <use xlink:href="#m44e7810dfd" x="360.66848" y="320.4" style="stroke: #000000; stroke-width: 0.8"/>
      </g>
     </g>
     <g id="text_6">
      <!-- Geothermal -->
      <g transform="translate(363.48098 377.4) rotate(-90) scale(0.1 -0.1)">
       <defs>
        <path id="KaiTi-47" d="M 2850 75 
L 2425 75 
L 2350 425 
Q 2250 275 2037 175 
Q 1825 75 1575 75 
Q 1050 75 637 562 
Q 225 1050 225 2125 
Q 225 3300 600 3875 
Q 975 4450 1625 4450 
Q 2200 4450 2525 4025 
Q 2850 3600 2850 2925 
L 2300 2925 
Q 2300 3450 2125 3712 
Q 1950 3975 1625 3975 
Q 1225 3975 1025 3562 
Q 825 3150 825 2175 
Q 825 1250 1075 900 
Q 1325 550 1650 550 
Q 1975 550 2162 787 
Q 2350 1025 2350 1525 
L 2350 1800 
L 1575 1800 
L 1575 2275 
L 2850 2275 
L 2850 75 
z
" transform="scale(0.015625)"/>
        <path id="KaiTi-68" d="M 2800 125 
L 2300 125 
L 2300 1925 
Q 2300 2225 2150 2400 
Q 2000 2575 1750 2575 
Q 1425 2575 1137 2237 
Q 850 1900 850 1400 
L 850 125 
L 350 125 
L 350 4400 
L 850 4400 
L 850 2400 
Q 1050 2675 1287 2825 
Q 1525 2975 1900 2975 
Q 2350 2975 2575 2725 
Q 2800 2475 2800 2100 
L 2800 125 
z
" transform="scale(0.015625)"/>
        <path id="KaiTi-6d" d="M 3050 125 
L 2550 125 
L 2550 2150 
Q 2550 2300 2500 2400 
Q 2450 2500 2300 2500 
Q 2125 2500 1975 2312 
Q 1825 2125 1825 1825 
L 1825 125 
L 1325 125 
L 1325 2150 
Q 1325 2300 1275 2400 
Q 1225 2500 1075 2500 
Q 900 2500 750 2312 
Q 600 2125 600 1825 
L 600 125 
L 100 125 
L 100 2925 
L 600 2925 
L 600 2550 
Q 725 2750 900 2862 
Q 1075 2975 1275 2975 
Q 1475 2975 1612 2862 
Q 1750 2750 1800 2550 
Q 1925 2750 2087 2862 
Q 2250 2975 2450 2975 
Q 2750 2975 2900 2812 
Q 3050 2650 3050 2350 
L 3050 125 
z
" transform="scale(0.015625)"/>
       </defs>
       <use xlink:href="#KaiTi-47"/>
       <use xlink:href="#KaiTi-65" transform="translate(50 0)"/>
       <use xlink:href="#KaiTi-6f" transform="translate(100 0)"/>
       <use xlink:href="#KaiTi-74" transform="translate(150 0)"/>
       <use xlink:href="#KaiTi-68" transform="translate(200 0)"/>
       <use xlink:href="#KaiTi-65" transform="translate(250 0)"/>
       <use xlink:href="#KaiTi-72" transform="translate(300 0)"/>
       <use xlink:href="#KaiTi-6d" transform="translate(350 0)"/>
       <use xlink:href="#KaiTi-61" transform="translate(400 0)"/>
       <use xlink:href="#KaiTi-6c" transform="translate(450 0)"/>
      </g>
     </g>
    </g>
    <g id="xtick_7">
     <g id="line2d_7">
      <g>
       <use xlink:href="#m44e7810dfd" x="389.855633" y="320.4" style="stroke: #000000; stroke-width: 0.8"/>
      </g>
     </g>
     <g id="text_7">
      <!-- DearMargaret -->
      <g transform="translate(392.668133 387.4) rotate(-90) scale(0.1 -0.1)">
       <defs>
        <path id="KaiTi-44" d="M 2925 2250 
Q 2925 1100 2437 612 
Q 1950 125 1125 125 
L 275 125 
L 275 4400 
L 1125 4400 
Q 2050 4400 2487 3900 
Q 2925 3400 2925 2250 
z
M 2325 2250 
Q 2325 3175 2025 3550 
Q 1725 3925 1125 3925 
L 850 3925 
L 850 600 
L 1125 600 
Q 1725 600 2025 962 
Q 2325 1325 2325 2250 
z
" transform="scale(0.015625)"/>
        <path id="KaiTi-4d" d="M 2925 125 
L 2425 125 
L 2425 3175 
L 2375 3175 
L 1775 125 
L 1375 125 
L 775 3175 
L 725 3175 
L 725 125 
L 225 125 
L 225 4400 
L 1000 4400 
L 1550 1575 
L 1600 1575 
L 2150 4400 
L 2925 4400 
L 2925 125 
z
" transform="scale(0.015625)"/>
       </defs>
       <use xlink:href="#KaiTi-44"/>
       <use xlink:href="#KaiTi-65" transform="translate(50 0)"/>
       <use xlink:href="#KaiTi-61" transform="translate(100 0)"/>
       <use xlink:href="#KaiTi-72" transform="translate(150 0)"/>
       <use xlink:href="#KaiTi-4d" transform="translate(200 0)"/>
       <use xlink:href="#KaiTi-61" transform="translate(250 0)"/>
       <use xlink:href="#KaiTi-72" transform="translate(300 0)"/>
       <use xlink:href="#KaiTi-67" transform="translate(350 0)"/>
       <use xlink:href="#KaiTi-61" transform="translate(400 0)"/>
       <use xlink:href="#KaiTi-72" transform="translate(450 0)"/>
       <use xlink:href="#KaiTi-65" transform="translate(500 0)"/>
       <use xlink:href="#KaiTi-74" transform="translate(550 0)"/>
      </g>
     </g>
    </g>
    <g id="xtick_8">
     <g id="line2d_8">
      <g>
       <use xlink:href="#m44e7810dfd" x="419.042787" y="320.4" style="stroke: #000000; stroke-width: 0.8"/>
      </g>
     </g>
     <g id="text_8">
      <!-- orzdevinwang -->
      <g transform="translate(421.894349 387.4) rotate(-90) scale(0.1 -0.1)">
       <defs>
        <path id="KaiTi-7a" d="M 2775 125 
L 350 125 
L 350 525 
L 2050 2525 
L 450 2525 
L 450 2925 
L 2650 2925 
L 2650 2525 
L 950 525 
L 2775 525 
L 2775 125 
z
" transform="scale(0.015625)"/>
        <path id="KaiTi-76" d="M 2875 2925 
L 1825 75 
L 1275 75 
L 225 2925 
L 750 2925 
L 1525 750 
L 1575 750 
L 2350 2925 
L 2875 2925 
z
" transform="scale(0.015625)"/>
        <path id="KaiTi-77" d="M 3075 2925 
L 2450 75 
L 1975 75 
L 1575 2250 
L 1525 2250 
L 1125 75 
L 650 75 
L 25 2925 
L 550 2925 
L 875 1050 
L 925 1050 
L 1275 2925 
L 1825 2925 
L 2175 1050 
L 2225 1050 
L 2550 2925 
L 3075 2925 
z
" transform="scale(0.015625)"/>
       </defs>
       <use xlink:href="#KaiTi-6f"/>
       <use xlink:href="#KaiTi-72" transform="translate(50 0)"/>
       <use xlink:href="#KaiTi-7a" transform="translate(100 0)"/>
       <use xlink:href="#KaiTi-64" transform="translate(150 0)"/>
       <use xlink:href="#KaiTi-65" transform="translate(200 0)"/>
       <use xlink:href="#KaiTi-76" transform="translate(250 0)"/>
       <use xlink:href="#KaiTi-69" transform="translate(300 0)"/>
       <use xlink:href="#KaiTi-6e" transform="translate(350 0)"/>
       <use xlink:href="#KaiTi-77" transform="translate(400 0)"/>
       <use xlink:href="#KaiTi-61" transform="translate(450 0)"/>
       <use xlink:href="#KaiTi-6e" transform="translate(500 0)"/>
       <use xlink:href="#KaiTi-67" transform="translate(550 0)"/>
      </g>
     </g>
    </g>
    <g id="xtick_9">
     <g id="line2d_9">
      <g>
       <use xlink:href="#m44e7810dfd" x="448.22994" y="320.4" style="stroke: #000000; stroke-width: 0.8"/>
      </g>
     </g>
     <g id="text_9">
      <!-- ksun48 -->
      <g transform="translate(451.04244 357.4) rotate(-90) scale(0.1 -0.1)">
       <defs>
        <path id="KaiTi-6b" d="M 2925 125 
L 2350 125 
L 1450 1650 
L 875 1100 
L 875 125 
L 375 125 
L 375 4400 
L 875 4400 
L 875 1675 
L 2125 2925 
L 2750 2925 
L 1775 1975 
L 2925 125 
z
" transform="scale(0.015625)"/>
        <path id="KaiTi-34" d="M 2000 1100 
L 75 1100 
L 75 1525 
L 2100 4450 
L 2475 4450 
L 2475 1525 
L 3075 1525 
L 3075 1100 
L 2475 1100 
L 2475 150 
L 2000 150 
L 2000 1100 
z
M 2000 1525 
L 2000 3500 
L 600 1525 
L 2000 1525 
z
" transform="scale(0.015625)"/>
       </defs>
       <use xlink:href="#KaiTi-6b"/>
       <use xlink:href="#KaiTi-73" transform="translate(50 0)"/>
       <use xlink:href="#KaiTi-75" transform="translate(100 0)"/>
       <use xlink:href="#KaiTi-6e" transform="translate(150 0)"/>
       <use xlink:href="#KaiTi-34" transform="translate(200 0)"/>
       <use xlink:href="#KaiTi-38" transform="translate(250 0)"/>
      </g>
     </g>
    </g>
    <g id="xtick_10">
     <g id="line2d_10">
      <g>
       <use xlink:href="#m44e7810dfd" x="477.417094" y="320.4" style="stroke: #000000; stroke-width: 0.8"/>
      </g>
     </g>
     <g id="text_10">
      <!-- ecnerwala -->
      <g transform="translate(480.229594 372.4) rotate(-90) scale(0.1 -0.1)">
       <use xlink:href="#KaiTi-65"/>
       <use xlink:href="#KaiTi-63" transform="translate(50 0)"/>
       <use xlink:href="#KaiTi-6e" transform="translate(100 0)"/>
       <use xlink:href="#KaiTi-65" transform="translate(150 0)"/>
       <use xlink:href="#KaiTi-72" transform="translate(200 0)"/>
       <use xlink:href="#KaiTi-77" transform="translate(250 0)"/>
       <use xlink:href="#KaiTi-61" transform="translate(300 0)"/>
       <use xlink:href="#KaiTi-6c" transform="translate(350 0)"/>
       <use xlink:href="#KaiTi-61" transform="translate(400 0)"/>
      </g>
     </g>
    </g>
    <g id="xtick_11">
     <g id="line2d_11">
      <g>
       <use xlink:href="#m44e7810dfd" x="506.604247" y="320.4" style="stroke: #000000; stroke-width: 0.8"/>
      </g>
     </g>
     <g id="text_11">
      <!-- Radewoosh -->
      <g transform="translate(509.416747 372.4) rotate(-90) scale(0.1 -0.1)">
       <defs>
        <path id="KaiTi-52" d="M 3000 125 
L 2400 125 
L 1500 1975 
L 850 1975 
L 850 125 
L 275 125 
L 275 4400 
L 1525 4400 
Q 2125 4400 2500 4112 
Q 2875 3825 2875 3175 
Q 2875 2675 2625 2400 
Q 2375 2125 2050 2050 
L 3000 125 
z
M 2300 3175 
Q 2300 3525 2087 3725 
Q 1875 3925 1400 3925 
L 850 3925 
L 850 2450 
L 1550 2450 
Q 1850 2450 2075 2612 
Q 2300 2775 2300 3175 
z
" transform="scale(0.015625)"/>
       </defs>
       <use xlink:href="#KaiTi-52"/>
       <use xlink:href="#KaiTi-61" transform="translate(50 0)"/>
       <use xlink:href="#KaiTi-64" transform="translate(100 0)"/>
       <use xlink:href="#KaiTi-65" transform="translate(150 0)"/>
       <use xlink:href="#KaiTi-77" transform="translate(200 0)"/>
       <use xlink:href="#KaiTi-6f" transform="translate(250 0)"/>
       <use xlink:href="#KaiTi-6f" transform="translate(300 0)"/>
       <use xlink:href="#KaiTi-73" transform="translate(350 0)"/>
       <use xlink:href="#KaiTi-68" transform="translate(400 0)"/>
      </g>
     </g>
    </g>
    <g id="xtick_12">
     <g id="line2d_12">
      <g>
       <use xlink:href="#m44e7810dfd" x="535.791401" y="320.4" style="stroke: #000000; stroke-width: 0.8"/>
      </g>
     </g>
     <g id="text_12">
      <!-- gyh20 -->
      <g transform="translate(538.682026 352.4) rotate(-90) scale(0.1 -0.1)">
       <defs>
        <path id="KaiTi-32" d="M 300 250 
Q 325 625 650 925 
Q 975 1225 1475 1862 
Q 1975 2500 2125 2850 
Q 2275 3200 2237 3450 
Q 2200 3700 2000 3862 
Q 1800 4025 1537 4000 
Q 1275 3975 1037 3800 
Q 800 3625 675 3275 
L 200 3350 
Q 400 3925 712 4187 
Q 1025 4450 1450 4475 
Q 1700 4500 1900 4462 
Q 2100 4425 2312 4287 
Q 2525 4150 2662 3875 
Q 2800 3600 2762 3212 
Q 2725 2825 2375 2287 
Q 2025 1750 1025 600 
L 2825 600 
L 2825 150 
L 300 150 
L 300 250 
z
" transform="scale(0.015625)"/>
       </defs>
       <use xlink:href="#KaiTi-67"/>
       <use xlink:href="#KaiTi-79" transform="translate(50 0)"/>
       <use xlink:href="#KaiTi-68" transform="translate(100 0)"/>
       <use xlink:href="#KaiTi-32" transform="translate(150 0)"/>
       <use xlink:href="#KaiTi-30" transform="translate(200 0)"/>
      </g>
     </g>
    </g>
    <g id="xtick_13">
     <g id="line2d_13">
      <g>
       <use xlink:href="#m44e7810dfd" x="564.978554" y="320.4" style="stroke: #000000; stroke-width: 0.8"/>
      </g>
     </g>
     <g id="text_13">
      <!-- Rebelz -->
      <g transform="translate(567.791054 357.4) rotate(-90) scale(0.1 -0.1)">
       <defs>
        <path id="KaiTi-62" d="M 2825 1525 
Q 2825 800 2475 437 
Q 2125 75 1625 75 
Q 1350 75 1150 175 
Q 950 275 800 500 
L 800 125 
L 300 125 
L 300 4400 
L 800 4400 
L 800 2550 
Q 950 2775 1150 2887 
Q 1350 3000 1625 3000 
Q 2125 3000 2475 2625 
Q 2825 2250 2825 1525 
z
M 2275 1525 
Q 2275 2000 2087 2275 
Q 1900 2550 1525 2550 
Q 1225 2550 1012 2275 
Q 800 2000 800 1525 
Q 800 1050 1012 787 
Q 1225 525 1525 525 
Q 1900 525 2087 787 
Q 2275 1050 2275 1525 
z
" transform="scale(0.015625)"/>
       </defs>
       <use xlink:href="#KaiTi-52"/>
       <use xlink:href="#KaiTi-65" transform="translate(50 0)"/>
       <use xlink:href="#KaiTi-62" transform="translate(100 0)"/>
       <use xlink:href="#KaiTi-65" transform="translate(150 0)"/>
       <use xlink:href="#KaiTi-6c" transform="translate(200 0)"/>
       <use xlink:href="#KaiTi-7a" transform="translate(250 0)"/>
      </g>
     </g>
    </g>
    <g id="xtick_14">
     <g id="line2d_14">
      <g>
       <use xlink:href="#m44e7810dfd" x="594.165708" y="320.4" style="stroke: #000000; stroke-width: 0.8"/>
      </g>
     </g>
     <g id="text_14">
      <!-- Kevin114514 -->
      <g transform="translate(596.978208 382.4) rotate(-90) scale(0.1 -0.1)">
       <defs>
        <path id="KaiTi-4b" d="M 3050 125 
L 2400 125 
L 1250 2250 
L 850 1725 
L 850 125 
L 275 125 
L 275 4400 
L 850 4400 
L 850 2550 
L 2275 4400 
L 2950 4400 
L 1625 2725 
L 3050 125 
z
" transform="scale(0.015625)"/>
       </defs>
       <use xlink:href="#KaiTi-4b"/>
       <use xlink:href="#KaiTi-65" transform="translate(50 0)"/>
       <use xlink:href="#KaiTi-76" transform="translate(100 0)"/>
       <use xlink:href="#KaiTi-69" transform="translate(150 0)"/>
       <use xlink:href="#KaiTi-6e" transform="translate(200 0)"/>
       <use xlink:href="#KaiTi-31" transform="translate(250 0)"/>
       <use xlink:href="#KaiTi-31" transform="translate(300 0)"/>
       <use xlink:href="#KaiTi-34" transform="translate(350 0)"/>
       <use xlink:href="#KaiTi-35" transform="translate(400 0)"/>
       <use xlink:href="#KaiTi-31" transform="translate(450 0)"/>
       <use xlink:href="#KaiTi-34" transform="translate(500 0)"/>
      </g>
     </g>
    </g>
    <g id="xtick_15">
     <g id="line2d_15">
      <g>
       <use xlink:href="#m44e7810dfd" x="623.352861" y="320.4" style="stroke: #000000; stroke-width: 0.8"/>
      </g>
     </g>
     <g id="text_15">
      <!-- gamegame -->
      <g transform="translate(626.165361 367.4) rotate(-90) scale(0.1 -0.1)">
       <use xlink:href="#KaiTi-67"/>
       <use xlink:href="#KaiTi-61" transform="translate(50 0)"/>
       <use xlink:href="#KaiTi-6d" transform="translate(100 0)"/>
       <use xlink:href="#KaiTi-65" transform="translate(150 0)"/>
       <use xlink:href="#KaiTi-67" transform="translate(200 0)"/>
       <use xlink:href="#KaiTi-61" transform="translate(250 0)"/>
       <use xlink:href="#KaiTi-6d" transform="translate(300 0)"/>
       <use xlink:href="#KaiTi-65" transform="translate(350 0)"/>
      </g>
     </g>
    </g>
    <g id="xtick_16">
     <g id="line2d_16">
      <g>
       <use xlink:href="#m44e7810dfd" x="652.540015" y="320.4" style="stroke: #000000; stroke-width: 0.8"/>
      </g>
     </g>
     <g id="text_16">
      <!-- heuristica -->
      <g transform="translate(655.352515 377.4) rotate(-90) scale(0.1 -0.1)">
       <use xlink:href="#KaiTi-68"/>
       <use xlink:href="#KaiTi-65" transform="translate(50 0)"/>
       <use xlink:href="#KaiTi-75" transform="translate(100 0)"/>
       <use xlink:href="#KaiTi-72" transform="translate(150 0)"/>
       <use xlink:href="#KaiTi-69" transform="translate(200 0)"/>
       <use xlink:href="#KaiTi-73" transform="translate(250 0)"/>
       <use xlink:href="#KaiTi-74" transform="translate(300 0)"/>
       <use xlink:href="#KaiTi-69" transform="translate(350 0)"/>
       <use xlink:href="#KaiTi-63" transform="translate(400 0)"/>
       <use xlink:href="#KaiTi-61" transform="translate(450 0)"/>
      </g>
     </g>
    </g>
    <g id="text_17">
     <!-- 用户昵称 -->
     <g transform="translate(403.636364 402.884375) scale(0.15 -0.15)">
      <defs>
       <path id="KaiTi-7528" d="M 3225 4275 
Q 3575 4100 3487 3937 
Q 3400 3775 3400 3250 
Q 3675 3300 3775 3300 
Q 3900 3300 4012 3200 
Q 4125 3100 3837 3025 
Q 3550 2950 3400 2900 
L 3375 2175 
Q 3775 2275 3937 2287 
Q 4100 2300 4187 2187 
Q 4275 2075 4050 2000 
Q 3825 1925 3375 1800 
Q 3375 1175 3300 600 
Q 3225 25 3150 12 
Q 3075 0 3050 325 
Q 3025 650 3050 1750 
Q 2750 1700 2575 1700 
Q 2425 1700 2237 1775 
Q 2050 1850 2237 1887 
Q 2425 1925 3075 2100 
L 3075 2850 
Q 2725 2775 2500 2862 
Q 2275 2950 2450 2987 
Q 2625 3025 3075 3125 
Q 3075 3725 3000 4225 
Q 2500 4175 2100 4125 
Q 2075 2350 2012 1825 
Q 1950 1300 1787 750 
Q 1625 200 1175 -112 
Q 725 -425 1062 -12 
Q 1400 400 1575 1212 
Q 1750 2025 1750 2575 
L 1750 3600 
Q 1750 4075 1612 4250 
Q 1475 4425 1775 4350 
Q 2075 4275 2575 4350 
Q 3075 4425 3662 4525 
Q 4250 4625 4387 4687 
Q 4525 4750 4775 4637 
Q 5025 4525 5200 4387 
Q 5375 4250 5275 4100 
Q 5175 3950 5150 3725 
Q 5125 3500 5125 2775 
Q 5125 2050 5162 1375 
Q 5200 700 5237 425 
Q 5275 150 5050 -237 
Q 4825 -625 4712 -287 
Q 4600 50 4225 262 
Q 3850 475 4287 375 
Q 4725 275 4762 562 
Q 4800 850 4800 1250 
Q 4800 1675 4762 2862 
Q 4725 4050 4575 4225 
Q 4425 4400 4150 4387 
Q 3875 4375 3225 4275 
z
" transform="scale(0.015625)"/>
       <path id="KaiTi-6237" d="M 4500 2700 
Q 4950 2325 4400 2287 
Q 3850 2250 2425 2050 
Q 2325 975 2000 412 
Q 1675 -150 1075 -387 
Q 475 -625 862 -375 
Q 1250 -125 1525 237 
Q 1800 600 1912 1137 
Q 2025 1675 2075 2412 
Q 2125 3150 1987 3387 
Q 1850 3625 2037 3612 
Q 2225 3600 2362 3537 
Q 2500 3475 2925 3537 
Q 3350 3600 3787 3687 
Q 4225 3775 4337 3862 
Q 4450 3950 4662 3875 
Q 4875 3800 5087 3662 
Q 5300 3525 5000 3337 
Q 4700 3150 4500 2700 
z
M 2425 2275 
Q 3625 2450 4125 2575 
Q 4250 3050 4275 3300 
Q 4300 3550 3925 3487 
Q 3550 3425 2475 3275 
Q 2475 2775 2425 2275 
z
M 3450 4450 
Q 3275 4575 3050 4825 
Q 2825 5075 3162 5037 
Q 3500 5000 3737 4850 
Q 3975 4700 3925 4475 
Q 3875 4250 3750 4300 
Q 3625 4350 3450 4450 
z
" transform="scale(0.015625)"/>
       <path id="KaiTi-6635" d="M 1650 1050 
Q 1375 1000 975 1000 
Q 900 550 762 800 
Q 625 1050 662 1325 
Q 700 1600 725 2012 
Q 750 2425 750 3050 
Q 750 3675 662 3887 
Q 575 4100 775 4050 
Q 975 4000 1200 4050 
Q 1425 4100 1575 4200 
Q 1725 4300 1887 4225 
Q 2050 4150 2187 4050 
Q 2325 3950 2225 3837 
Q 2125 3725 2087 3450 
Q 2050 3175 2037 2662 
Q 2025 2150 2037 1687 
Q 2050 1225 1937 875 
Q 1825 525 1762 700 
Q 1700 875 1650 1050 
z
M 4550 3750 
Q 4750 3525 4462 3450 
Q 4175 3375 3912 3300 
Q 3650 3225 3250 3175 
Q 3100 2450 2950 1975 
Q 2800 1500 2625 1112 
Q 2450 725 2187 387 
Q 1925 50 1525 -200 
Q 1125 -450 1562 0 
Q 2000 450 2287 1075 
Q 2575 1700 2737 2312 
Q 2900 2925 2975 3500 
Q 3050 4075 2912 4250 
Q 2775 4425 2925 4425 
Q 3100 4425 3262 4375 
Q 3425 4325 3825 4437 
Q 4225 4550 4362 4700 
Q 4500 4850 4612 4787 
Q 4725 4725 4987 4575 
Q 5250 4425 4975 4262 
Q 4700 4100 4550 3750 
z
M 3925 1350 
Q 3900 875 3987 625 
Q 4075 375 4425 325 
Q 4775 275 5200 362 
Q 5625 450 5700 837 
Q 5775 1225 5812 1437 
Q 5850 1650 5875 1137 
Q 5900 625 6000 425 
Q 6100 225 5650 50 
Q 5200 -125 4637 -62 
Q 4075 0 3925 137 
Q 3775 275 3737 425 
Q 3700 575 3687 925 
Q 3675 1275 3687 1600 
Q 3700 1925 3700 2225 
Q 3700 2550 3587 2737 
Q 3475 2925 3812 2825 
Q 4150 2725 4100 2587 
Q 4050 2450 4012 2312 
Q 3975 2175 3950 1975 
Q 3925 1775 3925 1525 
Q 4300 1825 4562 2237 
Q 4825 2650 4800 2787 
Q 4775 2925 5100 2737 
Q 5425 2550 5312 2475 
Q 5200 2400 4925 2150 
Q 4650 1900 4337 1662 
Q 4025 1425 3925 1350 
z
M 1000 1225 
Q 1175 1225 1300 1275 
Q 1425 1325 1675 1250 
Q 1700 1375 1712 1800 
Q 1725 2225 1725 2950 
Q 1725 3700 1662 3862 
Q 1600 4025 1050 3825 
L 1050 2675 
Q 1175 2675 1325 2712 
Q 1475 2750 1525 2625 
Q 1575 2500 1412 2450 
Q 1250 2400 1025 2450 
Q 1025 2150 1012 1900 
Q 1000 1650 1000 1225 
z
M 3275 3400 
Q 3700 3475 4300 3700 
Q 4350 4150 4337 4250 
Q 4325 4350 4087 4300 
Q 3850 4250 3350 4150 
Q 3350 3875 3275 3400 
z
" transform="scale(0.015625)"/>
       <path id="KaiTi-79f0" d="M 1900 3900 
Q 2350 3725 2300 3612 
Q 2250 3500 2225 3075 
Q 2425 3125 2575 3175 
Q 2725 3225 2837 3150 
Q 2950 3075 2750 3000 
Q 2550 2925 2225 2825 
L 2225 2325 
Q 2425 2325 2675 2225 
Q 2925 2125 2887 1850 
Q 2850 1575 2637 1762 
Q 2425 1950 2225 2175 
L 2225 775 
Q 2225 375 2162 62 
Q 2100 -250 1937 12 
Q 1775 275 1825 512 
Q 1875 750 1912 1100 
Q 1950 1450 1950 2325 
Q 1400 1475 787 1025 
Q 175 575 537 962 
Q 900 1350 1250 1825 
Q 1600 2300 1775 2725 
Q 1150 2550 975 2487 
Q 800 2425 537 2600 
Q 275 2775 650 2775 
Q 1025 2775 1950 3025 
Q 1950 3525 1850 3875 
Q 1550 3725 1325 3687 
Q 1100 3650 1437 3862 
Q 1775 4075 2062 4375 
Q 2350 4675 2350 4825 
Q 2350 5000 2750 4775 
Q 3125 4575 2887 4475 
Q 2650 4375 2487 4275 
Q 2325 4175 1900 3900 
z
M 3375 3175 
Q 3575 3200 4125 3350 
Q 4675 3500 4862 3625 
Q 5050 3750 5237 3675 
Q 5425 3600 5650 3437 
Q 5875 3275 5550 3150 
Q 5225 3025 4987 2787 
Q 4750 2550 4850 2850 
Q 4950 3150 4950 3250 
Q 4950 3375 4687 3300 
Q 4425 3225 4175 3150 
Q 4450 2950 4412 2825 
Q 4375 2700 4387 1987 
Q 4400 1275 4425 887 
Q 4450 500 4400 262 
Q 4350 25 4187 -162 
Q 4025 -350 3937 -125 
Q 3850 100 3550 275 
Q 3250 450 3462 412 
Q 3675 375 3850 375 
Q 4025 375 4050 762 
Q 4075 1150 4075 1975 
Q 4075 2800 3925 3075 
Q 3800 3050 3625 3012 
Q 3450 2975 3325 3075 
Q 3100 2750 2812 2562 
Q 2525 2375 2800 2700 
Q 3075 3025 3412 3850 
Q 3750 4675 3700 4862 
Q 3650 5050 3812 5000 
Q 3975 4950 4162 4837 
Q 4350 4725 4212 4612 
Q 4075 4500 3837 4012 
Q 3600 3525 3375 3175 
z
M 5025 1900 
Q 5650 1675 5787 1400 
Q 5925 1125 5850 925 
Q 5775 725 5450 1100 
Q 5125 1475 4837 1775 
Q 4550 2075 5025 1900 
z
M 3175 1650 
Q 3275 1850 3337 1987 
Q 3400 2125 3412 1675 
Q 3425 1225 3187 875 
Q 2950 525 2862 800 
Q 2775 1075 2937 1275 
Q 3100 1475 3175 1650 
z
" transform="scale(0.015625)"/>
      </defs>
      <use xlink:href="#KaiTi-7528"/>
      <use xlink:href="#KaiTi-6237" transform="translate(100 0)"/>
      <use xlink:href="#KaiTi-6635" transform="translate(200 0)"/>
      <use xlink:href="#KaiTi-79f0" transform="translate(300 0)"/>
     </g>
    </g>
   </g>
   <g id="matplotlib.axis_2">
    <g id="ytick_1">
     <g id="line2d_17">
      <defs>
       <path id="m9e96c17e05" d="M 0 0 
L -3.5 0 
" style="stroke: #000000; stroke-width: 0.8"/>
      </defs>
      <g>
       <use xlink:href="#m9e96c17e05" x="180" y="320.4" style="stroke: #000000; stroke-width: 0.8"/>
      </g>
     </g>
     <g id="text_18">
      <!-- 0 -->
      <g transform="translate(168 323.8375) scale(0.1 -0.1)">
       <use xlink:href="#KaiTi-30"/>
      </g>
     </g>
    </g>
    <g id="ytick_2">
     <g id="line2d_18">
      <g>
       <use xlink:href="#m9e96c17e05" x="180" y="287.275784" style="stroke: #000000; stroke-width: 0.8"/>
      </g>
     </g>
     <g id="text_19">
      <!-- 500 -->
      <g transform="translate(158 290.713284) scale(0.1 -0.1)">
       <use xlink:href="#KaiTi-35"/>
       <use xlink:href="#KaiTi-30" transform="translate(50 0)"/>
       <use xlink:href="#KaiTi-30" transform="translate(100 0)"/>
      </g>
     </g>
    </g>
    <g id="ytick_3">
     <g id="line2d_19">
      <g>
       <use xlink:href="#m9e96c17e05" x="180" y="254.151568" style="stroke: #000000; stroke-width: 0.8"/>
      </g>
     </g>
     <g id="text_20">
      <!-- 1000 -->
      <g transform="translate(153 257.589068) scale(0.1 -0.1)">
       <use xlink:href="#KaiTi-31"/>
       <use xlink:href="#KaiTi-30" transform="translate(50 0)"/>
       <use xlink:href="#KaiTi-30" transform="translate(100 0)"/>
       <use xlink:href="#KaiTi-30" transform="translate(150 0)"/>
      </g>
     </g>
    </g>
    <g id="ytick_4">
     <g id="line2d_20">
      <g>
       <use xlink:href="#m9e96c17e05" x="180" y="221.027353" style="stroke: #000000; stroke-width: 0.8"/>
      </g>
     </g>
     <g id="text_21">
      <!-- 1500 -->
      <g transform="translate(153 224.464853) scale(0.1 -0.1)">
       <use xlink:href="#KaiTi-31"/>
       <use xlink:href="#KaiTi-35" transform="translate(50 0)"/>
       <use xlink:href="#KaiTi-30" transform="translate(100 0)"/>
       <use xlink:href="#KaiTi-30" transform="translate(150 0)"/>
      </g>
     </g>
    </g>
    <g id="ytick_5">
     <g id="line2d_21">
      <g>
       <use xlink:href="#m9e96c17e05" x="180" y="187.903137" style="stroke: #000000; stroke-width: 0.8"/>
      </g>
     </g>
     <g id="text_22">
      <!-- 2000 -->
      <g transform="translate(153 191.340637) scale(0.1 -0.1)">
       <use xlink:href="#KaiTi-32"/>
       <use xlink:href="#KaiTi-30" transform="translate(50 0)"/>
       <use xlink:href="#KaiTi-30" transform="translate(100 0)"/>
       <use xlink:href="#KaiTi-30" transform="translate(150 0)"/>
      </g>
     </g>
    </g>
    <g id="ytick_6">
     <g id="line2d_22">
      <g>
       <use xlink:href="#m9e96c17e05" x="180" y="154.778921" style="stroke: #000000; stroke-width: 0.8"/>
      </g>
     </g>
     <g id="text_23">
      <!-- 2500 -->
      <g transform="translate(153 158.216421) scale(0.1 -0.1)">
       <use xlink:href="#KaiTi-32"/>
       <use xlink:href="#KaiTi-35" transform="translate(50 0)"/>
       <use xlink:href="#KaiTi-30" transform="translate(100 0)"/>
       <use xlink:href="#KaiTi-30" transform="translate(150 0)"/>
      </g>
     </g>
    </g>
    <g id="ytick_7">
     <g id="line2d_23">
      <g>
       <use xlink:href="#m9e96c17e05" x="180" y="121.654705" style="stroke: #000000; stroke-width: 0.8"/>
      </g>
     </g>
     <g id="text_24">
      <!-- 3000 -->
      <g transform="translate(153 125.092205) scale(0.1 -0.1)">
       <defs>
        <path id="KaiTi-33" d="M 250 1225 
L 700 1300 
Q 800 975 1025 762 
Q 1250 550 1587 562 
Q 1925 575 2125 837 
Q 2325 1100 2300 1437 
Q 2275 1775 2037 1962 
Q 1800 2150 1275 2225 
L 1275 2550 
Q 1800 2600 2037 2825 
Q 2275 3050 2250 3412 
Q 2225 3775 1925 3937 
Q 1625 4100 1287 3975 
Q 950 3850 750 3275 
L 300 3350 
Q 450 3800 712 4100 
Q 975 4400 1425 4450 
Q 1875 4500 2212 4337 
Q 2550 4175 2687 3837 
Q 2825 3500 2725 3100 
Q 2625 2700 2150 2400 
Q 2500 2250 2687 1950 
Q 2875 1650 2812 1162 
Q 2750 675 2375 375 
Q 2000 75 1525 87 
Q 1050 100 700 387 
Q 350 675 250 1225 
z
" transform="scale(0.015625)"/>
       </defs>
       <use xlink:href="#KaiTi-33"/>
       <use xlink:href="#KaiTi-30" transform="translate(50 0)"/>
       <use xlink:href="#KaiTi-30" transform="translate(100 0)"/>
       <use xlink:href="#KaiTi-30" transform="translate(150 0)"/>
      </g>
     </g>
    </g>
    <g id="ytick_8">
     <g id="line2d_24">
      <g>
       <use xlink:href="#m9e96c17e05" x="180" y="88.530489" style="stroke: #000000; stroke-width: 0.8"/>
      </g>
     </g>
     <g id="text_25">
      <!-- 3500 -->
      <g transform="translate(153 91.967989) scale(0.1 -0.1)">
       <use xlink:href="#KaiTi-33"/>
       <use xlink:href="#KaiTi-35" transform="translate(50 0)"/>
       <use xlink:href="#KaiTi-30" transform="translate(100 0)"/>
       <use xlink:href="#KaiTi-30" transform="translate(150 0)"/>
      </g>
     </g>
    </g>
    <g id="ytick_9">
     <g id="line2d_25">
      <g>
       <use xlink:href="#m9e96c17e05" x="180" y="55.406274" style="stroke: #000000; stroke-width: 0.8"/>
      </g>
     </g>
     <g id="text_26">
      <!-- 4000 -->
      <g transform="translate(153 58.843774) scale(0.1 -0.1)">
       <use xlink:href="#KaiTi-34"/>
       <use xlink:href="#KaiTi-30" transform="translate(50 0)"/>
       <use xlink:href="#KaiTi-30" transform="translate(100 0)"/>
       <use xlink:href="#KaiTi-30" transform="translate(150 0)"/>
      </g>
     </g>
    </g>
    <g id="text_27">
     <!-- Rating -->
     <g transform="translate(147.125 204.3) rotate(-90) scale(0.15 -0.15)">
      <use xlink:href="#KaiTi-52"/>
      <use xlink:href="#KaiTi-61" transform="translate(50 0)"/>
      <use xlink:href="#KaiTi-74" transform="translate(100 0)"/>
      <use xlink:href="#KaiTi-69" transform="translate(150 0)"/>
      <use xlink:href="#KaiTi-6e" transform="translate(200 0)"/>
      <use xlink:href="#KaiTi-67" transform="translate(250 0)"/>
     </g>
    </g>
   </g>
   <g id="patch_19">
    <path d="M 180 320.4 
L 180 43.2 
" style="fill: none; stroke: #000000; stroke-width: 0.8; stroke-linejoin: miter; stroke-linecap: square"/>
   </g>
   <g id="patch_20">
    <path d="M 687.272727 320.4 
L 687.272727 43.2 
" style="fill: none; stroke: #000000; stroke-width: 0.8; stroke-linejoin: miter; stroke-linecap: square"/>
   </g>
   <g id="patch_21">
    <path d="M 180 320.4 
L 687.272727 320.4 
" style="fill: none; stroke: #000000; stroke-width: 0.8; stroke-linejoin: miter; stroke-linecap: square"/>
   </g>
   <g id="patch_22">
    <path d="M 180 43.2 
L 687.272727 43.2 
" style="fill: none; stroke: #000000; stroke-width: 0.8; stroke-linejoin: miter; stroke-linecap: square"/>
   </g>
   <g id="text_28">
    <!-- 3985 -->
    <g transform="translate(204.732713 55.15) scale(0.1 -0.1)">
     <defs>
      <path id="KaiTi-39" d="M 800 75 
Q 1350 1000 1700 1750 
Q 1075 1650 662 1912 
Q 250 2175 162 2625 
Q 75 3075 175 3437 
Q 275 3800 487 4037 
Q 700 4275 1000 4375 
Q 1300 4475 1537 4475 
Q 1775 4475 2025 4375 
Q 2275 4275 2475 4075 
Q 2675 3875 2750 3662 
Q 2825 3450 2825 3112 
Q 2825 2775 2575 2250 
Q 2325 1725 1350 75 
L 800 75 
z
M 662 2875 
Q 700 2550 937 2337 
Q 1175 2125 1450 2150 
Q 1725 2175 1887 2300 
Q 2050 2425 2200 2725 
Q 2300 3100 2250 3362 
Q 2200 3625 1987 3800 
Q 1775 3975 1525 3975 
Q 1375 4000 1137 3900 
Q 900 3800 762 3500 
Q 625 3200 662 2875 
z
" transform="scale(0.015625)"/>
     </defs>
     <use xlink:href="#KaiTi-33"/>
     <use xlink:href="#KaiTi-39" transform="translate(50 0)"/>
     <use xlink:href="#KaiTi-38" transform="translate(100 0)"/>
     <use xlink:href="#KaiTi-35" transform="translate(150 0)"/>
    </g>
   </g>
   <g id="text_29">
    <!-- 3885 -->
    <g transform="translate(233.919866 61.774843) scale(0.1 -0.1)">
     <use xlink:href="#KaiTi-33"/>
     <use xlink:href="#KaiTi-38" transform="translate(50 0)"/>
     <use xlink:href="#KaiTi-38" transform="translate(100 0)"/>
     <use xlink:href="#KaiTi-35" transform="translate(150 0)"/>
    </g>
   </g>
   <g id="text_30">
    <!-- 3682 -->
    <g transform="translate(263.10702 75.223275) scale(0.1 -0.1)">
     <defs>
      <path id="KaiTi-36" d="M 250 1612 
Q 275 1975 387 2225 
Q 500 2475 725 2850 
L 1750 4450 
L 2325 4450 
L 1275 2800 
Q 1950 2975 2350 2750 
Q 2750 2525 2887 2237 
Q 3025 1950 3037 1612 
Q 3050 1275 2937 950 
Q 2825 625 2537 362 
Q 2250 100 1737 75 
Q 1225 50 862 262 
Q 500 475 362 862 
Q 225 1250 250 1612 
z
M 1025 787 
Q 1250 550 1625 525 
Q 2000 500 2250 775 
Q 2500 1050 2500 1575 
Q 2500 2100 2187 2300 
Q 1875 2500 1487 2450 
Q 1100 2400 925 2075 
Q 750 1750 775 1387 
Q 800 1025 1025 787 
z
" transform="scale(0.015625)"/>
     </defs>
     <use xlink:href="#KaiTi-33"/>
     <use xlink:href="#KaiTi-36" transform="translate(50 0)"/>
     <use xlink:href="#KaiTi-38" transform="translate(100 0)"/>
     <use xlink:href="#KaiTi-32" transform="translate(150 0)"/>
    </g>
   </g>
   <g id="text_31">
    <!-- 3580 -->
    <g transform="translate(292.294173 81.980615) scale(0.1 -0.1)">
     <use xlink:href="#KaiTi-33"/>
     <use xlink:href="#KaiTi-35" transform="translate(50 0)"/>
     <use xlink:href="#KaiTi-38" transform="translate(100 0)"/>
     <use xlink:href="#KaiTi-30" transform="translate(150 0)"/>
    </g>
   </g>
   <g id="text_32">
    <!-- 3569 -->
    <g transform="translate(321.481326 82.709348) scale(0.1 -0.1)">
     <use xlink:href="#KaiTi-33"/>
     <use xlink:href="#KaiTi-35" transform="translate(50 0)"/>
     <use xlink:href="#KaiTi-36" transform="translate(100 0)"/>
     <use xlink:href="#KaiTi-39" transform="translate(150 0)"/>
    </g>
   </g>
   <g id="text_33">
    <!-- 3569 -->
    <g transform="translate(350.66848 82.709348) scale(0.1 -0.1)">
     <use xlink:href="#KaiTi-33"/>
     <use xlink:href="#KaiTi-35" transform="translate(50 0)"/>
     <use xlink:href="#KaiTi-36" transform="translate(100 0)"/>
     <use xlink:href="#KaiTi-39" transform="translate(150 0)"/>
    </g>
   </g>
   <g id="text_34">
    <!-- 3545 -->
    <g transform="translate(379.855633 84.29931) scale(0.1 -0.1)">
     <use xlink:href="#KaiTi-33"/>
     <use xlink:href="#KaiTi-35" transform="translate(50 0)"/>
     <use xlink:href="#KaiTi-34" transform="translate(100 0)"/>
     <use xlink:href="#KaiTi-35" transform="translate(150 0)"/>
    </g>
   </g>
   <g id="text_35">
    <!-- 3526 -->
    <g transform="translate(409.042787 85.55803) scale(0.1 -0.1)">
     <use xlink:href="#KaiTi-33"/>
     <use xlink:href="#KaiTi-35" transform="translate(50 0)"/>
     <use xlink:href="#KaiTi-32" transform="translate(100 0)"/>
     <use xlink:href="#KaiTi-36" transform="translate(150 0)"/>
    </g>
   </g>
   <g id="text_36">
    <!-- 3506 -->
    <g transform="translate(438.22994 86.882999) scale(0.1 -0.1)">
     <use xlink:href="#KaiTi-33"/>
     <use xlink:href="#KaiTi-35" transform="translate(50 0)"/>
     <use xlink:href="#KaiTi-30" transform="translate(100 0)"/>
     <use xlink:href="#KaiTi-36" transform="translate(150 0)"/>
    </g>
   </g>
   <g id="text_37">
    <!-- 3505 -->
    <g transform="translate(467.417094 86.949247) scale(0.1 -0.1)">
     <use xlink:href="#KaiTi-33"/>
     <use xlink:href="#KaiTi-35" transform="translate(50 0)"/>
     <use xlink:href="#KaiTi-30" transform="translate(100 0)"/>
     <use xlink:href="#KaiTi-35" transform="translate(150 0)"/>
    </g>
   </g>
   <g id="text_38">
    <!-- 3457 -->
    <g transform="translate(496.604247 90.129172) scale(0.1 -0.1)">
     <defs>
      <path id="KaiTi-37" d="M 850 150 
Q 1300 2050 2425 3925 
L 275 3925 
L 275 4375 
L 2950 4375 
L 2950 3950 
Q 1775 2050 1400 150 
L 850 150 
z
" transform="scale(0.015625)"/>
     </defs>
     <use xlink:href="#KaiTi-33"/>
     <use xlink:href="#KaiTi-34" transform="translate(50 0)"/>
     <use xlink:href="#KaiTi-35" transform="translate(100 0)"/>
     <use xlink:href="#KaiTi-37" transform="translate(150 0)"/>
    </g>
   </g>
   <g id="text_39">
    <!-- 3447 -->
    <g transform="translate(525.791401 90.791656) scale(0.1 -0.1)">
     <use xlink:href="#KaiTi-33"/>
     <use xlink:href="#KaiTi-34" transform="translate(50 0)"/>
     <use xlink:href="#KaiTi-34" transform="translate(100 0)"/>
     <use xlink:href="#KaiTi-37" transform="translate(150 0)"/>
    </g>
   </g>
   <g id="text_40">
    <!-- 3409 -->
    <g transform="translate(554.978554 93.309097) scale(0.1 -0.1)">
     <use xlink:href="#KaiTi-33"/>
     <use xlink:href="#KaiTi-34" transform="translate(50 0)"/>
     <use xlink:href="#KaiTi-30" transform="translate(100 0)"/>
     <use xlink:href="#KaiTi-39" transform="translate(150 0)"/>
    </g>
   </g>
   <g id="text_41">
    <!-- 3377 -->
    <g transform="translate(584.165708 95.429046) scale(0.1 -0.1)">
     <use xlink:href="#KaiTi-33"/>
     <use xlink:href="#KaiTi-33" transform="translate(50 0)"/>
     <use xlink:href="#KaiTi-37" transform="translate(100 0)"/>
     <use xlink:href="#KaiTi-37" transform="translate(150 0)"/>
    </g>
   </g>
   <g id="text_42">
    <!-- 3374 -->
    <g transform="translate(613.352861 95.627792) scale(0.1 -0.1)">
     <use xlink:href="#KaiTi-33"/>
     <use xlink:href="#KaiTi-33" transform="translate(50 0)"/>
     <use xlink:href="#KaiTi-37" transform="translate(100 0)"/>
     <use xlink:href="#KaiTi-34" transform="translate(150 0)"/>
    </g>
   </g>
   <g id="text_43">
    <!-- 3358 -->
    <g transform="translate(642.540015 96.687767) scale(0.1 -0.1)">
     <use xlink:href="#KaiTi-33"/>
     <use xlink:href="#KaiTi-33" transform="translate(50 0)"/>
     <use xlink:href="#KaiTi-35" transform="translate(100 0)"/>
     <use xlink:href="#KaiTi-38" transform="translate(150 0)"/>
    </g>
   </g>
   <g id="text_44">
    <!-- Codeforces Rating最高TOP20 -->
    <g transform="translate(303.636364 37.2) scale(0.2 -0.2)">
     <defs>
      <path id="KaiTi-43" d="M 2975 1825 
Q 2950 875 2575 475 
Q 2200 75 1675 75 
Q 1075 75 650 562 
Q 225 1050 225 2125 
Q 225 3300 637 3875 
Q 1050 4450 1700 4450 
Q 2250 4450 2612 4037 
Q 2975 3625 2950 2875 
L 2400 2875 
Q 2400 3425 2225 3700 
Q 2050 3975 1700 3975 
Q 1300 3975 1062 3562 
Q 825 3150 825 2175 
Q 825 1275 1062 912 
Q 1300 550 1675 550 
Q 1950 550 2175 812 
Q 2400 1075 2400 1825 
L 2975 1825 
z
" transform="scale(0.015625)"/>
      <path id="KaiTi-20" transform="scale(0.015625)"/>
      <path id="KaiTi-6700" d="M 2900 2625 
Q 2975 2350 2937 2187 
Q 2900 2025 2900 950 
Q 3175 1050 3325 1012 
Q 3475 975 2900 700 
Q 2900 250 2912 0 
Q 2925 -250 2825 -550 
Q 2725 -850 2637 -537 
Q 2550 -225 2575 -25 
Q 2600 175 2600 575 
Q 2100 375 1812 275 
Q 1525 175 1350 62 
Q 1175 -50 1075 0 
Q 975 50 850 212 
Q 725 375 962 387 
Q 1200 400 1575 500 
Q 1575 950 1537 1575 
Q 1500 2200 1400 2375 
Q 1150 2350 1062 2325 
Q 975 2300 775 2437 
Q 575 2575 650 2575 
Q 750 2575 1087 2612 
Q 1425 2650 2125 2750 
Q 2825 2850 3700 3012 
Q 4575 3175 4825 3237 
Q 5075 3300 5275 3175 
Q 5475 3050 5275 2987 
Q 5075 2925 4725 2875 
Q 4375 2825 3837 2750 
Q 3300 2675 2900 2625 
z
M 3875 3475 
Q 2975 3350 2550 3300 
Q 2450 3025 2350 3287 
Q 2250 3550 2125 3987 
Q 2000 4425 1862 4600 
Q 1725 4775 1975 4737 
Q 2225 4700 2350 4687 
Q 2475 4675 2950 4737 
Q 3425 4800 3725 4875 
Q 4025 4950 4137 4987 
Q 4250 5025 4600 4800 
Q 4950 4575 4812 4475 
Q 4675 4375 4600 4250 
Q 4525 4125 4325 3775 
Q 4125 3425 4037 3337 
Q 3950 3250 3875 3475 
z
M 4300 925 
Q 4600 600 5037 387 
Q 5475 175 5812 125 
Q 6150 75 6037 0 
Q 5925 -75 5400 -112 
Q 4875 -150 4700 0 
Q 4525 150 4075 625 
Q 3875 400 3650 300 
Q 3425 200 3200 175 
Q 2975 150 3175 250 
Q 3375 350 3562 487 
Q 3750 625 3900 900 
Q 3750 1100 3575 1337 
Q 3400 1575 3275 1650 
Q 3150 1725 3325 1725 
Q 3525 1725 3650 1575 
L 4025 1125 
Q 4150 1525 4175 1775 
Q 4200 2025 4100 2025 
Q 4000 2025 3762 1937 
Q 3525 1850 3425 1850 
Q 3350 1850 3225 1950 
Q 3100 2050 3287 2062 
Q 3475 2075 3825 2175 
Q 4175 2275 4287 2350 
Q 4400 2425 4612 2275 
Q 4825 2125 4737 2050 
Q 4650 1975 4587 1862 
Q 4525 1750 4450 1450 
Q 4375 1150 4300 925 
z
M 2375 4475 
Q 2400 4325 2425 4150 
Q 2750 4150 3125 4262 
Q 3500 4375 3625 4250 
Q 3750 4125 3325 4037 
Q 2900 3950 2450 4000 
Q 2475 3700 2525 3475 
Q 2800 3500 3225 3575 
Q 3650 3650 3975 3675 
Q 4175 4300 4175 4500 
Q 4175 4725 3925 4712 
Q 3675 4700 2375 4475 
z
M 2150 1450 
Q 2300 1500 2400 1425 
Q 2500 1350 2337 1262 
Q 2175 1175 1850 1175 
L 1850 575 
Q 2150 650 2600 825 
L 2600 1950 
Q 2600 2325 2525 2550 
Q 2075 2475 1650 2425 
Q 1900 2250 1875 2175 
Q 1850 2100 1850 1925 
Q 2050 2000 2175 2050 
Q 2300 2100 2412 2000 
Q 2525 1900 2350 1825 
Q 2175 1750 1850 1750 
L 1850 1350 
L 2150 1450 
z
" transform="scale(0.015625)"/>
      <path id="KaiTi-9ad8" d="M 1350 1900 
Q 1375 1125 1375 700 
Q 1375 300 1300 -12 
Q 1225 -325 1100 -62 
Q 975 200 975 300 
Q 975 425 1025 712 
Q 1075 1000 1062 1400 
Q 1050 1800 937 2037 
Q 825 2275 987 2237 
Q 1150 2200 1325 2125 
Q 3600 2350 4050 2412 
Q 4500 2475 4662 2550 
Q 4825 2625 5050 2512 
Q 5275 2400 5437 2275 
Q 5600 2150 5475 2025 
Q 5350 1900 5300 1712 
Q 5250 1525 5250 1000 
Q 5250 500 5237 237 
Q 5225 -25 5112 -212 
Q 5000 -400 4787 -525 
Q 4575 -650 4500 -425 
Q 4425 -200 4075 62 
Q 3725 325 4062 225 
Q 4400 125 4550 125 
Q 4725 125 4812 275 
Q 4900 425 4912 1237 
Q 4925 2050 4800 2137 
Q 4675 2225 4237 2212 
Q 3800 2200 2712 2062 
Q 1625 1925 1350 1900 
z
M 3650 975 
Q 3925 750 3562 737 
Q 3200 725 2425 625 
Q 2300 325 2212 600 
Q 2125 875 2075 1062 
Q 2025 1250 1912 1437 
Q 1800 1625 1937 1612 
Q 2075 1600 2212 1575 
Q 2350 1550 2800 1625 
Q 3250 1700 3400 1762 
Q 3550 1825 3725 1750 
Q 3900 1675 3987 1587 
Q 4075 1500 3925 1362 
Q 3775 1225 3650 975 
z
M 3775 3000 
Q 4050 2800 3662 2775 
Q 3275 2750 2525 2650 
Q 2425 2375 2325 2687 
Q 2225 3000 2150 3162 
Q 2075 3325 1975 3450 
Q 1875 3575 2050 3575 
Q 2225 3575 2312 3550 
Q 2400 3525 2900 3600 
Q 3400 3675 3550 3762 
Q 3700 3850 3850 3787 
Q 4000 3725 4125 3625 
Q 4250 3525 4075 3375 
Q 3900 3225 3775 3000 
z
M 2025 4225 
Q 2550 4275 3475 4400 
Q 4400 4525 4675 4550 
Q 4950 4575 5125 4437 
Q 5300 4300 5212 4237 
Q 5125 4175 4750 4200 
Q 4375 4225 3650 4150 
Q 2925 4075 2362 4012 
Q 1800 3950 1562 3912 
Q 1325 3875 1125 4062 
Q 925 4250 1212 4225 
Q 1500 4200 2025 4225 
z
M 3475 2975 
Q 3575 3200 3575 3325 
Q 3575 3475 3487 3487 
Q 3400 3500 3087 3462 
Q 2775 3425 2450 3350 
Q 2475 3100 2500 2825 
L 3475 2975 
z
M 2350 1400 
Q 2400 1025 2425 825 
Q 2800 900 3375 950 
Q 3400 1125 3412 1287 
Q 3425 1450 3375 1487 
Q 3325 1525 3037 1487 
Q 2750 1450 2350 1400 
z
M 2825 4900 
Q 2600 5150 2875 5137 
Q 3150 5125 3325 5000 
Q 3500 4875 3437 4700 
Q 3375 4525 3212 4587 
Q 3050 4650 2825 4900 
z
" transform="scale(0.015625)"/>
      <path id="KaiTi-54" d="M 2850 3925 
L 1850 3925 
L 1850 125 
L 1275 125 
L 1275 3925 
L 275 3925 
L 275 4400 
L 2850 4400 
L 2850 3925 
z
" transform="scale(0.015625)"/>
      <path id="KaiTi-4f" d="M 2950 2275 
Q 2950 1100 2587 587 
Q 2225 75 1575 75 
Q 925 75 550 587 
Q 175 1100 175 2275 
Q 175 3450 550 3950 
Q 925 4450 1575 4450 
Q 2225 4450 2587 3950 
Q 2950 3450 2950 2275 
z
M 2350 2275 
Q 2350 3325 2125 3650 
Q 1900 3975 1575 3975 
Q 1250 3975 1012 3650 
Q 775 3325 775 2275 
Q 775 1225 1012 887 
Q 1250 550 1575 550 
Q 1900 550 2125 887 
Q 2350 1225 2350 2275 
z
" transform="scale(0.015625)"/>
      <path id="KaiTi-50" d="M 2950 3100 
Q 2950 2500 2600 2150 
Q 2250 1800 1625 1800 
L 900 1800 
L 900 125 
L 325 125 
L 325 4400 
L 1625 4400 
Q 2250 4400 2600 4050 
Q 2950 3700 2950 3100 
z
M 2375 3100 
Q 2375 3575 2150 3750 
Q 1925 3925 1475 3925 
L 900 3925 
L 900 2275 
L 1475 2275 
Q 1925 2275 2150 2450 
Q 2375 2625 2375 3100 
z
" transform="scale(0.015625)"/>
     </defs>
     <use xlink:href="#KaiTi-43"/>
     <use xlink:href="#KaiTi-6f" transform="translate(50 0)"/>
     <use xlink:href="#KaiTi-64" transform="translate(100 0)"/>
     <use xlink:href="#KaiTi-65" transform="translate(150 0)"/>
     <use xlink:href="#KaiTi-66" transform="translate(200 0)"/>
     <use xlink:href="#KaiTi-6f" transform="translate(250 0)"/>
     <use xlink:href="#KaiTi-72" transform="translate(300 0)"/>
     <use xlink:href="#KaiTi-63" transform="translate(350 0)"/>
     <use xlink:href="#KaiTi-65" transform="translate(400 0)"/>
     <use xlink:href="#KaiTi-73" transform="translate(450 0)"/>
     <use xlink:href="#KaiTi-20" transform="translate(500 0)"/>
     <use xlink:href="#KaiTi-52" transform="translate(550 0)"/>
     <use xlink:href="#KaiTi-61" transform="translate(600 0)"/>
     <use xlink:href="#KaiTi-74" transform="translate(650 0)"/>
     <use xlink:href="#KaiTi-69" transform="translate(700 0)"/>
     <use xlink:href="#KaiTi-6e" transform="translate(750 0)"/>
     <use xlink:href="#KaiTi-67" transform="translate(800 0)"/>
     <use xlink:href="#KaiTi-6700" transform="translate(850 0)"/>
     <use xlink:href="#KaiTi-9ad8" transform="translate(950 0)"/>
     <use xlink:href="#KaiTi-54" transform="translate(1050 0)"/>
     <use xlink:href="#KaiTi-4f" transform="translate(1100 0)"/>
     <use xlink:href="#KaiTi-50" transform="translate(1150 0)"/>
     <use xlink:href="#KaiTi-32" transform="translate(1200 0)"/>
     <use xlink:href="#KaiTi-30" transform="translate(1250 0)"/>
    </g>
   </g>
  </g>
  <g id="axes_2">
   <g id="patch_23">
    <path d="M 788.727273 320.4 
L 1296 320.4 
L 1296 43.2 
L 788.727273 43.2 
z
" style="fill: #ffffff"/>
   </g>
   <g id="matplotlib.axis_3">
    <g id="xtick_17">
     <g id="line2d_26">
      <g>
       <use xlink:href="#m44e7810dfd" x="788.727273" y="320.4" style="stroke: #000000; stroke-width: 0.8"/>
      </g>
     </g>
     <g id="text_45">
      <!-- 0.0 -->
      <g transform="translate(781.227273 334.275) scale(0.1 -0.1)">
       <defs>
        <path id="KaiTi-2e" d="M 800 75 
Q 675 75 562 162 
Q 450 250 450 425 
Q 450 575 537 662 
Q 625 750 800 775 
Q 975 775 1062 675 
Q 1150 575 1150 425 
Q 1150 250 1050 162 
Q 950 75 800 75 
z
" transform="scale(0.015625)"/>
       </defs>
       <use xlink:href="#KaiTi-30"/>
       <use xlink:href="#KaiTi-2e" transform="translate(50 0)"/>
       <use xlink:href="#KaiTi-30" transform="translate(100 0)"/>
      </g>
     </g>
    </g>
    <g id="xtick_18">
     <g id="line2d_27">
      <g>
       <use xlink:href="#m44e7810dfd" x="890.181818" y="320.4" style="stroke: #000000; stroke-width: 0.8"/>
      </g>
     </g>
     <g id="text_46">
      <!-- 0.2 -->
      <g transform="translate(882.681818 334.275) scale(0.1 -0.1)">
       <use xlink:href="#KaiTi-30"/>
       <use xlink:href="#KaiTi-2e" transform="translate(50 0)"/>
       <use xlink:href="#KaiTi-32" transform="translate(100 0)"/>
      </g>
     </g>
    </g>
    <g id="xtick_19">
     <g id="line2d_28">
      <g>
       <use xlink:href="#m44e7810dfd" x="991.636364" y="320.4" style="stroke: #000000; stroke-width: 0.8"/>
      </g>
     </g>
     <g id="text_47">
      <!-- 0.4 -->
      <g transform="translate(984.136364 334.275) scale(0.1 -0.1)">
       <use xlink:href="#KaiTi-30"/>
       <use xlink:href="#KaiTi-2e" transform="translate(50 0)"/>
       <use xlink:href="#KaiTi-34" transform="translate(100 0)"/>
      </g>
     </g>
    </g>
    <g id="xtick_20">
     <g id="line2d_29">
      <g>
       <use xlink:href="#m44e7810dfd" x="1093.090909" y="320.4" style="stroke: #000000; stroke-width: 0.8"/>
      </g>
     </g>
     <g id="text_48">
      <!-- 0.6 -->
      <g transform="translate(1085.590909 334.275) scale(0.1 -0.1)">
       <use xlink:href="#KaiTi-30"/>
       <use xlink:href="#KaiTi-2e" transform="translate(50 0)"/>
       <use xlink:href="#KaiTi-36" transform="translate(100 0)"/>
      </g>
     </g>
    </g>
    <g id="xtick_21">
     <g id="line2d_30">
      <g>
       <use xlink:href="#m44e7810dfd" x="1194.545455" y="320.4" style="stroke: #000000; stroke-width: 0.8"/>
      </g>
     </g>
     <g id="text_49">
      <!-- 0.8 -->
      <g transform="translate(1187.045455 334.275) scale(0.1 -0.1)">
       <use xlink:href="#KaiTi-30"/>
       <use xlink:href="#KaiTi-2e" transform="translate(50 0)"/>
       <use xlink:href="#KaiTi-38" transform="translate(100 0)"/>
      </g>
     </g>
    </g>
    <g id="xtick_22">
     <g id="line2d_31">
      <g>
       <use xlink:href="#m44e7810dfd" x="1296" y="320.4" style="stroke: #000000; stroke-width: 0.8"/>
      </g>
     </g>
     <g id="text_50">
      <!-- 1.0 -->
      <g transform="translate(1288.5 334.275) scale(0.1 -0.1)">
       <use xlink:href="#KaiTi-31"/>
       <use xlink:href="#KaiTi-2e" transform="translate(50 0)"/>
       <use xlink:href="#KaiTi-30" transform="translate(100 0)"/>
      </g>
     </g>
    </g>
   </g>
   <g id="matplotlib.axis_4">
    <g id="ytick_10">
     <g id="line2d_32">
      <g>
       <use xlink:href="#m9e96c17e05" x="788.727273" y="320.4" style="stroke: #000000; stroke-width: 0.8"/>
      </g>
     </g>
     <g id="text_51">
      <!-- 0.0 -->
      <g transform="translate(766.727273 323.8375) scale(0.1 -0.1)">
       <use xlink:href="#KaiTi-30"/>
       <use xlink:href="#KaiTi-2e" transform="translate(50 0)"/>
       <use xlink:href="#KaiTi-30" transform="translate(100 0)"/>
      </g>
     </g>
    </g>
    <g id="ytick_11">
     <g id="line2d_33">
      <g>
       <use xlink:href="#m9e96c17e05" x="788.727273" y="264.96" style="stroke: #000000; stroke-width: 0.8"/>
      </g>
     </g>
     <g id="text_52">
      <!-- 0.2 -->
      <g transform="translate(766.727273 268.3975) scale(0.1 -0.1)">
       <use xlink:href="#KaiTi-30"/>
       <use xlink:href="#KaiTi-2e" transform="translate(50 0)"/>
       <use xlink:href="#KaiTi-32" transform="translate(100 0)"/>
      </g>
     </g>
    </g>
    <g id="ytick_12">
     <g id="line2d_34">
      <g>
       <use xlink:href="#m9e96c17e05" x="788.727273" y="209.52" style="stroke: #000000; stroke-width: 0.8"/>
      </g>
     </g>
     <g id="text_53">
      <!-- 0.4 -->
      <g transform="translate(766.727273 212.9575) scale(0.1 -0.1)">
       <use xlink:href="#KaiTi-30"/>
       <use xlink:href="#KaiTi-2e" transform="translate(50 0)"/>
       <use xlink:href="#KaiTi-34" transform="translate(100 0)"/>
      </g>
     </g>
    </g>
    <g id="ytick_13">
     <g id="line2d_35">
      <g>
       <use xlink:href="#m9e96c17e05" x="788.727273" y="154.08" style="stroke: #000000; stroke-width: 0.8"/>
      </g>
     </g>
     <g id="text_54">
      <!-- 0.6 -->
      <g transform="translate(766.727273 157.5175) scale(0.1 -0.1)">
       <use xlink:href="#KaiTi-30"/>
       <use xlink:href="#KaiTi-2e" transform="translate(50 0)"/>
       <use xlink:href="#KaiTi-36" transform="translate(100 0)"/>
      </g>
     </g>
    </g>
    <g id="ytick_14">
     <g id="line2d_36">
      <g>
       <use xlink:href="#m9e96c17e05" x="788.727273" y="98.64" style="stroke: #000000; stroke-width: 0.8"/>
      </g>
     </g>
     <g id="text_55">
      <!-- 0.8 -->
      <g transform="translate(766.727273 102.0775) scale(0.1 -0.1)">
       <use xlink:href="#KaiTi-30"/>
       <use xlink:href="#KaiTi-2e" transform="translate(50 0)"/>
       <use xlink:href="#KaiTi-38" transform="translate(100 0)"/>
      </g>
     </g>
    </g>
    <g id="ytick_15">
     <g id="line2d_37">
      <g>
       <use xlink:href="#m9e96c17e05" x="788.727273" y="43.2" style="stroke: #000000; stroke-width: 0.8"/>
      </g>
     </g>
     <g id="text_56">
      <!-- 1.0 -->
      <g transform="translate(766.727273 46.6375) scale(0.1 -0.1)">
       <use xlink:href="#KaiTi-31"/>
       <use xlink:href="#KaiTi-2e" transform="translate(50 0)"/>
       <use xlink:href="#KaiTi-30" transform="translate(100 0)"/>
      </g>
     </g>
    </g>
   </g>
   <g id="patch_24">
    <path d="M 788.727273 320.4 
L 788.727273 43.2 
" style="fill: none; stroke: #000000; stroke-width: 0.8; stroke-linejoin: miter; stroke-linecap: square"/>
   </g>
   <g id="patch_25">
    <path d="M 1296 320.4 
L 1296 43.2 
" style="fill: none; stroke: #000000; stroke-width: 0.8; stroke-linejoin: miter; stroke-linecap: square"/>
   </g>
   <g id="patch_26">
    <path d="M 788.727273 320.4 
L 1296 320.4 
" style="fill: none; stroke: #000000; stroke-width: 0.8; stroke-linejoin: miter; stroke-linecap: square"/>
   </g>
   <g id="patch_27">
    <path d="M 788.727273 43.2 
L 1296 43.2 
" style="fill: none; stroke: #000000; stroke-width: 0.8; stroke-linejoin: miter; stroke-linecap: square"/>
   </g>
  </g>
 </g>
 <defs>
  <clipPath id="pe8632fbfc3">
   <rect x="180" y="43.2" width="507.272727" height="277.2"/>
  </clipPath>
 </defs>
</svg>
