<?xml version="1.0" encoding="utf-8" standalone="no"?>
<!DOCTYPE svg PUBLIC "-//W3C//DTD SVG 1.1//EN"
  "http://www.w3.org/Graphics/SVG/1.1/DTD/svg11.dtd">
<svg xmlns:xlink="http://www.w3.org/1999/xlink" width="1008pt" height="360pt" viewBox="0 0 1008 360" xmlns="http://www.w3.org/2000/svg" version="1.1">
 <metadata>
  <rdf:RDF xmlns:dc="http://purl.org/dc/elements/1.1/" xmlns:cc="http://creativecommons.org/ns#" xmlns:rdf="http://www.w3.org/1999/02/22-rdf-syntax-ns#">
   <cc:Work>
    <dc:type rdf:resource="http://purl.org/dc/dcmitype/StillImage"/>
    <dc:date>2025-01-02T16:28:53.396093</dc:date>
    <dc:format>image/svg+xml</dc:format>
    <dc:creator>
     <cc:Agent>
      <dc:title>Matplotlib v3.10.0, https://matplotlib.org/</dc:title>
     </cc:Agent>
    </dc:creator>
   </cc:Work>
  </rdf:RDF>
 </metadata>
 <defs>
  <style type="text/css">*{stroke-linejoin: round; stroke-linecap: butt}</style>
 </defs>
 <g id="figure_1">
  <g id="patch_1">
   <path d="M 0 360 
L 1008 360 
L 1008 0 
L 0 0 
z
" style="fill: #ffffff"/>
  </g>
  <g id="axes_1">
   <g id="patch_2">
    <path d="M 126 320.4 
L 907.2 320.4 
L 907.2 43.2 
L 126 43.2 
z
" style="fill: #ffffff"/>
   </g>
   <g id="patch_3">
    <path d="M 161.509091 320.4 
L 183.530233 320.4 
L 183.530233 56.4 
L 161.509091 56.4 
z
" clip-path="url(#pb715833d35)" style="fill: #87ceeb"/>
   </g>
   <g id="patch_4">
    <path d="M 189.035518 320.4 
L 211.05666 320.4 
L 211.05666 243.569332 
L 189.035518 243.569332 
z
" clip-path="url(#pb715833d35)" style="fill: #87ceeb"/>
   </g>
   <g id="patch_5">
    <path d="M 216.561945 320.4 
L 238.583087 320.4 
L 238.583087 253.225522 
L 216.561945 253.225522 
z
" clip-path="url(#pb715833d35)" style="fill: #87ceeb"/>
   </g>
   <g id="patch_6">
    <path d="M 244.088372 320.4 
L 266.109514 320.4 
L 266.109514 273.896334 
L 244.088372 273.896334 
z
" clip-path="url(#pb715833d35)" style="fill: #87ceeb"/>
   </g>
   <g id="patch_7">
    <path d="M 271.614799 320.4 
L 293.635941 320.4 
L 293.635941 285.52225 
L 271.614799 285.52225 
z
" clip-path="url(#pb715833d35)" style="fill: #87ceeb"/>
   </g>
   <g id="patch_8">
    <path d="M 299.141226 320.4 
L 321.162368 320.4 
L 321.162368 295.676532 
L 299.141226 295.676532 
z
" clip-path="url(#pb715833d35)" style="fill: #87ceeb"/>
   </g>
   <g id="patch_9">
    <path d="M 326.667653 320.4 
L 348.688795 320.4 
L 348.688795 309.611783 
L 326.667653 309.611783 
z
" clip-path="url(#pb715833d35)" style="fill: #87ceeb"/>
   </g>
   <g id="patch_10">
    <path d="M 354.19408 320.4 
L 376.215222 320.4 
L 376.215222 309.668385 
L 354.19408 309.668385 
z
" clip-path="url(#pb715833d35)" style="fill: #87ceeb"/>
   </g>
   <g id="patch_11">
    <path d="M 381.720507 320.4 
L 403.741649 320.4 
L 403.741649 312.724857 
L 381.720507 312.724857 
z
" clip-path="url(#pb715833d35)" style="fill: #87ceeb"/>
   </g>
   <g id="patch_12">
    <path d="M 409.246934 320.4 
L 431.268076 320.4 
L 431.268076 312.939943 
L 409.246934 312.939943 
z
" clip-path="url(#pb715833d35)" style="fill: #87ceeb"/>
   </g>
   <g id="patch_13">
    <path d="M 436.773362 320.4 
L 458.794503 320.4 
L 458.794503 313.947447 
L 436.773362 313.947447 
z
" clip-path="url(#pb715833d35)" style="fill: #87ceeb"/>
   </g>
   <g id="patch_14">
    <path d="M 464.299789 320.4 
L 486.32093 320.4 
L 486.32093 314.038009 
L 464.299789 314.038009 
z
" clip-path="url(#pb715833d35)" style="fill: #87ceeb"/>
   </g>
   <g id="patch_15">
    <path d="M 491.826216 320.4 
L 513.847357 320.4 
L 513.847357 314.241774 
L 491.826216 314.241774 
z
" clip-path="url(#pb715833d35)" style="fill: #87ceeb"/>
   </g>
   <g id="patch_16">
    <path d="M 519.352643 320.4 
L 541.373784 320.4 
L 541.373784 314.773826 
L 519.352643 314.773826 
z
" clip-path="url(#pb715833d35)" style="fill: #87ceeb"/>
   </g>
   <g id="patch_17">
    <path d="M 546.87907 320.4 
L 568.900211 320.4 
L 568.900211 315.136075 
L 546.87907 315.136075 
z
" clip-path="url(#pb715833d35)" style="fill: #87ceeb"/>
   </g>
   <g id="patch_18">
    <path d="M 574.405497 320.4 
L 596.426638 320.4 
L 596.426638 315.588886 
L 574.405497 315.588886 
z
" clip-path="url(#pb715833d35)" style="fill: #87ceeb"/>
   </g>
   <g id="patch_19">
    <path d="M 601.931924 320.4 
L 623.953066 320.4 
L 623.953066 315.588886 
L 601.931924 315.588886 
z
" clip-path="url(#pb715833d35)" style="fill: #87ceeb"/>
   </g>
   <g id="patch_20">
    <path d="M 629.458351 320.4 
L 651.479493 320.4 
L 651.479493 315.79265 
L 629.458351 315.79265 
z
" clip-path="url(#pb715833d35)" style="fill: #87ceeb"/>
   </g>
   <g id="patch_21">
    <path d="M 656.984778 320.4 
L 679.00592 320.4 
L 679.00592 316.098298 
L 656.984778 316.098298 
z
" clip-path="url(#pb715833d35)" style="fill: #87ceeb"/>
   </g>
   <g id="patch_22">
    <path d="M 684.511205 320.4 
L 706.532347 320.4 
L 706.532347 316.483187 
L 684.511205 316.483187 
z
" clip-path="url(#pb715833d35)" style="fill: #87ceeb"/>
   </g>
   <g id="patch_23">
    <path d="M 712.037632 320.4 
L 734.058774 320.4 
L 734.058774 316.528468 
L 712.037632 316.528468 
z
" clip-path="url(#pb715833d35)" style="fill: #87ceeb"/>
   </g>
   <g id="patch_24">
    <path d="M 739.564059 320.4 
L 761.585201 320.4 
L 761.585201 316.551108 
L 739.564059 316.551108 
z
" clip-path="url(#pb715833d35)" style="fill: #87ceeb"/>
   </g>
   <g id="patch_25">
    <path d="M 767.090486 320.4 
L 789.111628 320.4 
L 789.111628 316.698272 
L 767.090486 316.698272 
z
" clip-path="url(#pb715833d35)" style="fill: #87ceeb"/>
   </g>
   <g id="patch_26">
    <path d="M 794.616913 320.4 
L 816.638055 320.4 
L 816.638055 317.185044 
L 794.616913 317.185044 
z
" clip-path="url(#pb715833d35)" style="fill: #87ceeb"/>
   </g>
   <g id="patch_27">
    <path d="M 822.14334 320.4 
L 844.164482 320.4 
L 844.164482 317.411449 
L 822.14334 317.411449 
z
" clip-path="url(#pb715833d35)" style="fill: #87ceeb"/>
   </g>
   <g id="patch_28">
    <path d="M 849.669767 320.4 
L 871.690909 320.4 
L 871.690909 250.089807 
L 849.669767 250.089807 
z
" clip-path="url(#pb715833d35)" style="fill: #87ceeb"/>
   </g>
   <g id="matplotlib.axis_1">
    <g id="xtick_1">
     <g id="line2d_1">
      <defs>
       <path id="m35ba84efc7" d="M 0 0 
L 0 3.5 
" style="stroke: #000000; stroke-width: 0.8"/>
      </defs>
      <g>
       <use xlink:href="#m35ba84efc7" x="172.519662" y="320.4" style="stroke: #000000; stroke-width: 0.8"/>
      </g>
     </g>
     <g id="text_1">
      <!-- India -->
      <g transform="translate(175.332162 352.4) rotate(-90) scale(0.1 -0.1)">
       <defs>
        <path id="KaiTi-49" d="M 1850 125 
L 1275 125 
L 1275 4400 
L 1850 4400 
L 1850 125 
z
" transform="scale(0.015625)"/>
        <path id="KaiTi-6e" d="M 2800 125 
L 2300 125 
L 2300 1925 
Q 2300 2225 2150 2400 
Q 2000 2575 1750 2575 
Q 1425 2575 1137 2237 
Q 850 1900 850 1400 
L 850 125 
L 350 125 
L 350 2925 
L 850 2925 
L 850 2400 
Q 1050 2675 1287 2825 
Q 1525 2975 1900 2975 
Q 2350 2975 2575 2725 
Q 2800 2475 2800 2100 
L 2800 125 
z
" transform="scale(0.015625)"/>
        <path id="KaiTi-64" d="M 2750 125 
L 2250 125 
L 2250 500 
Q 2100 275 1900 175 
Q 1700 75 1425 75 
Q 925 75 575 437 
Q 225 800 225 1525 
Q 225 2250 575 2625 
Q 925 3000 1425 3000 
Q 1700 3000 1900 2887 
Q 2100 2775 2250 2550 
L 2250 4400 
L 2750 4400 
L 2750 125 
z
M 2250 1525 
Q 2250 2000 2037 2275 
Q 1825 2550 1525 2550 
Q 1150 2550 962 2275 
Q 775 2000 775 1525 
Q 775 1050 962 787 
Q 1150 525 1525 525 
Q 1825 525 2037 787 
Q 2250 1050 2250 1525 
z
" transform="scale(0.015625)"/>
        <path id="KaiTi-69" d="M 1800 125 
L 1300 125 
L 1300 2925 
L 1800 2925 
L 1800 125 
z
M 1912 4075 
Q 1925 3875 1750 3775 
Q 1575 3675 1400 3762 
Q 1225 3850 1212 4050 
Q 1200 4250 1375 4350 
Q 1550 4450 1725 4362 
Q 1900 4275 1912 4075 
z
" transform="scale(0.015625)"/>
        <path id="KaiTi-61" d="M 2875 125 
L 2275 125 
Q 2225 175 2200 262 
Q 2175 350 2175 475 
Q 2000 275 1750 175 
Q 1500 75 1225 75 
Q 825 75 550 275 
Q 275 475 275 850 
Q 275 1225 525 1450 
Q 775 1675 1300 1750 
Q 1650 1800 1912 1875 
Q 2175 1950 2175 2075 
Q 2175 2225 2062 2375 
Q 1950 2525 1575 2525 
Q 1275 2525 1137 2412 
Q 1000 2300 950 2100 
L 400 2100 
Q 450 2500 762 2737 
Q 1075 2975 1575 2975 
Q 2125 2975 2400 2725 
Q 2675 2475 2675 2025 
L 2675 650 
Q 2675 500 2725 375 
Q 2775 250 2875 125 
z
M 2175 1050 
L 2175 1550 
Q 2025 1500 1887 1462 
Q 1750 1425 1425 1375 
Q 1050 1325 937 1200 
Q 825 1075 825 900 
Q 825 750 937 637 
Q 1050 525 1275 525 
Q 1500 525 1762 650 
Q 2025 775 2175 1050 
z
" transform="scale(0.015625)"/>
       </defs>
       <use xlink:href="#KaiTi-49"/>
       <use xlink:href="#KaiTi-6e" transform="translate(50 0)"/>
       <use xlink:href="#KaiTi-64" transform="translate(100 0)"/>
       <use xlink:href="#KaiTi-69" transform="translate(150 0)"/>
       <use xlink:href="#KaiTi-61" transform="translate(200 0)"/>
      </g>
     </g>
    </g>
    <g id="xtick_2">
     <g id="line2d_2">
      <g>
       <use xlink:href="#m35ba84efc7" x="200.046089" y="320.4" style="stroke: #000000; stroke-width: 0.8"/>
      </g>
     </g>
     <g id="text_2">
      <!-- Bangladesh -->
      <g transform="translate(202.858589 377.4) rotate(-90) scale(0.1 -0.1)">
       <defs>
        <path id="KaiTi-42" d="M 2950 1400 
Q 2950 675 2550 400 
Q 2150 125 1525 125 
L 275 125 
L 275 4400 
L 1575 4400 
Q 2200 4400 2512 4075 
Q 2825 3750 2825 3300 
Q 2825 2850 2612 2637 
Q 2400 2425 2175 2350 
Q 2475 2275 2712 2037 
Q 2950 1800 2950 1400 
z
M 2250 3300 
Q 2250 3625 2062 3775 
Q 1875 3925 1600 3925 
L 850 3925 
L 850 2600 
L 1575 2600 
Q 1850 2600 2050 2762 
Q 2250 2925 2250 3300 
z
M 2350 1400 
Q 2350 1800 2087 1962 
Q 1825 2125 1500 2125 
L 850 2125 
L 850 600 
L 1425 600 
Q 1875 600 2112 775 
Q 2350 950 2350 1400 
z
" transform="scale(0.015625)"/>
        <path id="KaiTi-67" d="M 2975 2500 
Q 2800 2550 2637 2562 
Q 2475 2575 2300 2525 
Q 2375 2450 2425 2337 
Q 2475 2225 2475 2000 
Q 2475 1575 2187 1300 
Q 1900 1025 1475 1025 
Q 1375 1025 1212 1062 
Q 1050 1100 950 1150 
Q 875 1100 850 1050 
Q 825 1000 825 925 
Q 825 800 1000 737 
Q 1175 675 1625 675 
Q 2350 675 2612 475 
Q 2875 275 2875 -25 
Q 2875 -425 2487 -612 
Q 2100 -800 1575 -800 
Q 900 -800 575 -625 
Q 250 -450 250 -150 
Q 250 0 375 150 
Q 500 300 700 400 
Q 550 475 462 587 
Q 375 700 375 875 
Q 375 1025 487 1137 
Q 600 1250 750 1325 
Q 625 1450 550 1625 
Q 475 1800 475 2000 
Q 475 2425 762 2700 
Q 1050 2975 1475 2975 
Q 1700 2975 1862 2912 
Q 2025 2850 2150 2725 
Q 2350 2875 2550 2937 
Q 2750 3000 2975 2975 
L 2975 2500 
z
M 1975 2000 
Q 1975 2250 1850 2400 
Q 1725 2550 1475 2550 
Q 1225 2550 1100 2400 
Q 975 2250 975 2000 
Q 975 1750 1100 1600 
Q 1225 1450 1475 1450 
Q 1725 1450 1850 1600 
Q 1975 1750 1975 2000 
z
M 2400 -75 
Q 2400 25 2287 125 
Q 2175 225 1725 225 
Q 1625 225 1450 237 
Q 1275 250 1050 275 
Q 850 200 775 100 
Q 700 0 700 -100 
Q 700 -250 900 -350 
Q 1100 -450 1600 -450 
Q 2025 -450 2212 -337 
Q 2400 -225 2400 -75 
z
" transform="scale(0.015625)"/>
        <path id="KaiTi-6c" d="M 1825 125 
L 1325 125 
L 1325 4400 
L 1825 4400 
L 1825 125 
z
" transform="scale(0.015625)"/>
        <path id="KaiTi-65" d="M 2850 1075 
Q 2800 625 2450 350 
Q 2100 75 1625 75 
Q 1025 75 637 462 
Q 250 850 250 1525 
Q 250 2200 637 2587 
Q 1025 2975 1625 2975 
Q 2150 2975 2487 2637 
Q 2825 2300 2825 1525 
L 800 1525 
Q 800 975 1037 750 
Q 1275 525 1625 525 
Q 1900 525 2075 662 
Q 2250 800 2300 1075 
L 2850 1075 
z
M 2250 1925 
Q 2200 2275 2025 2412 
Q 1850 2550 1575 2550 
Q 1325 2550 1125 2412 
Q 925 2275 825 1925 
L 2250 1925 
z
" transform="scale(0.015625)"/>
        <path id="KaiTi-73" d="M 2750 900 
Q 2750 500 2437 287 
Q 2125 75 1650 75 
Q 1050 75 725 312 
Q 400 550 400 1000 
L 900 1000 
Q 900 700 1112 600 
Q 1325 500 1625 500 
Q 1925 500 2075 612 
Q 2225 725 2225 900 
Q 2225 1025 2100 1150 
Q 1975 1275 1475 1350 
Q 900 1425 687 1637 
Q 475 1850 475 2200 
Q 475 2500 762 2737 
Q 1050 2975 1600 2975 
Q 2100 2975 2387 2750 
Q 2675 2525 2675 2150 
L 2175 2150 
Q 2175 2375 2012 2462 
Q 1850 2550 1600 2550 
Q 1275 2550 1137 2437 
Q 1000 2325 1000 2175 
Q 1000 2000 1125 1900 
Q 1250 1800 1650 1750 
Q 2300 1650 2525 1437 
Q 2750 1225 2750 900 
z
" transform="scale(0.015625)"/>
        <path id="KaiTi-68" d="M 2800 125 
L 2300 125 
L 2300 1925 
Q 2300 2225 2150 2400 
Q 2000 2575 1750 2575 
Q 1425 2575 1137 2237 
Q 850 1900 850 1400 
L 850 125 
L 350 125 
L 350 4400 
L 850 4400 
L 850 2400 
Q 1050 2675 1287 2825 
Q 1525 2975 1900 2975 
Q 2350 2975 2575 2725 
Q 2800 2475 2800 2100 
L 2800 125 
z
" transform="scale(0.015625)"/>
       </defs>
       <use xlink:href="#KaiTi-42"/>
       <use xlink:href="#KaiTi-61" transform="translate(50 0)"/>
       <use xlink:href="#KaiTi-6e" transform="translate(100 0)"/>
       <use xlink:href="#KaiTi-67" transform="translate(150 0)"/>
       <use xlink:href="#KaiTi-6c" transform="translate(200 0)"/>
       <use xlink:href="#KaiTi-61" transform="translate(250 0)"/>
       <use xlink:href="#KaiTi-64" transform="translate(300 0)"/>
       <use xlink:href="#KaiTi-65" transform="translate(350 0)"/>
       <use xlink:href="#KaiTi-73" transform="translate(400 0)"/>
       <use xlink:href="#KaiTi-68" transform="translate(450 0)"/>
      </g>
     </g>
    </g>
    <g id="xtick_3">
     <g id="line2d_3">
      <g>
       <use xlink:href="#m35ba84efc7" x="227.572516" y="320.4" style="stroke: #000000; stroke-width: 0.8"/>
      </g>
     </g>
     <g id="text_3">
      <!-- China -->
      <g transform="translate(230.385016 352.4) rotate(-90) scale(0.1 -0.1)">
       <defs>
        <path id="KaiTi-43" d="M 2975 1825 
Q 2950 875 2575 475 
Q 2200 75 1675 75 
Q 1075 75 650 562 
Q 225 1050 225 2125 
Q 225 3300 637 3875 
Q 1050 4450 1700 4450 
Q 2250 4450 2612 4037 
Q 2975 3625 2950 2875 
L 2400 2875 
Q 2400 3425 2225 3700 
Q 2050 3975 1700 3975 
Q 1300 3975 1062 3562 
Q 825 3150 825 2175 
Q 825 1275 1062 912 
Q 1300 550 1675 550 
Q 1950 550 2175 812 
Q 2400 1075 2400 1825 
L 2975 1825 
z
" transform="scale(0.015625)"/>
       </defs>
       <use xlink:href="#KaiTi-43"/>
       <use xlink:href="#KaiTi-68" transform="translate(50 0)"/>
       <use xlink:href="#KaiTi-69" transform="translate(100 0)"/>
       <use xlink:href="#KaiTi-6e" transform="translate(150 0)"/>
       <use xlink:href="#KaiTi-61" transform="translate(200 0)"/>
      </g>
     </g>
    </g>
    <g id="xtick_4">
     <g id="line2d_4">
      <g>
       <use xlink:href="#m35ba84efc7" x="255.098943" y="320.4" style="stroke: #000000; stroke-width: 0.8"/>
      </g>
     </g>
     <g id="text_4">
      <!-- Egypt -->
      <g transform="translate(257.911443 352.4) rotate(-90) scale(0.1 -0.1)">
       <defs>
        <path id="KaiTi-45" d="M 2900 125 
L 350 125 
L 350 4400 
L 2775 4400 
L 2775 3925 
L 925 3925 
L 925 2600 
L 2625 2600 
L 2625 2125 
L 925 2125 
L 925 600 
L 2900 600 
L 2900 125 
z
" transform="scale(0.015625)"/>
        <path id="KaiTi-79" d="M 2900 2925 
L 1750 -100 
Q 1650 -450 1450 -625 
Q 1250 -800 950 -800 
Q 825 -800 712 -787 
Q 600 -775 500 -725 
L 500 -225 
Q 600 -275 700 -300 
Q 800 -325 875 -325 
Q 1075 -325 1150 -262 
Q 1225 -200 1300 25 
L 200 2925 
L 750 2925 
L 1550 725 
L 1575 725 
L 2350 2925 
L 2900 2925 
z
" transform="scale(0.015625)"/>
        <path id="KaiTi-70" d="M 2825 1525 
Q 2825 800 2475 425 
Q 2125 50 1625 50 
Q 1350 50 1150 162 
Q 950 275 800 500 
L 800 -800 
L 300 -800 
L 300 2925 
L 800 2925 
L 800 2550 
Q 950 2775 1150 2875 
Q 1350 2975 1625 2975 
Q 2125 2975 2475 2612 
Q 2825 2250 2825 1525 
z
M 2275 1525 
Q 2275 2000 2087 2262 
Q 1900 2525 1525 2525 
Q 1225 2525 1012 2262 
Q 800 2000 800 1525 
Q 800 1050 1012 775 
Q 1225 500 1525 500 
Q 1900 500 2087 775 
Q 2275 1050 2275 1525 
z
" transform="scale(0.015625)"/>
        <path id="KaiTi-74" d="M 2750 200 
Q 2625 150 2462 112 
Q 2300 75 2025 75 
Q 1575 75 1300 325 
Q 1025 575 1025 1025 
L 1025 2525 
L 175 2525 
L 175 2925 
L 1025 2925 
L 1025 3900 
L 1525 3900 
L 1525 2925 
L 2550 2925 
L 2550 2525 
L 1525 2525 
L 1525 1000 
Q 1525 800 1625 662 
Q 1725 525 2000 525 
Q 2275 525 2450 575 
Q 2625 625 2750 700 
L 2750 200 
z
" transform="scale(0.015625)"/>
       </defs>
       <use xlink:href="#KaiTi-45"/>
       <use xlink:href="#KaiTi-67" transform="translate(50 0)"/>
       <use xlink:href="#KaiTi-79" transform="translate(100 0)"/>
       <use xlink:href="#KaiTi-70" transform="translate(150 0)"/>
       <use xlink:href="#KaiTi-74" transform="translate(200 0)"/>
      </g>
     </g>
    </g>
    <g id="xtick_5">
     <g id="line2d_5">
      <g>
       <use xlink:href="#m35ba84efc7" x="282.62537" y="320.4" style="stroke: #000000; stroke-width: 0.8"/>
      </g>
     </g>
     <g id="text_5">
      <!-- Russia -->
      <g transform="translate(285.43787 357.4) rotate(-90) scale(0.1 -0.1)">
       <defs>
        <path id="KaiTi-52" d="M 3000 125 
L 2400 125 
L 1500 1975 
L 850 1975 
L 850 125 
L 275 125 
L 275 4400 
L 1525 4400 
Q 2125 4400 2500 4112 
Q 2875 3825 2875 3175 
Q 2875 2675 2625 2400 
Q 2375 2125 2050 2050 
L 3000 125 
z
M 2300 3175 
Q 2300 3525 2087 3725 
Q 1875 3925 1400 3925 
L 850 3925 
L 850 2450 
L 1550 2450 
Q 1850 2450 2075 2612 
Q 2300 2775 2300 3175 
z
" transform="scale(0.015625)"/>
        <path id="KaiTi-75" d="M 2800 125 
L 2300 125 
L 2300 650 
Q 2100 375 1862 225 
Q 1625 75 1250 75 
Q 800 75 575 325 
Q 350 575 350 950 
L 350 2925 
L 850 2925 
L 850 1125 
Q 850 825 1000 650 
Q 1150 475 1400 475 
Q 1725 475 2012 812 
Q 2300 1150 2300 1650 
L 2300 2925 
L 2800 2925 
L 2800 125 
z
" transform="scale(0.015625)"/>
       </defs>
       <use xlink:href="#KaiTi-52"/>
       <use xlink:href="#KaiTi-75" transform="translate(50 0)"/>
       <use xlink:href="#KaiTi-73" transform="translate(100 0)"/>
       <use xlink:href="#KaiTi-73" transform="translate(150 0)"/>
       <use xlink:href="#KaiTi-69" transform="translate(200 0)"/>
       <use xlink:href="#KaiTi-61" transform="translate(250 0)"/>
      </g>
     </g>
    </g>
    <g id="xtick_6">
     <g id="line2d_6">
      <g>
       <use xlink:href="#m35ba84efc7" x="310.151797" y="320.4" style="stroke: #000000; stroke-width: 0.8"/>
      </g>
     </g>
     <g id="text_6">
      <!-- Vietnam -->
      <g transform="translate(312.964297 362.4) rotate(-90) scale(0.1 -0.1)">
       <defs>
        <path id="KaiTi-56" d="M 3050 4400 
L 1800 75 
L 1300 75 
L 50 4400 
L 650 4400 
L 1525 1125 
L 1575 1125 
L 2450 4400 
L 3050 4400 
z
" transform="scale(0.015625)"/>
        <path id="KaiTi-6d" d="M 3050 125 
L 2550 125 
L 2550 2150 
Q 2550 2300 2500 2400 
Q 2450 2500 2300 2500 
Q 2125 2500 1975 2312 
Q 1825 2125 1825 1825 
L 1825 125 
L 1325 125 
L 1325 2150 
Q 1325 2300 1275 2400 
Q 1225 2500 1075 2500 
Q 900 2500 750 2312 
Q 600 2125 600 1825 
L 600 125 
L 100 125 
L 100 2925 
L 600 2925 
L 600 2550 
Q 725 2750 900 2862 
Q 1075 2975 1275 2975 
Q 1475 2975 1612 2862 
Q 1750 2750 1800 2550 
Q 1925 2750 2087 2862 
Q 2250 2975 2450 2975 
Q 2750 2975 2900 2812 
Q 3050 2650 3050 2350 
L 3050 125 
z
" transform="scale(0.015625)"/>
       </defs>
       <use xlink:href="#KaiTi-56"/>
       <use xlink:href="#KaiTi-69" transform="translate(50 0)"/>
       <use xlink:href="#KaiTi-65" transform="translate(100 0)"/>
       <use xlink:href="#KaiTi-74" transform="translate(150 0)"/>
       <use xlink:href="#KaiTi-6e" transform="translate(200 0)"/>
       <use xlink:href="#KaiTi-61" transform="translate(250 0)"/>
       <use xlink:href="#KaiTi-6d" transform="translate(300 0)"/>
      </g>
     </g>
    </g>
    <g id="xtick_7">
     <g id="line2d_7">
      <g>
       <use xlink:href="#m35ba84efc7" x="337.678224" y="320.4" style="stroke: #000000; stroke-width: 0.8"/>
      </g>
     </g>
     <g id="text_7">
      <!-- Kazakhstan -->
      <g transform="translate(340.490724 377.4) rotate(-90) scale(0.1 -0.1)">
       <defs>
        <path id="KaiTi-4b" d="M 3050 125 
L 2400 125 
L 1250 2250 
L 850 1725 
L 850 125 
L 275 125 
L 275 4400 
L 850 4400 
L 850 2550 
L 2275 4400 
L 2950 4400 
L 1625 2725 
L 3050 125 
z
" transform="scale(0.015625)"/>
        <path id="KaiTi-7a" d="M 2775 125 
L 350 125 
L 350 525 
L 2050 2525 
L 450 2525 
L 450 2925 
L 2650 2925 
L 2650 2525 
L 950 525 
L 2775 525 
L 2775 125 
z
" transform="scale(0.015625)"/>
        <path id="KaiTi-6b" d="M 2925 125 
L 2350 125 
L 1450 1650 
L 875 1100 
L 875 125 
L 375 125 
L 375 4400 
L 875 4400 
L 875 1675 
L 2125 2925 
L 2750 2925 
L 1775 1975 
L 2925 125 
z
" transform="scale(0.015625)"/>
       </defs>
       <use xlink:href="#KaiTi-4b"/>
       <use xlink:href="#KaiTi-61" transform="translate(50 0)"/>
       <use xlink:href="#KaiTi-7a" transform="translate(100 0)"/>
       <use xlink:href="#KaiTi-61" transform="translate(150 0)"/>
       <use xlink:href="#KaiTi-6b" transform="translate(200 0)"/>
       <use xlink:href="#KaiTi-68" transform="translate(250 0)"/>
       <use xlink:href="#KaiTi-73" transform="translate(300 0)"/>
       <use xlink:href="#KaiTi-74" transform="translate(350 0)"/>
       <use xlink:href="#KaiTi-61" transform="translate(400 0)"/>
       <use xlink:href="#KaiTi-6e" transform="translate(450 0)"/>
      </g>
     </g>
    </g>
    <g id="xtick_8">
     <g id="line2d_8">
      <g>
       <use xlink:href="#m35ba84efc7" x="365.204651" y="320.4" style="stroke: #000000; stroke-width: 0.8"/>
      </g>
     </g>
     <g id="text_8">
      <!-- United States -->
      <g transform="translate(368.017151 392.4) rotate(-90) scale(0.1 -0.1)">
       <defs>
        <path id="KaiTi-55" d="M 2875 1375 
Q 2875 775 2562 425 
Q 2250 75 1575 75 
Q 900 75 587 425 
Q 275 775 275 1375 
L 275 4400 
L 850 4400 
L 850 1375 
Q 850 950 1050 750 
Q 1250 550 1575 550 
Q 1900 550 2100 750 
Q 2300 950 2300 1375 
L 2300 4400 
L 2875 4400 
L 2875 1375 
z
" transform="scale(0.015625)"/>
        <path id="KaiTi-20" transform="scale(0.015625)"/>
        <path id="KaiTi-53" d="M 2900 1325 
Q 2900 750 2537 412 
Q 2175 75 1550 75 
Q 925 75 575 425 
Q 225 775 225 1300 
L 225 1475 
L 800 1475 
L 800 1325 
Q 800 950 1025 750 
Q 1250 550 1550 550 
Q 1950 550 2137 762 
Q 2325 975 2325 1275 
Q 2325 1525 2100 1737 
Q 1875 1950 1450 2125 
Q 850 2350 587 2625 
Q 325 2900 325 3275 
Q 325 3800 687 4125 
Q 1050 4450 1550 4450 
Q 2200 4450 2487 4062 
Q 2775 3675 2775 3225 
L 2200 3225 
Q 2225 3500 2050 3725 
Q 1875 3950 1550 3950 
Q 1250 3950 1075 3787 
Q 900 3625 900 3350 
Q 900 3125 1037 2962 
Q 1175 2800 1750 2575 
Q 2300 2350 2600 2037 
Q 2900 1725 2900 1325 
z
" transform="scale(0.015625)"/>
       </defs>
       <use xlink:href="#KaiTi-55"/>
       <use xlink:href="#KaiTi-6e" transform="translate(50 0)"/>
       <use xlink:href="#KaiTi-69" transform="translate(100 0)"/>
       <use xlink:href="#KaiTi-74" transform="translate(150 0)"/>
       <use xlink:href="#KaiTi-65" transform="translate(200 0)"/>
       <use xlink:href="#KaiTi-64" transform="translate(250 0)"/>
       <use xlink:href="#KaiTi-20" transform="translate(300 0)"/>
       <use xlink:href="#KaiTi-53" transform="translate(350 0)"/>
       <use xlink:href="#KaiTi-74" transform="translate(400 0)"/>
       <use xlink:href="#KaiTi-61" transform="translate(450 0)"/>
       <use xlink:href="#KaiTi-74" transform="translate(500 0)"/>
       <use xlink:href="#KaiTi-65" transform="translate(550 0)"/>
       <use xlink:href="#KaiTi-73" transform="translate(600 0)"/>
      </g>
     </g>
    </g>
    <g id="xtick_9">
     <g id="line2d_9">
      <g>
       <use xlink:href="#m35ba84efc7" x="392.731078" y="320.4" style="stroke: #000000; stroke-width: 0.8"/>
      </g>
     </g>
     <g id="text_9">
      <!-- Iran -->
      <g transform="translate(395.543578 347.4) rotate(-90) scale(0.1 -0.1)">
       <defs>
        <path id="KaiTi-72" d="M 2500 2425 
Q 2025 2500 1700 2287 
Q 1375 2075 1150 1550 
L 1150 125 
L 650 125 
L 650 2925 
L 1150 2925 
L 1150 2200 
Q 1375 2600 1712 2787 
Q 2050 2975 2500 2975 
L 2500 2425 
z
" transform="scale(0.015625)"/>
       </defs>
       <use xlink:href="#KaiTi-49"/>
       <use xlink:href="#KaiTi-72" transform="translate(50 0)"/>
       <use xlink:href="#KaiTi-61" transform="translate(100 0)"/>
       <use xlink:href="#KaiTi-6e" transform="translate(150 0)"/>
      </g>
     </g>
    </g>
    <g id="xtick_10">
     <g id="line2d_10">
      <g>
       <use xlink:href="#m35ba84efc7" x="420.257505" y="320.4" style="stroke: #000000; stroke-width: 0.8"/>
      </g>
     </g>
     <g id="text_10">
      <!-- Syria -->
      <g transform="translate(423.109068 352.4) rotate(-90) scale(0.1 -0.1)">
       <use xlink:href="#KaiTi-53"/>
       <use xlink:href="#KaiTi-79" transform="translate(50 0)"/>
       <use xlink:href="#KaiTi-72" transform="translate(100 0)"/>
       <use xlink:href="#KaiTi-69" transform="translate(150 0)"/>
       <use xlink:href="#KaiTi-61" transform="translate(200 0)"/>
      </g>
     </g>
    </g>
    <g id="xtick_11">
     <g id="line2d_11">
      <g>
       <use xlink:href="#m35ba84efc7" x="447.783932" y="320.4" style="stroke: #000000; stroke-width: 0.8"/>
      </g>
     </g>
     <g id="text_11">
      <!-- South Korea -->
      <g transform="translate(450.596432 382.4) rotate(-90) scale(0.1 -0.1)">
       <defs>
        <path id="KaiTi-6f" d="M 2925 1525 
Q 2925 875 2525 475 
Q 2125 75 1575 75 
Q 1025 75 625 475 
Q 225 875 225 1525 
Q 225 2175 625 2575 
Q 1025 2975 1575 2975 
Q 2125 2975 2525 2575 
Q 2925 2175 2925 1525 
z
M 2375 1525 
Q 2375 2025 2125 2275 
Q 1875 2525 1575 2525 
Q 1275 2525 1025 2275 
Q 775 2025 775 1525 
Q 775 1025 1025 775 
Q 1275 525 1575 525 
Q 1875 525 2125 775 
Q 2375 1025 2375 1525 
z
" transform="scale(0.015625)"/>
       </defs>
       <use xlink:href="#KaiTi-53"/>
       <use xlink:href="#KaiTi-6f" transform="translate(50 0)"/>
       <use xlink:href="#KaiTi-75" transform="translate(100 0)"/>
       <use xlink:href="#KaiTi-74" transform="translate(150 0)"/>
       <use xlink:href="#KaiTi-68" transform="translate(200 0)"/>
       <use xlink:href="#KaiTi-20" transform="translate(250 0)"/>
       <use xlink:href="#KaiTi-4b" transform="translate(300 0)"/>
       <use xlink:href="#KaiTi-6f" transform="translate(350 0)"/>
       <use xlink:href="#KaiTi-72" transform="translate(400 0)"/>
       <use xlink:href="#KaiTi-65" transform="translate(450 0)"/>
       <use xlink:href="#KaiTi-61" transform="translate(500 0)"/>
      </g>
     </g>
    </g>
    <g id="xtick_12">
     <g id="line2d_12">
      <g>
       <use xlink:href="#m35ba84efc7" x="475.310359" y="320.4" style="stroke: #000000; stroke-width: 0.8"/>
      </g>
     </g>
     <g id="text_12">
      <!-- Brazil -->
      <g transform="translate(478.122859 357.4) rotate(-90) scale(0.1 -0.1)">
       <use xlink:href="#KaiTi-42"/>
       <use xlink:href="#KaiTi-72" transform="translate(50 0)"/>
       <use xlink:href="#KaiTi-61" transform="translate(100 0)"/>
       <use xlink:href="#KaiTi-7a" transform="translate(150 0)"/>
       <use xlink:href="#KaiTi-69" transform="translate(200 0)"/>
       <use xlink:href="#KaiTi-6c" transform="translate(250 0)"/>
      </g>
     </g>
    </g>
    <g id="xtick_13">
     <g id="line2d_13">
      <g>
       <use xlink:href="#m35ba84efc7" x="502.836786" y="320.4" style="stroke: #000000; stroke-width: 0.8"/>
      </g>
     </g>
     <g id="text_13">
      <!-- Palestinian Territory -->
      <g transform="translate(505.688349 432.4) rotate(-90) scale(0.1 -0.1)">
       <defs>
        <path id="KaiTi-50" d="M 2950 3100 
Q 2950 2500 2600 2150 
Q 2250 1800 1625 1800 
L 900 1800 
L 900 125 
L 325 125 
L 325 4400 
L 1625 4400 
Q 2250 4400 2600 4050 
Q 2950 3700 2950 3100 
z
M 2375 3100 
Q 2375 3575 2150 3750 
Q 1925 3925 1475 3925 
L 900 3925 
L 900 2275 
L 1475 2275 
Q 1925 2275 2150 2450 
Q 2375 2625 2375 3100 
z
" transform="scale(0.015625)"/>
        <path id="KaiTi-54" d="M 2850 3925 
L 1850 3925 
L 1850 125 
L 1275 125 
L 1275 3925 
L 275 3925 
L 275 4400 
L 2850 4400 
L 2850 3925 
z
" transform="scale(0.015625)"/>
       </defs>
       <use xlink:href="#KaiTi-50"/>
       <use xlink:href="#KaiTi-61" transform="translate(50 0)"/>
       <use xlink:href="#KaiTi-6c" transform="translate(100 0)"/>
       <use xlink:href="#KaiTi-65" transform="translate(150 0)"/>
       <use xlink:href="#KaiTi-73" transform="translate(200 0)"/>
       <use xlink:href="#KaiTi-74" transform="translate(250 0)"/>
       <use xlink:href="#KaiTi-69" transform="translate(300 0)"/>
       <use xlink:href="#KaiTi-6e" transform="translate(350 0)"/>
       <use xlink:href="#KaiTi-69" transform="translate(400 0)"/>
       <use xlink:href="#KaiTi-61" transform="translate(450 0)"/>
       <use xlink:href="#KaiTi-6e" transform="translate(500 0)"/>
       <use xlink:href="#KaiTi-20" transform="translate(550 0)"/>
       <use xlink:href="#KaiTi-54" transform="translate(600 0)"/>
       <use xlink:href="#KaiTi-65" transform="translate(650 0)"/>
       <use xlink:href="#KaiTi-72" transform="translate(700 0)"/>
       <use xlink:href="#KaiTi-72" transform="translate(750 0)"/>
       <use xlink:href="#KaiTi-69" transform="translate(800 0)"/>
       <use xlink:href="#KaiTi-74" transform="translate(850 0)"/>
       <use xlink:href="#KaiTi-6f" transform="translate(900 0)"/>
       <use xlink:href="#KaiTi-72" transform="translate(950 0)"/>
       <use xlink:href="#KaiTi-79" transform="translate(1000 0)"/>
      </g>
     </g>
    </g>
    <g id="xtick_14">
     <g id="line2d_14">
      <g>
       <use xlink:href="#m35ba84efc7" x="530.363214" y="320.4" style="stroke: #000000; stroke-width: 0.8"/>
      </g>
     </g>
     <g id="text_14">
      <!-- Japan -->
      <g transform="translate(533.175714 352.4) rotate(-90) scale(0.1 -0.1)">
       <defs>
        <path id="KaiTi-4a" d="M 2800 1550 
Q 2800 775 2462 425 
Q 2125 75 1550 75 
Q 1025 75 675 412 
Q 325 750 325 1500 
L 325 1775 
L 900 1775 
L 900 1425 
Q 900 975 1087 787 
Q 1275 600 1525 600 
Q 1875 600 2050 800 
Q 2225 1000 2225 1525 
L 2225 4400 
L 2800 4400 
L 2800 1550 
z
" transform="scale(0.015625)"/>
       </defs>
       <use xlink:href="#KaiTi-4a"/>
       <use xlink:href="#KaiTi-61" transform="translate(50 0)"/>
       <use xlink:href="#KaiTi-70" transform="translate(100 0)"/>
       <use xlink:href="#KaiTi-61" transform="translate(150 0)"/>
       <use xlink:href="#KaiTi-6e" transform="translate(200 0)"/>
      </g>
     </g>
    </g>
    <g id="xtick_15">
     <g id="line2d_15">
      <g>
       <use xlink:href="#m35ba84efc7" x="557.889641" y="320.4" style="stroke: #000000; stroke-width: 0.8"/>
      </g>
     </g>
     <g id="text_15">
      <!-- Tunisia -->
      <g transform="translate(560.702141 362.4) rotate(-90) scale(0.1 -0.1)">
       <use xlink:href="#KaiTi-54"/>
       <use xlink:href="#KaiTi-75" transform="translate(50 0)"/>
       <use xlink:href="#KaiTi-6e" transform="translate(100 0)"/>
       <use xlink:href="#KaiTi-69" transform="translate(150 0)"/>
       <use xlink:href="#KaiTi-73" transform="translate(200 0)"/>
       <use xlink:href="#KaiTi-69" transform="translate(250 0)"/>
       <use xlink:href="#KaiTi-61" transform="translate(300 0)"/>
      </g>
     </g>
    </g>
    <g id="xtick_16">
     <g id="line2d_16">
      <g>
       <use xlink:href="#m35ba84efc7" x="585.416068" y="320.4" style="stroke: #000000; stroke-width: 0.8"/>
      </g>
     </g>
     <g id="text_16">
      <!-- Indonesia -->
      <g transform="translate(588.228568 372.4) rotate(-90) scale(0.1 -0.1)">
       <use xlink:href="#KaiTi-49"/>
       <use xlink:href="#KaiTi-6e" transform="translate(50 0)"/>
       <use xlink:href="#KaiTi-64" transform="translate(100 0)"/>
       <use xlink:href="#KaiTi-6f" transform="translate(150 0)"/>
       <use xlink:href="#KaiTi-6e" transform="translate(200 0)"/>
       <use xlink:href="#KaiTi-65" transform="translate(250 0)"/>
       <use xlink:href="#KaiTi-73" transform="translate(300 0)"/>
       <use xlink:href="#KaiTi-69" transform="translate(350 0)"/>
       <use xlink:href="#KaiTi-61" transform="translate(400 0)"/>
      </g>
     </g>
    </g>
    <g id="xtick_17">
     <g id="line2d_17">
      <g>
       <use xlink:href="#m35ba84efc7" x="612.942495" y="320.4" style="stroke: #000000; stroke-width: 0.8"/>
      </g>
     </g>
     <g id="text_17">
      <!-- Belarus -->
      <g transform="translate(615.754995 362.4) rotate(-90) scale(0.1 -0.1)">
       <use xlink:href="#KaiTi-42"/>
       <use xlink:href="#KaiTi-65" transform="translate(50 0)"/>
       <use xlink:href="#KaiTi-6c" transform="translate(100 0)"/>
       <use xlink:href="#KaiTi-61" transform="translate(150 0)"/>
       <use xlink:href="#KaiTi-72" transform="translate(200 0)"/>
       <use xlink:href="#KaiTi-75" transform="translate(250 0)"/>
       <use xlink:href="#KaiTi-73" transform="translate(300 0)"/>
      </g>
     </g>
    </g>
    <g id="xtick_18">
     <g id="line2d_18">
      <g>
       <use xlink:href="#m35ba84efc7" x="640.468922" y="320.4" style="stroke: #000000; stroke-width: 0.8"/>
      </g>
     </g>
     <g id="text_18">
      <!-- Taiwan -->
      <g transform="translate(643.281422 357.4) rotate(-90) scale(0.1 -0.1)">
       <defs>
        <path id="KaiTi-77" d="M 3075 2925 
L 2450 75 
L 1975 75 
L 1575 2250 
L 1525 2250 
L 1125 75 
L 650 75 
L 25 2925 
L 550 2925 
L 875 1050 
L 925 1050 
L 1275 2925 
L 1825 2925 
L 2175 1050 
L 2225 1050 
L 2550 2925 
L 3075 2925 
z
" transform="scale(0.015625)"/>
       </defs>
       <use xlink:href="#KaiTi-54"/>
       <use xlink:href="#KaiTi-61" transform="translate(50 0)"/>
       <use xlink:href="#KaiTi-69" transform="translate(100 0)"/>
       <use xlink:href="#KaiTi-77" transform="translate(150 0)"/>
       <use xlink:href="#KaiTi-61" transform="translate(200 0)"/>
       <use xlink:href="#KaiTi-6e" transform="translate(250 0)"/>
      </g>
     </g>
    </g>
    <g id="xtick_19">
     <g id="line2d_19">
      <g>
       <use xlink:href="#m35ba84efc7" x="667.995349" y="320.4" style="stroke: #000000; stroke-width: 0.8"/>
      </g>
     </g>
     <g id="text_19">
      <!-- Romania -->
      <g transform="translate(670.807849 362.4) rotate(-90) scale(0.1 -0.1)">
       <use xlink:href="#KaiTi-52"/>
       <use xlink:href="#KaiTi-6f" transform="translate(50 0)"/>
       <use xlink:href="#KaiTi-6d" transform="translate(100 0)"/>
       <use xlink:href="#KaiTi-61" transform="translate(150 0)"/>
       <use xlink:href="#KaiTi-6e" transform="translate(200 0)"/>
       <use xlink:href="#KaiTi-69" transform="translate(250 0)"/>
       <use xlink:href="#KaiTi-61" transform="translate(300 0)"/>
      </g>
     </g>
    </g>
    <g id="xtick_20">
     <g id="line2d_20">
      <g>
       <use xlink:href="#m35ba84efc7" x="695.521776" y="320.4" style="stroke: #000000; stroke-width: 0.8"/>
      </g>
     </g>
     <g id="text_20">
      <!-- Poland -->
      <g transform="translate(698.334276 357.4) rotate(-90) scale(0.1 -0.1)">
       <use xlink:href="#KaiTi-50"/>
       <use xlink:href="#KaiTi-6f" transform="translate(50 0)"/>
       <use xlink:href="#KaiTi-6c" transform="translate(100 0)"/>
       <use xlink:href="#KaiTi-61" transform="translate(150 0)"/>
       <use xlink:href="#KaiTi-6e" transform="translate(200 0)"/>
       <use xlink:href="#KaiTi-64" transform="translate(250 0)"/>
      </g>
     </g>
    </g>
    <g id="xtick_21">
     <g id="line2d_21">
      <g>
       <use xlink:href="#m35ba84efc7" x="723.048203" y="320.4" style="stroke: #000000; stroke-width: 0.8"/>
      </g>
     </g>
     <g id="text_21">
      <!-- Jordan -->
      <g transform="translate(725.860703 357.4) rotate(-90) scale(0.1 -0.1)">
       <use xlink:href="#KaiTi-4a"/>
       <use xlink:href="#KaiTi-6f" transform="translate(50 0)"/>
       <use xlink:href="#KaiTi-72" transform="translate(100 0)"/>
       <use xlink:href="#KaiTi-64" transform="translate(150 0)"/>
       <use xlink:href="#KaiTi-61" transform="translate(200 0)"/>
       <use xlink:href="#KaiTi-6e" transform="translate(250 0)"/>
      </g>
     </g>
    </g>
    <g id="xtick_22">
     <g id="line2d_22">
      <g>
       <use xlink:href="#m35ba84efc7" x="750.57463" y="320.4" style="stroke: #000000; stroke-width: 0.8"/>
      </g>
     </g>
     <g id="text_22">
      <!-- Ukraine -->
      <g transform="translate(753.38713 362.4) rotate(-90) scale(0.1 -0.1)">
       <use xlink:href="#KaiTi-55"/>
       <use xlink:href="#KaiTi-6b" transform="translate(50 0)"/>
       <use xlink:href="#KaiTi-72" transform="translate(100 0)"/>
       <use xlink:href="#KaiTi-61" transform="translate(150 0)"/>
       <use xlink:href="#KaiTi-69" transform="translate(200 0)"/>
       <use xlink:href="#KaiTi-6e" transform="translate(250 0)"/>
       <use xlink:href="#KaiTi-65" transform="translate(300 0)"/>
      </g>
     </g>
    </g>
    <g id="xtick_23">
     <g id="line2d_23">
      <g>
       <use xlink:href="#m35ba84efc7" x="778.101057" y="320.4" style="stroke: #000000; stroke-width: 0.8"/>
      </g>
     </g>
     <g id="text_23">
      <!-- Mexico -->
      <g transform="translate(780.913557 357.4) rotate(-90) scale(0.1 -0.1)">
       <defs>
        <path id="KaiTi-4d" d="M 2925 125 
L 2425 125 
L 2425 3175 
L 2375 3175 
L 1775 125 
L 1375 125 
L 775 3175 
L 725 3175 
L 725 125 
L 225 125 
L 225 4400 
L 1000 4400 
L 1550 1575 
L 1600 1575 
L 2150 4400 
L 2925 4400 
L 2925 125 
z
" transform="scale(0.015625)"/>
        <path id="KaiTi-78" d="M 2875 125 
L 2275 125 
L 1550 1200 
L 825 125 
L 225 125 
L 1250 1550 
L 300 2925 
L 900 2925 
L 1550 1875 
L 2200 2925 
L 2800 2925 
L 1850 1550 
L 2875 125 
z
" transform="scale(0.015625)"/>
        <path id="KaiTi-63" d="M 2850 1250 
Q 2850 725 2487 400 
Q 2125 75 1575 75 
Q 1025 75 625 462 
Q 225 850 225 1525 
Q 225 2200 625 2587 
Q 1025 2975 1575 2975 
Q 2125 2975 2450 2687 
Q 2775 2400 2775 2000 
L 2225 2000 
Q 2200 2300 2012 2412 
Q 1825 2525 1575 2525 
Q 1275 2525 1025 2287 
Q 775 2050 775 1525 
Q 775 1000 1025 762 
Q 1275 525 1575 525 
Q 1900 525 2100 700 
Q 2300 875 2300 1250 
L 2850 1250 
z
" transform="scale(0.015625)"/>
       </defs>
       <use xlink:href="#KaiTi-4d"/>
       <use xlink:href="#KaiTi-65" transform="translate(50 0)"/>
       <use xlink:href="#KaiTi-78" transform="translate(100 0)"/>
       <use xlink:href="#KaiTi-69" transform="translate(150 0)"/>
       <use xlink:href="#KaiTi-63" transform="translate(200 0)"/>
       <use xlink:href="#KaiTi-6f" transform="translate(250 0)"/>
      </g>
     </g>
    </g>
    <g id="xtick_24">
     <g id="line2d_24">
      <g>
       <use xlink:href="#m35ba84efc7" x="805.627484" y="320.4" style="stroke: #000000; stroke-width: 0.8"/>
      </g>
     </g>
     <g id="text_24">
      <!-- Uzbekistan -->
      <g transform="translate(808.439984 377.4) rotate(-90) scale(0.1 -0.1)">
       <defs>
        <path id="KaiTi-62" d="M 2825 1525 
Q 2825 800 2475 437 
Q 2125 75 1625 75 
Q 1350 75 1150 175 
Q 950 275 800 500 
L 800 125 
L 300 125 
L 300 4400 
L 800 4400 
L 800 2550 
Q 950 2775 1150 2887 
Q 1350 3000 1625 3000 
Q 2125 3000 2475 2625 
Q 2825 2250 2825 1525 
z
M 2275 1525 
Q 2275 2000 2087 2275 
Q 1900 2550 1525 2550 
Q 1225 2550 1012 2275 
Q 800 2000 800 1525 
Q 800 1050 1012 787 
Q 1225 525 1525 525 
Q 1900 525 2087 787 
Q 2275 1050 2275 1525 
z
" transform="scale(0.015625)"/>
       </defs>
       <use xlink:href="#KaiTi-55"/>
       <use xlink:href="#KaiTi-7a" transform="translate(50 0)"/>
       <use xlink:href="#KaiTi-62" transform="translate(100 0)"/>
       <use xlink:href="#KaiTi-65" transform="translate(150 0)"/>
       <use xlink:href="#KaiTi-6b" transform="translate(200 0)"/>
       <use xlink:href="#KaiTi-69" transform="translate(250 0)"/>
       <use xlink:href="#KaiTi-73" transform="translate(300 0)"/>
       <use xlink:href="#KaiTi-74" transform="translate(350 0)"/>
       <use xlink:href="#KaiTi-61" transform="translate(400 0)"/>
       <use xlink:href="#KaiTi-6e" transform="translate(450 0)"/>
      </g>
     </g>
    </g>
    <g id="xtick_25">
     <g id="line2d_25">
      <g>
       <use xlink:href="#m35ba84efc7" x="833.153911" y="320.4" style="stroke: #000000; stroke-width: 0.8"/>
      </g>
     </g>
     <g id="text_25">
      <!-- Pakistan -->
      <g transform="translate(835.966411 367.4) rotate(-90) scale(0.1 -0.1)">
       <use xlink:href="#KaiTi-50"/>
       <use xlink:href="#KaiTi-61" transform="translate(50 0)"/>
       <use xlink:href="#KaiTi-6b" transform="translate(100 0)"/>
       <use xlink:href="#KaiTi-69" transform="translate(150 0)"/>
       <use xlink:href="#KaiTi-73" transform="translate(200 0)"/>
       <use xlink:href="#KaiTi-74" transform="translate(250 0)"/>
       <use xlink:href="#KaiTi-61" transform="translate(300 0)"/>
       <use xlink:href="#KaiTi-6e" transform="translate(350 0)"/>
      </g>
     </g>
    </g>
    <g id="xtick_26">
     <g id="line2d_26">
      <g>
       <use xlink:href="#m35ba84efc7" x="860.680338" y="320.4" style="stroke: #000000; stroke-width: 0.8"/>
      </g>
     </g>
     <g id="text_26">
      <!-- Others -->
      <g transform="translate(863.492838 357.4) rotate(-90) scale(0.1 -0.1)">
       <defs>
        <path id="KaiTi-4f" d="M 2950 2275 
Q 2950 1100 2587 587 
Q 2225 75 1575 75 
Q 925 75 550 587 
Q 175 1100 175 2275 
Q 175 3450 550 3950 
Q 925 4450 1575 4450 
Q 2225 4450 2587 3950 
Q 2950 3450 2950 2275 
z
M 2350 2275 
Q 2350 3325 2125 3650 
Q 1900 3975 1575 3975 
Q 1250 3975 1012 3650 
Q 775 3325 775 2275 
Q 775 1225 1012 887 
Q 1250 550 1575 550 
Q 1900 550 2125 887 
Q 2350 1225 2350 2275 
z
" transform="scale(0.015625)"/>
       </defs>
       <use xlink:href="#KaiTi-4f"/>
       <use xlink:href="#KaiTi-74" transform="translate(50 0)"/>
       <use xlink:href="#KaiTi-68" transform="translate(100 0)"/>
       <use xlink:href="#KaiTi-65" transform="translate(150 0)"/>
       <use xlink:href="#KaiTi-72" transform="translate(200 0)"/>
       <use xlink:href="#KaiTi-73" transform="translate(250 0)"/>
      </g>
     </g>
    </g>
    <g id="text_27">
     <!-- 国家 -->
     <g transform="translate(501.6 447.942969) scale(0.15 -0.15)">
      <defs>
       <path id="KaiTi-56fd" d="M 4750 350 
Q 4225 400 3575 337 
Q 2925 275 2425 237 
Q 1925 200 1600 225 
Q 1425 -425 1262 -12 
Q 1100 400 1212 712 
Q 1325 1025 1350 2500 
Q 1375 3975 1200 4225 
Q 1025 4475 1187 4462 
Q 1350 4450 1550 4400 
Q 1750 4350 2475 4437 
Q 3200 4525 3725 4612 
Q 4250 4700 4462 4775 
Q 4675 4850 4900 4775 
Q 5125 4700 5300 4537 
Q 5475 4375 5325 4175 
Q 5175 3975 5237 2362 
Q 5300 750 5325 400 
Q 5350 50 5200 -300 
Q 5050 -650 4937 -350 
Q 4825 -50 4750 350 
z
M 1600 425 
Q 2750 500 3587 600 
Q 4425 700 4825 550 
Q 4925 825 4875 2475 
Q 4825 4125 4725 4287 
Q 4625 4450 4312 4425 
Q 4000 4400 1675 4150 
Q 1675 2375 1600 425 
z
M 3225 3425 
Q 3400 3300 3362 3187 
Q 3325 3075 3300 2800 
Q 3575 2850 3737 2887 
Q 3900 2925 4037 2800 
Q 4175 2675 3900 2600 
Q 3625 2525 3300 2475 
L 3275 1550 
Q 3800 1625 4125 1687 
Q 4450 1750 4612 1562 
Q 4775 1375 4437 1387 
Q 4100 1400 3675 1350 
Q 3250 1300 2962 1237 
Q 2675 1175 2400 1125 
Q 2125 1075 1937 1237 
Q 1750 1400 2025 1400 
Q 2325 1400 3000 1525 
L 3000 2425 
Q 2525 2400 2375 2487 
Q 2225 2575 2450 2625 
Q 2675 2675 3000 2750 
Q 3000 3125 2925 3375 
Q 2500 3350 2312 3437 
Q 2125 3525 2350 3562 
Q 2575 3600 3037 3712 
Q 3500 3825 3725 3887 
Q 3950 3950 4100 3850 
Q 4250 3750 4050 3650 
Q 3850 3550 3225 3425 
z
M 4100 1875 
Q 3900 2025 3775 2225 
Q 3650 2425 3875 2387 
Q 4100 2350 4250 2225 
Q 4400 2100 4362 1912 
Q 4325 1725 4100 1875 
z
" transform="scale(0.015625)"/>
       <path id="KaiTi-5bb6" d="M 3000 3150 
Q 3200 2900 3050 2850 
Q 2900 2800 2550 2575 
Q 2850 2425 3100 2125 
L 3325 2025 
Q 4025 2800 4000 2987 
Q 3975 3175 4150 3112 
Q 4325 3050 4475 2887 
Q 4625 2725 4450 2662 
Q 4275 2600 3475 1950 
Q 4375 1400 4762 1250 
Q 5150 1100 5637 1012 
Q 6125 925 5787 850 
Q 5450 775 5000 712 
Q 4550 650 4137 1087 
Q 3725 1525 3150 1925 
Q 3425 1250 3425 750 
Q 3425 275 3337 -12 
Q 3250 -300 3062 -487 
Q 2875 -675 2762 -462 
Q 2650 -250 2350 -62 
Q 2050 125 2412 50 
Q 2775 -25 2925 100 
Q 3075 225 3087 675 
Q 3100 1125 3025 1475 
Q 2600 1025 2225 762 
Q 1850 500 1400 400 
Q 950 300 1262 450 
Q 1575 600 2037 937 
Q 2500 1275 2900 1800 
Q 2850 1950 2775 2075 
Q 2575 1875 2287 1650 
Q 2000 1425 1575 1300 
Q 1150 1175 1625 1450 
Q 2100 1725 2575 2350 
Q 2525 2450 2450 2525 
Q 1850 2200 1500 2162 
Q 1150 2125 1462 2262 
Q 1775 2400 2137 2650 
Q 2500 2900 2650 3125 
Q 2275 3125 2100 3237 
Q 1925 3350 2150 3375 
Q 2375 3400 2750 3462 
Q 3125 3525 3512 3625 
Q 3900 3725 4062 3575 
Q 4225 3425 3812 3312 
Q 3400 3200 3000 3150 
z
M 3375 4375 
Q 4425 4500 4637 4600 
Q 4850 4700 5112 4562 
Q 5375 4425 5550 4250 
Q 5725 4075 5425 4037 
Q 5125 4000 4787 3787 
Q 4450 3575 4562 3825 
Q 4675 4075 4725 4212 
Q 4775 4350 4600 4350 
Q 4425 4350 3650 4225 
Q 2875 4100 2362 4037 
Q 1850 3975 1625 4000 
Q 1450 3475 1237 3237 
Q 1025 3000 950 3225 
Q 875 3450 1012 3637 
Q 1150 3825 1275 4050 
Q 1400 4275 1500 4462 
Q 1600 4650 1675 4150 
Q 2125 4175 3275 4350 
Q 2900 4650 2687 4850 
Q 2475 5050 2700 5050 
Q 2950 5050 3112 5000 
Q 3275 4950 3387 4812 
Q 3500 4675 3375 4375 
z
" transform="scale(0.015625)"/>
      </defs>
      <use xlink:href="#KaiTi-56fd"/>
      <use xlink:href="#KaiTi-5bb6" transform="translate(100 0)"/>
     </g>
    </g>
   </g>
   <g id="matplotlib.axis_2">
    <g id="ytick_1">
     <g id="line2d_27">
      <defs>
       <path id="m623a47ed12" d="M 0 0 
L -3.5 0 
" style="stroke: #000000; stroke-width: 0.8"/>
      </defs>
      <g>
       <use xlink:href="#m623a47ed12" x="126" y="320.4" style="stroke: #000000; stroke-width: 0.8"/>
      </g>
     </g>
     <g id="text_28">
      <!-- 0 -->
      <g transform="translate(114 323.8375) scale(0.1 -0.1)">
       <defs>
        <path id="KaiTi-30" d="M 225 2537 
Q 250 3200 412 3587 
Q 575 3975 875 4225 
Q 1175 4475 1612 4475 
Q 2050 4475 2375 4112 
Q 2700 3750 2800 3200 
Q 2900 2650 2862 1937 
Q 2825 1225 2612 775 
Q 2400 325 1975 150 
Q 1550 -25 1125 187 
Q 700 400 525 750 
Q 350 1100 275 1487 
Q 200 1875 225 2537 
z
M 750 2687 
Q 675 2000 800 1462 
Q 925 925 1212 700 
Q 1500 475 1800 612 
Q 2100 750 2237 1162 
Q 2375 1575 2375 2062 
Q 2375 2550 2337 2950 
Q 2300 3350 2112 3675 
Q 1925 4000 1612 4012 
Q 1300 4025 1062 3700 
Q 825 3375 750 2687 
z
" transform="scale(0.015625)"/>
       </defs>
       <use xlink:href="#KaiTi-30"/>
      </g>
     </g>
    </g>
    <g id="ytick_2">
     <g id="line2d_28">
      <g>
       <use xlink:href="#m623a47ed12" x="126" y="263.798654" style="stroke: #000000; stroke-width: 0.8"/>
      </g>
     </g>
     <g id="text_29">
      <!-- 5000 -->
      <g transform="translate(99 267.236154) scale(0.1 -0.1)">
       <defs>
        <path id="KaiTi-35" d="M 550 1325 
Q 725 650 1150 575 
Q 1575 500 1837 662 
Q 2100 825 2212 1087 
Q 2325 1350 2312 1675 
Q 2300 2000 2137 2225 
Q 1975 2450 1725 2525 
Q 1475 2600 1162 2525 
Q 850 2450 650 2175 
L 225 2225 
Q 275 2375 700 4375 
L 2675 4375 
L 2675 3925 
L 1075 3925 
Q 950 3250 825 2850 
Q 1200 3025 1525 3012 
Q 1850 3000 2150 2862 
Q 2450 2725 2587 2487 
Q 2725 2250 2787 2012 
Q 2850 1775 2837 1500 
Q 2825 1225 2725 937 
Q 2625 650 2425 462 
Q 2225 275 1937 162 
Q 1650 50 1275 75 
Q 900 100 562 350 
Q 225 600 100 1200 
L 550 1325 
z
" transform="scale(0.015625)"/>
       </defs>
       <use xlink:href="#KaiTi-35"/>
       <use xlink:href="#KaiTi-30" transform="translate(50 0)"/>
       <use xlink:href="#KaiTi-30" transform="translate(100 0)"/>
       <use xlink:href="#KaiTi-30" transform="translate(150 0)"/>
      </g>
     </g>
    </g>
    <g id="ytick_3">
     <g id="line2d_29">
      <g>
       <use xlink:href="#m623a47ed12" x="126" y="207.197307" style="stroke: #000000; stroke-width: 0.8"/>
      </g>
     </g>
     <g id="text_30">
      <!-- 10000 -->
      <g transform="translate(94 210.634807) scale(0.1 -0.1)">
       <defs>
        <path id="KaiTi-31" d="M 1400 3600 
Q 1075 3275 575 2975 
L 575 3450 
Q 1200 3875 1600 4450 
L 1900 4450 
L 1900 150 
L 1400 150 
L 1400 3600 
z
" transform="scale(0.015625)"/>
       </defs>
       <use xlink:href="#KaiTi-31"/>
       <use xlink:href="#KaiTi-30" transform="translate(50 0)"/>
       <use xlink:href="#KaiTi-30" transform="translate(100 0)"/>
       <use xlink:href="#KaiTi-30" transform="translate(150 0)"/>
       <use xlink:href="#KaiTi-30" transform="translate(200 0)"/>
      </g>
     </g>
    </g>
    <g id="ytick_4">
     <g id="line2d_30">
      <g>
       <use xlink:href="#m623a47ed12" x="126" y="150.595961" style="stroke: #000000; stroke-width: 0.8"/>
      </g>
     </g>
     <g id="text_31">
      <!-- 15000 -->
      <g transform="translate(94 154.033461) scale(0.1 -0.1)">
       <use xlink:href="#KaiTi-31"/>
       <use xlink:href="#KaiTi-35" transform="translate(50 0)"/>
       <use xlink:href="#KaiTi-30" transform="translate(100 0)"/>
       <use xlink:href="#KaiTi-30" transform="translate(150 0)"/>
       <use xlink:href="#KaiTi-30" transform="translate(200 0)"/>
      </g>
     </g>
    </g>
    <g id="ytick_5">
     <g id="line2d_31">
      <g>
       <use xlink:href="#m623a47ed12" x="126" y="93.994614" style="stroke: #000000; stroke-width: 0.8"/>
      </g>
     </g>
     <g id="text_32">
      <!-- 20000 -->
      <g transform="translate(94 97.432114) scale(0.1 -0.1)">
       <defs>
        <path id="KaiTi-32" d="M 300 250 
Q 325 625 650 925 
Q 975 1225 1475 1862 
Q 1975 2500 2125 2850 
Q 2275 3200 2237 3450 
Q 2200 3700 2000 3862 
Q 1800 4025 1537 4000 
Q 1275 3975 1037 3800 
Q 800 3625 675 3275 
L 200 3350 
Q 400 3925 712 4187 
Q 1025 4450 1450 4475 
Q 1700 4500 1900 4462 
Q 2100 4425 2312 4287 
Q 2525 4150 2662 3875 
Q 2800 3600 2762 3212 
Q 2725 2825 2375 2287 
Q 2025 1750 1025 600 
L 2825 600 
L 2825 150 
L 300 150 
L 300 250 
z
" transform="scale(0.015625)"/>
       </defs>
       <use xlink:href="#KaiTi-32"/>
       <use xlink:href="#KaiTi-30" transform="translate(50 0)"/>
       <use xlink:href="#KaiTi-30" transform="translate(100 0)"/>
       <use xlink:href="#KaiTi-30" transform="translate(150 0)"/>
       <use xlink:href="#KaiTi-30" transform="translate(200 0)"/>
      </g>
     </g>
    </g>
    <g id="text_33">
     <!-- 人数 -->
     <g transform="translate(88.125 196.8) rotate(-90) scale(0.15 -0.15)">
      <defs>
       <path id="KaiTi-4eba" d="M 2900 2975 
Q 3325 2450 3975 1812 
Q 4625 1175 5037 937 
Q 5450 700 5950 537 
Q 6450 375 5925 312 
Q 5400 250 5037 287 
Q 4675 325 4487 587 
Q 4300 850 3775 1537 
Q 3250 2225 2825 2850 
Q 2375 2075 2000 1562 
Q 1625 1050 1262 750 
Q 900 450 500 300 
Q 100 150 550 487 
Q 1000 825 1450 1375 
Q 1900 1925 2250 2612 
Q 2600 3300 2750 3737 
Q 2900 4175 2812 4450 
Q 2725 4725 3000 4600 
Q 3275 4475 3425 4350 
Q 3575 4225 3450 4087 
Q 3325 3950 3187 3637 
Q 3050 3325 2900 2975 
z
" transform="scale(0.015625)"/>
       <path id="KaiTi-6570" d="M 4100 1300 
Q 4275 1625 4312 1987 
Q 4350 2350 4325 2725 
Q 4125 2700 3875 2725 
Q 3575 2375 3325 2225 
Q 3075 2075 3387 2462 
Q 3700 2850 3912 3487 
Q 4125 4125 4100 4275 
Q 4075 4425 4062 4537 
Q 4050 4650 4362 4487 
Q 4675 4325 4562 4175 
Q 4450 4025 4337 3712 
Q 4225 3400 3925 2850 
Q 4525 2975 4912 3162 
Q 5300 3350 5512 3212 
Q 5725 3075 5450 2975 
Q 5175 2875 4425 2725 
Q 4800 2600 4712 2350 
Q 4625 2100 4562 1775 
Q 4500 1450 4325 1025 
Q 4550 750 4837 512 
Q 5125 275 5437 150 
Q 5750 25 5975 -62 
Q 6200 -150 5737 -187 
Q 5275 -225 5037 -187 
Q 4800 -150 4687 25 
Q 4575 200 4125 800 
Q 3900 550 3675 400 
Q 3450 250 3175 175 
Q 2900 100 3162 262 
Q 3425 425 3625 625 
Q 3825 825 3975 1050 
Q 3800 1350 3637 1562 
Q 3475 1775 3362 1900 
Q 3250 2025 3387 2037 
Q 3525 2050 3612 1950 
Q 3700 1850 4100 1300 
z
M 2575 1600 
Q 2625 1750 2612 1862 
Q 2600 1975 2750 1875 
Q 2900 1775 2962 1700 
Q 3025 1625 2962 1500 
Q 2900 1375 2800 1112 
Q 2700 850 2525 550 
Q 2700 425 2837 300 
Q 2975 175 2925 -62 
Q 2875 -300 2712 -100 
Q 2550 100 2325 275 
Q 1925 -25 1587 -150 
Q 1250 -275 912 -300 
Q 575 -325 850 -212 
Q 1125 -100 1450 50 
Q 1775 200 2050 475 
Q 1750 700 1637 750 
Q 1525 800 1587 900 
Q 1650 1000 1700 1250 
Q 1050 1175 862 1062 
Q 675 950 425 1150 
Q 175 1350 500 1337 
Q 825 1325 1775 1475 
Q 1850 1800 1800 1987 
Q 1750 2175 2025 2037 
Q 2300 1900 2250 1825 
Q 2200 1750 2075 1525 
L 2575 1600 
z
M 2875 3425 
Q 3125 3475 3225 3387 
Q 3325 3300 3100 3225 
Q 2875 3150 2350 3075 
L 2350 2875 
Q 2775 2825 2975 2687 
Q 3175 2550 3112 2350 
Q 3050 2150 2812 2412 
Q 2575 2675 2350 2800 
Q 2350 2500 2300 2287 
Q 2250 2075 2137 2262 
Q 2025 2450 2062 2600 
Q 2100 2750 2075 2950 
Q 1475 2175 975 1937 
Q 475 1700 762 1925 
Q 1050 2150 1362 2475 
Q 1675 2800 1800 3050 
Q 1450 2925 1312 2900 
Q 1175 2875 975 3012 
Q 775 3150 1050 3137 
Q 1325 3125 2100 3275 
L 2100 4175 
Q 2100 4700 2012 4837 
Q 1925 4975 1987 4987 
Q 2050 5000 2300 4887 
Q 2550 4775 2462 4625 
Q 2375 4475 2375 3325 
L 2875 3425 
z
M 2250 675 
Q 2450 925 2575 1425 
L 2000 1325 
Q 1825 925 1837 875 
Q 1850 825 1937 800 
Q 2025 775 2250 675 
z
M 3250 4275 
Q 3450 4150 3300 4087 
Q 3150 4025 2762 3737 
Q 2375 3450 2600 3737 
Q 2825 4025 2900 4237 
Q 2975 4450 3025 4425 
Q 3075 4400 3250 4275 
z
M 1550 3600 
Q 1350 3875 1287 4000 
Q 1225 4125 1537 4050 
Q 1850 3975 1812 3662 
Q 1775 3350 1550 3600 
z
" transform="scale(0.015625)"/>
      </defs>
      <use xlink:href="#KaiTi-4eba"/>
      <use xlink:href="#KaiTi-6570" transform="translate(100 0)"/>
     </g>
    </g>
   </g>
   <g id="patch_29">
    <path d="M 126 320.4 
L 126 43.2 
" style="fill: none; stroke: #000000; stroke-width: 0.8; stroke-linejoin: miter; stroke-linecap: square"/>
   </g>
   <g id="patch_30">
    <path d="M 907.2 320.4 
L 907.2 43.2 
" style="fill: none; stroke: #000000; stroke-width: 0.8; stroke-linejoin: miter; stroke-linecap: square"/>
   </g>
   <g id="patch_31">
    <path d="M 126 320.4 
L 907.2 320.4 
" style="fill: none; stroke: #000000; stroke-width: 0.8; stroke-linejoin: miter; stroke-linecap: square"/>
   </g>
   <g id="patch_32">
    <path d="M 126 43.2 
L 907.2 43.2 
" style="fill: none; stroke: #000000; stroke-width: 0.8; stroke-linejoin: miter; stroke-linecap: square"/>
   </g>
   <g id="text_34">
    <!-- 23321 -->
    <g transform="translate(160.019662 55.15) scale(0.1 -0.1)">
     <defs>
      <path id="KaiTi-33" d="M 250 1225 
L 700 1300 
Q 800 975 1025 762 
Q 1250 550 1587 562 
Q 1925 575 2125 837 
Q 2325 1100 2300 1437 
Q 2275 1775 2037 1962 
Q 1800 2150 1275 2225 
L 1275 2550 
Q 1800 2600 2037 2825 
Q 2275 3050 2250 3412 
Q 2225 3775 1925 3937 
Q 1625 4100 1287 3975 
Q 950 3850 750 3275 
L 300 3350 
Q 450 3800 712 4100 
Q 975 4400 1425 4450 
Q 1875 4500 2212 4337 
Q 2550 4175 2687 3837 
Q 2825 3500 2725 3100 
Q 2625 2700 2150 2400 
Q 2500 2250 2687 1950 
Q 2875 1650 2812 1162 
Q 2750 675 2375 375 
Q 2000 75 1525 87 
Q 1050 100 700 387 
Q 350 675 250 1225 
z
" transform="scale(0.015625)"/>
     </defs>
     <use xlink:href="#KaiTi-32"/>
     <use xlink:href="#KaiTi-33" transform="translate(50 0)"/>
     <use xlink:href="#KaiTi-33" transform="translate(100 0)"/>
     <use xlink:href="#KaiTi-32" transform="translate(150 0)"/>
     <use xlink:href="#KaiTi-31" transform="translate(200 0)"/>
    </g>
   </g>
   <g id="text_35">
    <!-- 6787 -->
    <g transform="translate(190.046089 242.319332) scale(0.1 -0.1)">
     <defs>
      <path id="KaiTi-36" d="M 250 1612 
Q 275 1975 387 2225 
Q 500 2475 725 2850 
L 1750 4450 
L 2325 4450 
L 1275 2800 
Q 1950 2975 2350 2750 
Q 2750 2525 2887 2237 
Q 3025 1950 3037 1612 
Q 3050 1275 2937 950 
Q 2825 625 2537 362 
Q 2250 100 1737 75 
Q 1225 50 862 262 
Q 500 475 362 862 
Q 225 1250 250 1612 
z
M 1025 787 
Q 1250 550 1625 525 
Q 2000 500 2250 775 
Q 2500 1050 2500 1575 
Q 2500 2100 2187 2300 
Q 1875 2500 1487 2450 
Q 1100 2400 925 2075 
Q 750 1750 775 1387 
Q 800 1025 1025 787 
z
" transform="scale(0.015625)"/>
      <path id="KaiTi-37" d="M 850 150 
Q 1300 2050 2425 3925 
L 275 3925 
L 275 4375 
L 2950 4375 
L 2950 3950 
Q 1775 2050 1400 150 
L 850 150 
z
" transform="scale(0.015625)"/>
      <path id="KaiTi-38" d="M 175 1375 
Q 175 1675 325 1962 
Q 475 2250 825 2425 
Q 525 2600 425 2812 
Q 325 3025 312 3300 
Q 300 3575 387 3775 
Q 475 3975 650 4150 
Q 825 4325 1037 4387 
Q 1250 4450 1500 4450 
Q 1750 4450 1950 4400 
Q 2150 4350 2375 4187 
Q 2600 4025 2700 3725 
Q 2800 3425 2687 3025 
Q 2575 2625 2100 2400 
Q 2525 2275 2700 2012 
Q 2875 1750 2875 1375 
Q 2875 1000 2762 775 
Q 2650 550 2512 400 
Q 2375 250 2137 162 
Q 1900 75 1537 75 
Q 1175 75 912 162 
Q 650 250 475 425 
Q 300 600 237 837 
Q 175 1075 175 1375 
z
M 687 1400 
Q 675 1100 787 875 
Q 900 650 1200 587 
Q 1500 525 1825 600 
Q 2150 675 2275 950 
Q 2400 1225 2362 1500 
Q 2325 1775 2050 1962 
Q 1775 2150 1450 2125 
Q 1125 2100 912 1900 
Q 700 1700 687 1400 
z
M 775 3350 
Q 775 3100 950 2875 
Q 1125 2650 1500 2650 
Q 1875 2650 2062 2875 
Q 2250 3100 2237 3412 
Q 2225 3725 2012 3875 
Q 1800 4025 1437 4000 
Q 1075 3975 925 3787 
Q 775 3600 775 3350 
z
" transform="scale(0.015625)"/>
     </defs>
     <use xlink:href="#KaiTi-36"/>
     <use xlink:href="#KaiTi-37" transform="translate(50 0)"/>
     <use xlink:href="#KaiTi-38" transform="translate(100 0)"/>
     <use xlink:href="#KaiTi-37" transform="translate(150 0)"/>
    </g>
   </g>
   <g id="text_36">
    <!-- 5934 -->
    <g transform="translate(217.572516 251.975522) scale(0.1 -0.1)">
     <defs>
      <path id="KaiTi-39" d="M 800 75 
Q 1350 1000 1700 1750 
Q 1075 1650 662 1912 
Q 250 2175 162 2625 
Q 75 3075 175 3437 
Q 275 3800 487 4037 
Q 700 4275 1000 4375 
Q 1300 4475 1537 4475 
Q 1775 4475 2025 4375 
Q 2275 4275 2475 4075 
Q 2675 3875 2750 3662 
Q 2825 3450 2825 3112 
Q 2825 2775 2575 2250 
Q 2325 1725 1350 75 
L 800 75 
z
M 662 2875 
Q 700 2550 937 2337 
Q 1175 2125 1450 2150 
Q 1725 2175 1887 2300 
Q 2050 2425 2200 2725 
Q 2300 3100 2250 3362 
Q 2200 3625 1987 3800 
Q 1775 3975 1525 3975 
Q 1375 4000 1137 3900 
Q 900 3800 762 3500 
Q 625 3200 662 2875 
z
" transform="scale(0.015625)"/>
      <path id="KaiTi-34" d="M 2000 1100 
L 75 1100 
L 75 1525 
L 2100 4450 
L 2475 4450 
L 2475 1525 
L 3075 1525 
L 3075 1100 
L 2475 1100 
L 2475 150 
L 2000 150 
L 2000 1100 
z
M 2000 1525 
L 2000 3500 
L 600 1525 
L 2000 1525 
z
" transform="scale(0.015625)"/>
     </defs>
     <use xlink:href="#KaiTi-35"/>
     <use xlink:href="#KaiTi-39" transform="translate(50 0)"/>
     <use xlink:href="#KaiTi-33" transform="translate(100 0)"/>
     <use xlink:href="#KaiTi-34" transform="translate(150 0)"/>
    </g>
   </g>
   <g id="text_37">
    <!-- 4108 -->
    <g transform="translate(245.098943 272.646334) scale(0.1 -0.1)">
     <use xlink:href="#KaiTi-34"/>
     <use xlink:href="#KaiTi-31" transform="translate(50 0)"/>
     <use xlink:href="#KaiTi-30" transform="translate(100 0)"/>
     <use xlink:href="#KaiTi-38" transform="translate(150 0)"/>
    </g>
   </g>
   <g id="text_38">
    <!-- 3081 -->
    <g transform="translate(272.62537 284.27225) scale(0.1 -0.1)">
     <use xlink:href="#KaiTi-33"/>
     <use xlink:href="#KaiTi-30" transform="translate(50 0)"/>
     <use xlink:href="#KaiTi-38" transform="translate(100 0)"/>
     <use xlink:href="#KaiTi-31" transform="translate(150 0)"/>
    </g>
   </g>
   <g id="text_39">
    <!-- 2184 -->
    <g transform="translate(300.151797 294.426532) scale(0.1 -0.1)">
     <use xlink:href="#KaiTi-32"/>
     <use xlink:href="#KaiTi-31" transform="translate(50 0)"/>
     <use xlink:href="#KaiTi-38" transform="translate(100 0)"/>
     <use xlink:href="#KaiTi-34" transform="translate(150 0)"/>
    </g>
   </g>
   <g id="text_40">
    <!-- 953 -->
    <g transform="translate(330.178224 308.361783) scale(0.1 -0.1)">
     <use xlink:href="#KaiTi-39"/>
     <use xlink:href="#KaiTi-35" transform="translate(50 0)"/>
     <use xlink:href="#KaiTi-33" transform="translate(100 0)"/>
    </g>
   </g>
   <g id="text_41">
    <!-- 948 -->
    <g transform="translate(357.704651 308.418385) scale(0.1 -0.1)">
     <use xlink:href="#KaiTi-39"/>
     <use xlink:href="#KaiTi-34" transform="translate(50 0)"/>
     <use xlink:href="#KaiTi-38" transform="translate(100 0)"/>
    </g>
   </g>
   <g id="text_42">
    <!-- 678 -->
    <g transform="translate(385.231078 311.474857) scale(0.1 -0.1)">
     <use xlink:href="#KaiTi-36"/>
     <use xlink:href="#KaiTi-37" transform="translate(50 0)"/>
     <use xlink:href="#KaiTi-38" transform="translate(100 0)"/>
    </g>
   </g>
   <g id="text_43">
    <!-- 659 -->
    <g transform="translate(412.757505 311.689943) scale(0.1 -0.1)">
     <use xlink:href="#KaiTi-36"/>
     <use xlink:href="#KaiTi-35" transform="translate(50 0)"/>
     <use xlink:href="#KaiTi-39" transform="translate(100 0)"/>
    </g>
   </g>
   <g id="text_44">
    <!-- 570 -->
    <g transform="translate(440.283932 312.697447) scale(0.1 -0.1)">
     <use xlink:href="#KaiTi-35"/>
     <use xlink:href="#KaiTi-37" transform="translate(50 0)"/>
     <use xlink:href="#KaiTi-30" transform="translate(100 0)"/>
    </g>
   </g>
   <g id="text_45">
    <!-- 562 -->
    <g transform="translate(467.810359 312.788009) scale(0.1 -0.1)">
     <use xlink:href="#KaiTi-35"/>
     <use xlink:href="#KaiTi-36" transform="translate(50 0)"/>
     <use xlink:href="#KaiTi-32" transform="translate(100 0)"/>
    </g>
   </g>
   <g id="text_46">
    <!-- 544 -->
    <g transform="translate(495.336786 312.991774) scale(0.1 -0.1)">
     <use xlink:href="#KaiTi-35"/>
     <use xlink:href="#KaiTi-34" transform="translate(50 0)"/>
     <use xlink:href="#KaiTi-34" transform="translate(100 0)"/>
    </g>
   </g>
   <g id="text_47">
    <!-- 497 -->
    <g transform="translate(522.863214 313.523826) scale(0.1 -0.1)">
     <use xlink:href="#KaiTi-34"/>
     <use xlink:href="#KaiTi-39" transform="translate(50 0)"/>
     <use xlink:href="#KaiTi-37" transform="translate(100 0)"/>
    </g>
   </g>
   <g id="text_48">
    <!-- 465 -->
    <g transform="translate(550.389641 313.886075) scale(0.1 -0.1)">
     <use xlink:href="#KaiTi-34"/>
     <use xlink:href="#KaiTi-36" transform="translate(50 0)"/>
     <use xlink:href="#KaiTi-35" transform="translate(100 0)"/>
    </g>
   </g>
   <g id="text_49">
    <!-- 425 -->
    <g transform="translate(577.916068 314.338886) scale(0.1 -0.1)">
     <use xlink:href="#KaiTi-34"/>
     <use xlink:href="#KaiTi-32" transform="translate(50 0)"/>
     <use xlink:href="#KaiTi-35" transform="translate(100 0)"/>
    </g>
   </g>
   <g id="text_50">
    <!-- 425 -->
    <g transform="translate(605.442495 314.338886) scale(0.1 -0.1)">
     <use xlink:href="#KaiTi-34"/>
     <use xlink:href="#KaiTi-32" transform="translate(50 0)"/>
     <use xlink:href="#KaiTi-35" transform="translate(100 0)"/>
    </g>
   </g>
   <g id="text_51">
    <!-- 407 -->
    <g transform="translate(632.968922 314.54265) scale(0.1 -0.1)">
     <use xlink:href="#KaiTi-34"/>
     <use xlink:href="#KaiTi-30" transform="translate(50 0)"/>
     <use xlink:href="#KaiTi-37" transform="translate(100 0)"/>
    </g>
   </g>
   <g id="text_52">
    <!-- 380 -->
    <g transform="translate(660.495349 314.848298) scale(0.1 -0.1)">
     <use xlink:href="#KaiTi-33"/>
     <use xlink:href="#KaiTi-38" transform="translate(50 0)"/>
     <use xlink:href="#KaiTi-30" transform="translate(100 0)"/>
    </g>
   </g>
   <g id="text_53">
    <!-- 346 -->
    <g transform="translate(688.021776 315.233187) scale(0.1 -0.1)">
     <use xlink:href="#KaiTi-33"/>
     <use xlink:href="#KaiTi-34" transform="translate(50 0)"/>
     <use xlink:href="#KaiTi-36" transform="translate(100 0)"/>
    </g>
   </g>
   <g id="text_54">
    <!-- 342 -->
    <g transform="translate(715.548203 315.278468) scale(0.1 -0.1)">
     <use xlink:href="#KaiTi-33"/>
     <use xlink:href="#KaiTi-34" transform="translate(50 0)"/>
     <use xlink:href="#KaiTi-32" transform="translate(100 0)"/>
    </g>
   </g>
   <g id="text_55">
    <!-- 340 -->
    <g transform="translate(743.07463 315.301108) scale(0.1 -0.1)">
     <use xlink:href="#KaiTi-33"/>
     <use xlink:href="#KaiTi-34" transform="translate(50 0)"/>
     <use xlink:href="#KaiTi-30" transform="translate(100 0)"/>
    </g>
   </g>
   <g id="text_56">
    <!-- 327 -->
    <g transform="translate(770.601057 315.448272) scale(0.1 -0.1)">
     <use xlink:href="#KaiTi-33"/>
     <use xlink:href="#KaiTi-32" transform="translate(50 0)"/>
     <use xlink:href="#KaiTi-37" transform="translate(100 0)"/>
    </g>
   </g>
   <g id="text_57">
    <!-- 284 -->
    <g transform="translate(798.127484 315.935044) scale(0.1 -0.1)">
     <use xlink:href="#KaiTi-32"/>
     <use xlink:href="#KaiTi-38" transform="translate(50 0)"/>
     <use xlink:href="#KaiTi-34" transform="translate(100 0)"/>
    </g>
   </g>
   <g id="text_58">
    <!-- 264 -->
    <g transform="translate(825.653911 316.161449) scale(0.1 -0.1)">
     <use xlink:href="#KaiTi-32"/>
     <use xlink:href="#KaiTi-36" transform="translate(50 0)"/>
     <use xlink:href="#KaiTi-34" transform="translate(100 0)"/>
    </g>
   </g>
   <g id="text_59">
    <!-- 6211 -->
    <g transform="translate(850.680338 248.839807) scale(0.1 -0.1)">
     <use xlink:href="#KaiTi-36"/>
     <use xlink:href="#KaiTi-32" transform="translate(50 0)"/>
     <use xlink:href="#KaiTi-31" transform="translate(100 0)"/>
     <use xlink:href="#KaiTi-31" transform="translate(150 0)"/>
    </g>
   </g>
   <g id="text_60">
    <!-- Codeforces主要用户分布 -->
    <g transform="translate(406.6 37.2) scale(0.2 -0.2)">
     <defs>
      <path id="KaiTi-66" d="M 2850 3825 
Q 2725 3900 2550 3950 
Q 2375 4000 2100 4000 
Q 1825 4000 1725 3862 
Q 1625 3725 1625 3525 
L 1625 2925 
L 2650 2925 
L 2650 2525 
L 1625 2525 
L 1625 125 
L 1125 125 
L 1125 2525 
L 275 2525 
L 275 2925 
L 1125 2925 
L 1125 3500 
Q 1125 3950 1400 4200 
Q 1675 4450 2125 4450 
Q 2400 4450 2562 4412 
Q 2725 4375 2850 4325 
L 2850 3825 
z
" transform="scale(0.015625)"/>
      <path id="KaiTi-4e3b" d="M 3150 3050 
Q 3500 2825 3425 2712 
Q 3350 2600 3350 1950 
Q 3825 2100 4075 2100 
Q 4350 2100 4437 1962 
Q 4525 1825 4125 1737 
Q 3725 1650 3350 1600 
Q 3325 950 3325 450 
Q 4525 550 4950 625 
Q 5375 700 5687 550 
Q 6000 400 6000 250 
Q 6000 125 5375 200 
Q 4750 275 3762 200 
Q 2775 125 2062 0 
Q 1350 -125 1100 -187 
Q 850 -250 612 -37 
Q 375 175 525 175 
L 1000 175 
Q 1300 175 3000 400 
L 3000 1525 
L 2350 1450 
Q 2150 1425 1850 1537 
Q 1550 1650 2000 1700 
Q 2450 1750 3000 1875 
Q 3000 2450 2975 2650 
Q 2950 2850 2900 2975 
Q 2525 2975 2250 2950 
Q 1975 2925 1762 3012 
Q 1550 3100 1812 3125 
Q 2075 3150 2537 3250 
Q 3000 3350 3525 3487 
Q 4050 3625 4312 3650 
Q 4575 3675 4675 3562 
Q 4775 3450 4637 3375 
Q 4500 3300 4025 3212 
Q 3550 3125 3150 3050 
z
M 3050 4375 
Q 2850 4550 2725 4712 
Q 2600 4875 3025 4825 
Q 3450 4775 3600 4575 
Q 3750 4375 3712 4162 
Q 3675 3950 3475 4075 
Q 3275 4200 3050 4375 
z
" transform="scale(0.015625)"/>
      <path id="KaiTi-8981" d="M 3525 4300 
Q 3825 4125 3800 4000 
Q 3775 3875 3675 3600 
Q 4275 3675 4412 3712 
Q 4550 3750 4787 3600 
Q 5025 3450 5050 3375 
Q 5075 3300 4950 3225 
Q 4825 3150 4675 2937 
Q 4525 2725 4362 2500 
Q 4200 2275 4175 2500 
Q 3525 2425 2850 2350 
Q 3000 2250 2962 2175 
Q 2925 2100 2750 1775 
L 3450 1825 
Q 3450 1975 3475 2000 
Q 3500 2025 3800 1875 
Q 4750 1975 5075 2012 
Q 5400 2050 5687 1950 
Q 5975 1850 6087 1675 
Q 6200 1500 5650 1587 
Q 5100 1675 4700 1675 
L 3850 1675 
Q 3700 1225 3475 875 
Q 4675 350 4850 37 
Q 5025 -275 4987 -450 
Q 4950 -625 4637 -362 
Q 4325 -100 4100 75 
Q 3875 250 3300 675 
Q 3025 375 2737 225 
Q 2450 75 2137 -12 
Q 1825 -100 1550 -150 
Q 1275 -200 1000 -175 
Q 725 -150 1225 -37 
Q 1725 75 2200 287 
Q 2675 500 3000 825 
Q 2375 1050 2225 1075 
Q 2075 1100 2137 1187 
Q 2200 1275 2350 1550 
Q 1250 1375 1012 1312 
Q 775 1250 537 1412 
Q 300 1575 425 1587 
Q 550 1600 737 1612 
Q 925 1625 1362 1662 
Q 1800 1700 2450 1775 
Q 2525 1975 2575 2137 
Q 2625 2300 2600 2300 
L 2075 2250 
Q 2000 1950 1800 2475 
Q 1600 3000 1475 3175 
Q 1350 3350 1575 3325 
Q 1800 3300 1962 3325 
Q 2125 3350 2475 3425 
Q 2425 4075 2325 4125 
Q 2125 4100 1975 4212 
Q 1825 4325 2150 4362 
Q 2475 4400 2775 4462 
Q 3075 4525 3412 4600 
Q 3750 4675 3962 4700 
Q 4175 4725 4337 4600 
Q 4500 4475 4212 4412 
Q 3925 4350 3525 4300 
z
M 4175 2700 
Q 4350 2975 4387 3162 
Q 4425 3350 4400 3425 
Q 4375 3500 4137 3487 
Q 3900 3475 3625 3425 
L 3350 2625 
L 4175 2700 
z
M 3350 3550 
Q 3375 3775 3375 3975 
Q 3375 4175 3325 4275 
Q 2975 4200 2575 4150 
Q 2800 4025 2762 3887 
Q 2725 3750 2725 3450 
L 3350 3550 
z
M 3150 1000 
Q 3300 1200 3450 1650 
L 2650 1575 
Q 2550 1400 2500 1300 
Q 2450 1200 2550 1175 
Q 2650 1150 3150 1000 
z
M 3125 2600 
Q 3300 3200 3300 3375 
L 2725 3275 
Q 2700 2975 2700 2500 
L 3125 2600 
z
M 1900 3125 
Q 1950 2975 2000 2787 
Q 2050 2600 2075 2400 
L 2500 2450 
L 2475 3225 
L 1900 3125 
z
" transform="scale(0.015625)"/>
      <path id="KaiTi-7528" d="M 3225 4275 
Q 3575 4100 3487 3937 
Q 3400 3775 3400 3250 
Q 3675 3300 3775 3300 
Q 3900 3300 4012 3200 
Q 4125 3100 3837 3025 
Q 3550 2950 3400 2900 
L 3375 2175 
Q 3775 2275 3937 2287 
Q 4100 2300 4187 2187 
Q 4275 2075 4050 2000 
Q 3825 1925 3375 1800 
Q 3375 1175 3300 600 
Q 3225 25 3150 12 
Q 3075 0 3050 325 
Q 3025 650 3050 1750 
Q 2750 1700 2575 1700 
Q 2425 1700 2237 1775 
Q 2050 1850 2237 1887 
Q 2425 1925 3075 2100 
L 3075 2850 
Q 2725 2775 2500 2862 
Q 2275 2950 2450 2987 
Q 2625 3025 3075 3125 
Q 3075 3725 3000 4225 
Q 2500 4175 2100 4125 
Q 2075 2350 2012 1825 
Q 1950 1300 1787 750 
Q 1625 200 1175 -112 
Q 725 -425 1062 -12 
Q 1400 400 1575 1212 
Q 1750 2025 1750 2575 
L 1750 3600 
Q 1750 4075 1612 4250 
Q 1475 4425 1775 4350 
Q 2075 4275 2575 4350 
Q 3075 4425 3662 4525 
Q 4250 4625 4387 4687 
Q 4525 4750 4775 4637 
Q 5025 4525 5200 4387 
Q 5375 4250 5275 4100 
Q 5175 3950 5150 3725 
Q 5125 3500 5125 2775 
Q 5125 2050 5162 1375 
Q 5200 700 5237 425 
Q 5275 150 5050 -237 
Q 4825 -625 4712 -287 
Q 4600 50 4225 262 
Q 3850 475 4287 375 
Q 4725 275 4762 562 
Q 4800 850 4800 1250 
Q 4800 1675 4762 2862 
Q 4725 4050 4575 4225 
Q 4425 4400 4150 4387 
Q 3875 4375 3225 4275 
z
" transform="scale(0.015625)"/>
      <path id="KaiTi-6237" d="M 4500 2700 
Q 4950 2325 4400 2287 
Q 3850 2250 2425 2050 
Q 2325 975 2000 412 
Q 1675 -150 1075 -387 
Q 475 -625 862 -375 
Q 1250 -125 1525 237 
Q 1800 600 1912 1137 
Q 2025 1675 2075 2412 
Q 2125 3150 1987 3387 
Q 1850 3625 2037 3612 
Q 2225 3600 2362 3537 
Q 2500 3475 2925 3537 
Q 3350 3600 3787 3687 
Q 4225 3775 4337 3862 
Q 4450 3950 4662 3875 
Q 4875 3800 5087 3662 
Q 5300 3525 5000 3337 
Q 4700 3150 4500 2700 
z
M 2425 2275 
Q 3625 2450 4125 2575 
Q 4250 3050 4275 3300 
Q 4300 3550 3925 3487 
Q 3550 3425 2475 3275 
Q 2475 2775 2425 2275 
z
M 3450 4450 
Q 3275 4575 3050 4825 
Q 2825 5075 3162 5037 
Q 3500 5000 3737 4850 
Q 3975 4700 3925 4475 
Q 3875 4250 3750 4300 
Q 3625 4350 3450 4450 
z
" transform="scale(0.015625)"/>
      <path id="KaiTi-5206" d="M 4250 2425 
Q 4625 2175 4462 2025 
Q 4300 1875 4200 1600 
Q 4125 625 3900 200 
Q 3675 -225 3325 -387 
Q 2975 -550 2962 -300 
Q 2950 -50 2762 212 
Q 2575 475 2737 400 
Q 2900 325 3200 200 
Q 3475 200 3637 662 
Q 3800 1125 3825 1512 
Q 3850 1900 3825 2075 
Q 3800 2250 3612 2237 
Q 3425 2225 2600 2075 
Q 2925 1925 2800 1775 
Q 2675 1625 2612 1450 
Q 2550 1275 2262 862 
Q 1975 450 1600 162 
Q 1225 -125 950 -162 
Q 675 -200 887 -75 
Q 1100 50 1425 350 
Q 1750 650 2050 1162 
Q 2350 1675 2300 2000 
Q 2075 1950 1875 1887 
Q 1675 1825 1450 2000 
Q 1250 2150 1600 2162 
Q 1950 2175 2750 2300 
Q 3475 2425 3662 2550 
Q 3850 2675 4250 2425 
z
M 2775 5075 
Q 3150 5075 3325 4787 
Q 3500 4500 3950 4025 
Q 4400 3550 4825 3187 
Q 5250 2825 5762 2625 
Q 6275 2425 6062 2375 
Q 5850 2325 5300 2350 
Q 4750 2375 4625 2550 
Q 4500 2725 4187 3175 
Q 3875 3625 3662 3912 
Q 3450 4200 3250 4475 
Q 3050 4750 2912 4825 
Q 2775 4900 2687 4925 
Q 2600 4950 2575 5012 
Q 2550 5075 2775 5075 
z
M 2350 3575 
Q 2000 3050 1637 2700 
Q 1275 2350 950 2137 
Q 625 1925 475 1887 
Q 325 1850 475 1987 
Q 625 2125 950 2412 
Q 1275 2700 1600 3162 
Q 1925 3625 1962 3825 
Q 2000 4025 1962 4150 
Q 1925 4275 2050 4275 
Q 2175 4275 2462 4162 
Q 2750 4050 2600 3912 
Q 2450 3775 2350 3575 
z
" transform="scale(0.015625)"/>
      <path id="KaiTi-5e03" d="M 2625 2350 
Q 2625 2000 2612 1587 
Q 2600 1175 2500 875 
Q 2400 575 2275 850 
Q 2150 1125 2225 1287 
Q 2300 1450 2325 1887 
Q 2350 2325 2250 2550 
Q 2000 2175 1625 1825 
Q 1250 1475 700 1237 
Q 150 1000 687 1375 
Q 1225 1750 1725 2362 
Q 2225 2975 2625 3725 
Q 1775 3625 1500 3562 
Q 1225 3500 975 3712 
Q 725 3925 1062 3900 
Q 1400 3875 2750 4025 
Q 2850 4300 2925 4575 
Q 3000 4850 2962 5025 
Q 2925 5200 3100 5125 
Q 3275 5050 3412 4950 
Q 3550 4850 3450 4712 
Q 3350 4575 3175 4075 
Q 3875 4150 4187 4187 
Q 4500 4225 4912 4287 
Q 5325 4350 5537 4250 
Q 5750 4150 5800 4025 
Q 5850 3900 5512 3925 
Q 5175 3950 4562 3912 
Q 3950 3875 3075 3800 
Q 2575 2975 2375 2700 
Q 2550 2575 2725 2575 
Q 2900 2575 3475 2650 
Q 3475 3350 3362 3550 
Q 3250 3750 3475 3700 
Q 3700 3650 3812 3587 
Q 3925 3525 3875 3375 
Q 3825 3225 3800 2675 
Q 4425 2750 4575 2812 
Q 4725 2875 4887 2800 
Q 5050 2725 5187 2625 
Q 5325 2525 5225 2375 
Q 5125 2225 5112 1837 
Q 5100 1450 5037 1237 
Q 4975 1025 4800 825 
Q 4625 625 4575 825 
Q 4525 1025 4200 1262 
Q 3875 1500 4225 1412 
Q 4575 1325 4662 1437 
Q 4750 1550 4750 1975 
Q 4750 2425 4662 2487 
Q 4575 2550 4362 2537 
Q 4150 2525 3800 2450 
Q 3800 850 3787 512 
Q 3775 175 3725 -262 
Q 3675 -700 3587 -687 
Q 3500 -675 3487 -112 
Q 3475 450 3475 2425 
Q 2900 2375 2625 2350 
z
" transform="scale(0.015625)"/>
     </defs>
     <use xlink:href="#KaiTi-43"/>
     <use xlink:href="#KaiTi-6f" transform="translate(50 0)"/>
     <use xlink:href="#KaiTi-64" transform="translate(100 0)"/>
     <use xlink:href="#KaiTi-65" transform="translate(150 0)"/>
     <use xlink:href="#KaiTi-66" transform="translate(200 0)"/>
     <use xlink:href="#KaiTi-6f" transform="translate(250 0)"/>
     <use xlink:href="#KaiTi-72" transform="translate(300 0)"/>
     <use xlink:href="#KaiTi-63" transform="translate(350 0)"/>
     <use xlink:href="#KaiTi-65" transform="translate(400 0)"/>
     <use xlink:href="#KaiTi-73" transform="translate(450 0)"/>
     <use xlink:href="#KaiTi-4e3b" transform="translate(500 0)"/>
     <use xlink:href="#KaiTi-8981" transform="translate(600 0)"/>
     <use xlink:href="#KaiTi-7528" transform="translate(700 0)"/>
     <use xlink:href="#KaiTi-6237" transform="translate(800 0)"/>
     <use xlink:href="#KaiTi-5206" transform="translate(900 0)"/>
     <use xlink:href="#KaiTi-5e03" transform="translate(1000 0)"/>
    </g>
   </g>
  </g>
 </g>
 <defs>
  <clipPath id="pb715833d35">
   <rect x="126" y="43.2" width="781.2" height="277.2"/>
  </clipPath>
 </defs>
</svg>
