<?xml version="1.0" encoding="utf-8" standalone="no"?>
<!DOCTYPE svg PUBLIC "-//W3C//DTD SVG 1.1//EN"
  "http://www.w3.org/Graphics/SVG/1.1/DTD/svg11.dtd">
<svg xmlns:xlink="http://www.w3.org/1999/xlink" width="625.704687pt" height="340.5375pt" viewBox="0 0 625.704687 340.5375" xmlns="http://www.w3.org/2000/svg" version="1.1">
 <metadata>
  <rdf:RDF xmlns:dc="http://purl.org/dc/elements/1.1/" xmlns:cc="http://creativecommons.org/ns#" xmlns:rdf="http://www.w3.org/1999/02/22-rdf-syntax-ns#">
   <cc:Work>
    <dc:type rdf:resource="http://purl.org/dc/dcmitype/StillImage"/>
    <dc:date>2024-12-28T14:55:38.319506</dc:date>
    <dc:format>image/svg+xml</dc:format>
    <dc:creator>
     <cc:Agent>
      <dc:title>Matplotlib v3.10.0, https://matplotlib.org/</dc:title>
     </cc:Agent>
    </dc:creator>
   </cc:Work>
  </rdf:RDF>
 </metadata>
 <defs>
  <style type="text/css">*{stroke-linejoin: round; stroke-linecap: butt}</style>
 </defs>
 <g id="figure_1">
  <g id="patch_1">
   <path d="M 0 340.5375 
L 625.704687 340.5375 
L 625.704687 0 
L 0 0 
z
" style="fill: #ffffff"/>
  </g>
  <g id="axes_1">
   <g id="patch_2">
    <path d="M 60.504687 300.15 
L 618.504688 300.15 
L 618.504688 22.95 
L 60.504687 22.95 
z
" style="fill: #ffffff"/>
   </g>
   <g id="patch_3">
    <path d="M 85.868324 300.15 
L 90.941051 300.15 
L 90.941051 36.15 
L 85.868324 36.15 
z
" clip-path="url(#p8b101820e5)" style="fill: #87ceeb"/>
   </g>
   <g id="patch_4">
    <path d="M 90.941051 300.15 
L 96.013778 300.15 
L 96.013778 300.15 
L 90.941051 300.15 
z
" clip-path="url(#p8b101820e5)" style="fill: #87ceeb"/>
   </g>
   <g id="patch_5">
    <path d="M 96.013778 300.15 
L 101.086506 300.15 
L 101.086506 300.15 
L 96.013778 300.15 
z
" clip-path="url(#p8b101820e5)" style="fill: #87ceeb"/>
   </g>
   <g id="patch_6">
    <path d="M 101.086506 300.15 
L 106.159233 300.15 
L 106.159233 209.145595 
L 101.086506 209.145595 
z
" clip-path="url(#p8b101820e5)" style="fill: #87ceeb"/>
   </g>
   <g id="patch_7">
    <path d="M 106.159233 300.15 
L 111.23196 300.15 
L 111.23196 300.15 
L 106.159233 300.15 
z
" clip-path="url(#p8b101820e5)" style="fill: #87ceeb"/>
   </g>
   <g id="patch_8">
    <path d="M 111.23196 300.15 
L 116.304688 300.15 
L 116.304688 300.15 
L 111.23196 300.15 
z
" clip-path="url(#p8b101820e5)" style="fill: #87ceeb"/>
   </g>
   <g id="patch_9">
    <path d="M 116.304688 300.15 
L 121.377415 300.15 
L 121.377415 300.15 
L 116.304688 300.15 
z
" clip-path="url(#p8b101820e5)" style="fill: #87ceeb"/>
   </g>
   <g id="patch_10">
    <path d="M 121.377415 300.15 
L 126.450142 300.15 
L 126.450142 195.771145 
L 121.377415 195.771145 
z
" clip-path="url(#p8b101820e5)" style="fill: #87ceeb"/>
   </g>
   <g id="patch_11">
    <path d="M 126.450142 300.15 
L 131.522869 300.15 
L 131.522869 300.15 
L 126.450142 300.15 
z
" clip-path="url(#p8b101820e5)" style="fill: #87ceeb"/>
   </g>
   <g id="patch_12">
    <path d="M 131.522869 300.15 
L 136.595597 300.15 
L 136.595597 300.15 
L 131.522869 300.15 
z
" clip-path="url(#p8b101820e5)" style="fill: #87ceeb"/>
   </g>
   <g id="patch_13">
    <path d="M 136.595597 300.15 
L 141.668324 300.15 
L 141.668324 300.15 
L 136.595597 300.15 
z
" clip-path="url(#p8b101820e5)" style="fill: #87ceeb"/>
   </g>
   <g id="patch_14">
    <path d="M 141.668324 300.15 
L 146.741051 300.15 
L 146.741051 187.339427 
L 141.668324 187.339427 
z
" clip-path="url(#p8b101820e5)" style="fill: #87ceeb"/>
   </g>
   <g id="patch_15">
    <path d="M 146.741051 300.15 
L 151.813778 300.15 
L 151.813778 300.15 
L 146.741051 300.15 
z
" clip-path="url(#p8b101820e5)" style="fill: #87ceeb"/>
   </g>
   <g id="patch_16">
    <path d="M 151.813778 300.15 
L 156.886506 300.15 
L 156.886506 300.15 
L 151.813778 300.15 
z
" clip-path="url(#p8b101820e5)" style="fill: #87ceeb"/>
   </g>
   <g id="patch_17">
    <path d="M 156.886506 300.15 
L 161.959233 300.15 
L 161.959233 181.815198 
L 156.886506 181.815198 
z
" clip-path="url(#p8b101820e5)" style="fill: #87ceeb"/>
   </g>
   <g id="patch_18">
    <path d="M 161.959233 300.15 
L 167.03196 300.15 
L 167.03196 300.15 
L 161.959233 300.15 
z
" clip-path="url(#p8b101820e5)" style="fill: #87ceeb"/>
   </g>
   <g id="patch_19">
    <path d="M 167.03196 300.15 
L 172.104688 300.15 
L 172.104688 300.15 
L 167.03196 300.15 
z
" clip-path="url(#p8b101820e5)" style="fill: #87ceeb"/>
   </g>
   <g id="patch_20">
    <path d="M 172.104688 300.15 
L 177.177415 300.15 
L 177.177415 300.15 
L 172.104688 300.15 
z
" clip-path="url(#p8b101820e5)" style="fill: #87ceeb"/>
   </g>
   <g id="patch_21">
    <path d="M 177.177415 300.15 
L 182.250142 300.15 
L 182.250142 179.489207 
L 177.177415 179.489207 
z
" clip-path="url(#p8b101820e5)" style="fill: #87ceeb"/>
   </g>
   <g id="patch_22">
    <path d="M 182.250142 300.15 
L 187.322869 300.15 
L 187.322869 300.15 
L 182.250142 300.15 
z
" clip-path="url(#p8b101820e5)" style="fill: #87ceeb"/>
   </g>
   <g id="patch_23">
    <path d="M 187.322869 300.15 
L 192.395597 300.15 
L 192.395597 300.15 
L 187.322869 300.15 
z
" clip-path="url(#p8b101820e5)" style="fill: #87ceeb"/>
   </g>
   <g id="patch_24">
    <path d="M 192.395597 300.15 
L 197.468324 300.15 
L 197.468324 300.15 
L 192.395597 300.15 
z
" clip-path="url(#p8b101820e5)" style="fill: #87ceeb"/>
   </g>
   <g id="patch_25">
    <path d="M 197.468324 300.15 
L 202.541051 300.15 
L 202.541051 179.779956 
L 197.468324 179.779956 
z
" clip-path="url(#p8b101820e5)" style="fill: #87ceeb"/>
   </g>
   <g id="patch_26">
    <path d="M 202.541051 300.15 
L 207.613778 300.15 
L 207.613778 300.15 
L 202.541051 300.15 
z
" clip-path="url(#p8b101820e5)" style="fill: #87ceeb"/>
   </g>
   <g id="patch_27">
    <path d="M 207.613778 300.15 
L 212.686506 300.15 
L 212.686506 300.15 
L 207.613778 300.15 
z
" clip-path="url(#p8b101820e5)" style="fill: #87ceeb"/>
   </g>
   <g id="patch_28">
    <path d="M 212.686506 300.15 
L 217.759233 300.15 
L 217.759233 174.837225 
L 212.686506 174.837225 
z
" clip-path="url(#p8b101820e5)" style="fill: #87ceeb"/>
   </g>
   <g id="patch_29">
    <path d="M 217.759233 300.15 
L 222.83196 300.15 
L 222.83196 300.15 
L 217.759233 300.15 
z
" clip-path="url(#p8b101820e5)" style="fill: #87ceeb"/>
   </g>
   <g id="patch_30">
    <path d="M 222.83196 300.15 
L 227.904688 300.15 
L 227.904688 300.15 
L 222.83196 300.15 
z
" clip-path="url(#p8b101820e5)" style="fill: #87ceeb"/>
   </g>
   <g id="patch_31">
    <path d="M 227.904688 300.15 
L 232.977415 300.15 
L 232.977415 300.15 
L 227.904688 300.15 
z
" clip-path="url(#p8b101820e5)" style="fill: #87ceeb"/>
   </g>
   <g id="patch_32">
    <path d="M 232.977415 300.15 
L 238.050142 300.15 
L 238.050142 159.718282 
L 232.977415 159.718282 
z
" clip-path="url(#p8b101820e5)" style="fill: #87ceeb"/>
   </g>
   <g id="patch_33">
    <path d="M 238.050142 300.15 
L 243.122869 300.15 
L 243.122869 300.15 
L 238.050142 300.15 
z
" clip-path="url(#p8b101820e5)" style="fill: #87ceeb"/>
   </g>
   <g id="patch_34">
    <path d="M 243.122869 300.15 
L 248.195597 300.15 
L 248.195597 300.15 
L 243.122869 300.15 
z
" clip-path="url(#p8b101820e5)" style="fill: #87ceeb"/>
   </g>
   <g id="patch_35">
    <path d="M 248.195597 300.15 
L 253.268324 300.15 
L 253.268324 300.15 
L 248.195597 300.15 
z
" clip-path="url(#p8b101820e5)" style="fill: #87ceeb"/>
   </g>
   <g id="patch_36">
    <path d="M 253.268324 300.15 
L 258.341051 300.15 
L 258.341051 163.498018 
L 253.268324 163.498018 
z
" clip-path="url(#p8b101820e5)" style="fill: #87ceeb"/>
   </g>
   <g id="patch_37">
    <path d="M 258.341051 300.15 
L 263.413778 300.15 
L 263.413778 300.15 
L 258.341051 300.15 
z
" clip-path="url(#p8b101820e5)" style="fill: #87ceeb"/>
   </g>
   <g id="patch_38">
    <path d="M 263.413778 300.15 
L 268.486506 300.15 
L 268.486506 300.15 
L 263.413778 300.15 
z
" clip-path="url(#p8b101820e5)" style="fill: #87ceeb"/>
   </g>
   <g id="patch_39">
    <path d="M 268.486506 300.15 
L 273.559233 300.15 
L 273.559233 300.15 
L 268.486506 300.15 
z
" clip-path="url(#p8b101820e5)" style="fill: #87ceeb"/>
   </g>
   <g id="patch_40">
    <path d="M 273.559233 300.15 
L 278.63196 300.15 
L 278.63196 169.894493 
L 273.559233 169.894493 
z
" clip-path="url(#p8b101820e5)" style="fill: #87ceeb"/>
   </g>
   <g id="patch_41">
    <path d="M 278.63196 300.15 
L 283.704688 300.15 
L 283.704688 300.15 
L 278.63196 300.15 
z
" clip-path="url(#p8b101820e5)" style="fill: #87ceeb"/>
   </g>
   <g id="patch_42">
    <path d="M 283.704688 300.15 
L 288.777415 300.15 
L 288.777415 300.15 
L 283.704688 300.15 
z
" clip-path="url(#p8b101820e5)" style="fill: #87ceeb"/>
   </g>
   <g id="patch_43">
    <path d="M 288.777415 300.15 
L 293.850142 300.15 
L 293.850142 157.973789 
L 288.777415 157.973789 
z
" clip-path="url(#p8b101820e5)" style="fill: #87ceeb"/>
   </g>
   <g id="patch_44">
    <path d="M 293.850142 300.15 
L 298.922869 300.15 
L 298.922869 300.15 
L 293.850142 300.15 
z
" clip-path="url(#p8b101820e5)" style="fill: #87ceeb"/>
   </g>
   <g id="patch_45">
    <path d="M 298.922869 300.15 
L 303.995597 300.15 
L 303.995597 300.15 
L 298.922869 300.15 
z
" clip-path="url(#p8b101820e5)" style="fill: #87ceeb"/>
   </g>
   <g id="patch_46">
    <path d="M 303.995597 300.15 
L 309.068324 300.15 
L 309.068324 300.15 
L 303.995597 300.15 
z
" clip-path="url(#p8b101820e5)" style="fill: #87ceeb"/>
   </g>
   <g id="patch_47">
    <path d="M 309.068324 300.15 
L 314.141051 300.15 
L 314.141051 169.894493 
L 309.068324 169.894493 
z
" clip-path="url(#p8b101820e5)" style="fill: #87ceeb"/>
   </g>
   <g id="patch_48">
    <path d="M 314.141051 300.15 
L 319.213778 300.15 
L 319.213778 300.15 
L 314.141051 300.15 
z
" clip-path="url(#p8b101820e5)" style="fill: #87ceeb"/>
   </g>
   <g id="patch_49">
    <path d="M 319.213778 300.15 
L 324.286506 300.15 
L 324.286506 300.15 
L 319.213778 300.15 
z
" clip-path="url(#p8b101820e5)" style="fill: #87ceeb"/>
   </g>
   <g id="patch_50">
    <path d="M 324.286506 300.15 
L 329.359233 300.15 
L 329.359233 300.15 
L 324.286506 300.15 
z
" clip-path="url(#p8b101820e5)" style="fill: #87ceeb"/>
   </g>
   <g id="patch_51">
    <path d="M 329.359233 300.15 
L 334.43196 300.15 
L 334.43196 180.070705 
L 329.359233 180.070705 
z
" clip-path="url(#p8b101820e5)" style="fill: #87ceeb"/>
   </g>
   <g id="patch_52">
    <path d="M 334.43196 300.15 
L 339.504687 300.15 
L 339.504687 300.15 
L 334.43196 300.15 
z
" clip-path="url(#p8b101820e5)" style="fill: #87ceeb"/>
   </g>
   <g id="patch_53">
    <path d="M 339.504688 300.15 
L 344.577415 300.15 
L 344.577415 300.15 
L 339.504688 300.15 
z
" clip-path="url(#p8b101820e5)" style="fill: #87ceeb"/>
   </g>
   <g id="patch_54">
    <path d="M 344.577415 300.15 
L 349.650142 300.15 
L 349.650142 175.709471 
L 344.577415 175.709471 
z
" clip-path="url(#p8b101820e5)" style="fill: #87ceeb"/>
   </g>
   <g id="patch_55">
    <path d="M 349.650142 300.15 
L 354.722869 300.15 
L 354.722869 300.15 
L 349.650142 300.15 
z
" clip-path="url(#p8b101820e5)" style="fill: #87ceeb"/>
   </g>
   <g id="patch_56">
    <path d="M 354.722869 300.15 
L 359.795597 300.15 
L 359.795597 300.15 
L 354.722869 300.15 
z
" clip-path="url(#p8b101820e5)" style="fill: #87ceeb"/>
   </g>
   <g id="patch_57">
    <path d="M 359.795597 300.15 
L 364.868324 300.15 
L 364.868324 300.15 
L 359.795597 300.15 
z
" clip-path="url(#p8b101820e5)" style="fill: #87ceeb"/>
   </g>
   <g id="patch_58">
    <path d="M 364.868324 300.15 
L 369.941051 300.15 
L 369.941051 192.863656 
L 364.868324 192.863656 
z
" clip-path="url(#p8b101820e5)" style="fill: #87ceeb"/>
   </g>
   <g id="patch_59">
    <path d="M 369.941051 300.15 
L 375.013778 300.15 
L 375.013778 300.15 
L 369.941051 300.15 
z
" clip-path="url(#p8b101820e5)" style="fill: #87ceeb"/>
   </g>
   <g id="patch_60">
    <path d="M 375.013778 300.15 
L 380.086506 300.15 
L 380.086506 300.15 
L 375.013778 300.15 
z
" clip-path="url(#p8b101820e5)" style="fill: #87ceeb"/>
   </g>
   <g id="patch_61">
    <path d="M 380.086506 300.15 
L 385.159233 300.15 
L 385.159233 300.15 
L 380.086506 300.15 
z
" clip-path="url(#p8b101820e5)" style="fill: #87ceeb"/>
   </g>
   <g id="patch_62">
    <path d="M 385.159233 300.15 
L 390.23196 300.15 
L 390.23196 176.290969 
L 385.159233 176.290969 
z
" clip-path="url(#p8b101820e5)" style="fill: #87ceeb"/>
   </g>
   <g id="patch_63">
    <path d="M 390.23196 300.15 
L 395.304688 300.15 
L 395.304688 300.15 
L 390.23196 300.15 
z
" clip-path="url(#p8b101820e5)" style="fill: #87ceeb"/>
   </g>
   <g id="patch_64">
    <path d="M 395.304688 300.15 
L 400.377415 300.15 
L 400.377415 300.15 
L 395.304688 300.15 
z
" clip-path="url(#p8b101820e5)" style="fill: #87ceeb"/>
   </g>
   <g id="patch_65">
    <path d="M 400.377415 300.15 
L 405.450142 300.15 
L 405.450142 190.246916 
L 400.377415 190.246916 
z
" clip-path="url(#p8b101820e5)" style="fill: #87ceeb"/>
   </g>
   <g id="patch_66">
    <path d="M 405.450142 300.15 
L 410.522869 300.15 
L 410.522869 300.15 
L 405.450142 300.15 
z
" clip-path="url(#p8b101820e5)" style="fill: #87ceeb"/>
   </g>
   <g id="patch_67">
    <path d="M 410.522869 300.15 
L 415.595597 300.15 
L 415.595597 300.15 
L 410.522869 300.15 
z
" clip-path="url(#p8b101820e5)" style="fill: #87ceeb"/>
   </g>
   <g id="patch_68">
    <path d="M 415.595597 300.15 
L 420.668324 300.15 
L 420.668324 300.15 
L 415.595597 300.15 
z
" clip-path="url(#p8b101820e5)" style="fill: #87ceeb"/>
   </g>
   <g id="patch_69">
    <path d="M 420.668324 300.15 
L 425.741051 300.15 
L 425.741051 212.92533 
L 420.668324 212.92533 
z
" clip-path="url(#p8b101820e5)" style="fill: #87ceeb"/>
   </g>
   <g id="patch_70">
    <path d="M 425.741051 300.15 
L 430.813778 300.15 
L 430.813778 300.15 
L 425.741051 300.15 
z
" clip-path="url(#p8b101820e5)" style="fill: #87ceeb"/>
   </g>
   <g id="patch_71">
    <path d="M 430.813778 300.15 
L 435.886506 300.15 
L 435.886506 300.15 
L 430.813778 300.15 
z
" clip-path="url(#p8b101820e5)" style="fill: #87ceeb"/>
   </g>
   <g id="patch_72">
    <path d="M 435.886506 300.15 
L 440.959233 300.15 
L 440.959233 300.15 
L 435.886506 300.15 
z
" clip-path="url(#p8b101820e5)" style="fill: #87ceeb"/>
   </g>
   <g id="patch_73">
    <path d="M 440.959233 300.15 
L 446.03196 300.15 
L 446.03196 219.321806 
L 440.959233 219.321806 
z
" clip-path="url(#p8b101820e5)" style="fill: #87ceeb"/>
   </g>
   <g id="patch_74">
    <path d="M 446.03196 300.15 
L 451.104688 300.15 
L 451.104688 300.15 
L 446.03196 300.15 
z
" clip-path="url(#p8b101820e5)" style="fill: #87ceeb"/>
   </g>
   <g id="patch_75">
    <path d="M 451.104688 300.15 
L 456.177415 300.15 
L 456.177415 300.15 
L 451.104688 300.15 
z
" clip-path="url(#p8b101820e5)" style="fill: #87ceeb"/>
   </g>
   <g id="patch_76">
    <path d="M 456.177415 300.15 
L 461.250142 300.15 
L 461.250142 300.15 
L 456.177415 300.15 
z
" clip-path="url(#p8b101820e5)" style="fill: #87ceeb"/>
   </g>
   <g id="patch_77">
    <path d="M 461.250142 300.15 
L 466.322869 300.15 
L 466.322869 235.022247 
L 461.250142 235.022247 
z
" clip-path="url(#p8b101820e5)" style="fill: #87ceeb"/>
   </g>
   <g id="patch_78">
    <path d="M 466.322869 300.15 
L 471.395597 300.15 
L 471.395597 300.15 
L 466.322869 300.15 
z
" clip-path="url(#p8b101820e5)" style="fill: #87ceeb"/>
   </g>
   <g id="patch_79">
    <path d="M 471.395597 300.15 
L 476.468324 300.15 
L 476.468324 300.15 
L 471.395597 300.15 
z
" clip-path="url(#p8b101820e5)" style="fill: #87ceeb"/>
   </g>
   <g id="patch_80">
    <path d="M 476.468324 300.15 
L 481.541051 300.15 
L 481.541051 239.964978 
L 476.468324 239.964978 
z
" clip-path="url(#p8b101820e5)" style="fill: #87ceeb"/>
   </g>
   <g id="patch_81">
    <path d="M 481.541051 300.15 
L 486.613778 300.15 
L 486.613778 300.15 
L 481.541051 300.15 
z
" clip-path="url(#p8b101820e5)" style="fill: #87ceeb"/>
   </g>
   <g id="patch_82">
    <path d="M 486.613778 300.15 
L 491.686506 300.15 
L 491.686506 300.15 
L 486.613778 300.15 
z
" clip-path="url(#p8b101820e5)" style="fill: #87ceeb"/>
   </g>
   <g id="patch_83">
    <path d="M 491.686506 300.15 
L 496.759233 300.15 
L 496.759233 300.15 
L 491.686506 300.15 
z
" clip-path="url(#p8b101820e5)" style="fill: #87ceeb"/>
   </g>
   <g id="patch_84">
    <path d="M 496.759233 300.15 
L 501.83196 300.15 
L 501.83196 249.850441 
L 496.759233 249.850441 
z
" clip-path="url(#p8b101820e5)" style="fill: #87ceeb"/>
   </g>
   <g id="patch_85">
    <path d="M 501.83196 300.15 
L 506.904688 300.15 
L 506.904688 300.15 
L 501.83196 300.15 
z
" clip-path="url(#p8b101820e5)" style="fill: #87ceeb"/>
   </g>
   <g id="patch_86">
    <path d="M 506.904688 300.15 
L 511.977415 300.15 
L 511.977415 300.15 
L 506.904688 300.15 
z
" clip-path="url(#p8b101820e5)" style="fill: #87ceeb"/>
   </g>
   <g id="patch_87">
    <path d="M 511.977415 300.15 
L 517.050142 300.15 
L 517.050142 300.15 
L 511.977415 300.15 
z
" clip-path="url(#p8b101820e5)" style="fill: #87ceeb"/>
   </g>
   <g id="patch_88">
    <path d="M 517.050142 300.15 
L 522.122869 300.15 
L 522.122869 256.537665 
L 517.050142 256.537665 
z
" clip-path="url(#p8b101820e5)" style="fill: #87ceeb"/>
   </g>
   <g id="patch_89">
    <path d="M 522.122869 300.15 
L 527.195597 300.15 
L 527.195597 300.15 
L 522.122869 300.15 
z
" clip-path="url(#p8b101820e5)" style="fill: #87ceeb"/>
   </g>
   <g id="patch_90">
    <path d="M 527.195597 300.15 
L 532.268324 300.15 
L 532.268324 300.15 
L 527.195597 300.15 
z
" clip-path="url(#p8b101820e5)" style="fill: #87ceeb"/>
   </g>
   <g id="patch_91">
    <path d="M 532.268324 300.15 
L 537.341051 300.15 
L 537.341051 258.863656 
L 532.268324 258.863656 
z
" clip-path="url(#p8b101820e5)" style="fill: #87ceeb"/>
   </g>
   <g id="patch_92">
    <path d="M 537.341051 300.15 
L 542.413778 300.15 
L 542.413778 300.15 
L 537.341051 300.15 
z
" clip-path="url(#p8b101820e5)" style="fill: #87ceeb"/>
   </g>
   <g id="patch_93">
    <path d="M 542.413778 300.15 
L 547.486506 300.15 
L 547.486506 300.15 
L 542.413778 300.15 
z
" clip-path="url(#p8b101820e5)" style="fill: #87ceeb"/>
   </g>
   <g id="patch_94">
    <path d="M 547.486506 300.15 
L 552.559233 300.15 
L 552.559233 300.15 
L 547.486506 300.15 
z
" clip-path="url(#p8b101820e5)" style="fill: #87ceeb"/>
   </g>
   <g id="patch_95">
    <path d="M 552.559233 300.15 
L 557.63196 300.15 
L 557.63196 267.586123 
L 552.559233 267.586123 
z
" clip-path="url(#p8b101820e5)" style="fill: #87ceeb"/>
   </g>
   <g id="patch_96">
    <path d="M 557.63196 300.15 
L 562.704688 300.15 
L 562.704688 300.15 
L 557.63196 300.15 
z
" clip-path="url(#p8b101820e5)" style="fill: #87ceeb"/>
   </g>
   <g id="patch_97">
    <path d="M 562.704688 300.15 
L 567.777415 300.15 
L 567.777415 300.15 
L 562.704688 300.15 
z
" clip-path="url(#p8b101820e5)" style="fill: #87ceeb"/>
   </g>
   <g id="patch_98">
    <path d="M 567.777415 300.15 
L 572.850142 300.15 
L 572.850142 300.15 
L 567.777415 300.15 
z
" clip-path="url(#p8b101820e5)" style="fill: #87ceeb"/>
   </g>
   <g id="patch_99">
    <path d="M 572.850142 300.15 
L 577.922869 300.15 
L 577.922869 277.180837 
L 572.850142 277.180837 
z
" clip-path="url(#p8b101820e5)" style="fill: #87ceeb"/>
   </g>
   <g id="patch_100">
    <path d="M 577.922869 300.15 
L 582.995597 300.15 
L 582.995597 300.15 
L 577.922869 300.15 
z
" clip-path="url(#p8b101820e5)" style="fill: #87ceeb"/>
   </g>
   <g id="patch_101">
    <path d="M 582.995597 300.15 
L 588.068324 300.15 
L 588.068324 300.15 
L 582.995597 300.15 
z
" clip-path="url(#p8b101820e5)" style="fill: #87ceeb"/>
   </g>
   <g id="patch_102">
    <path d="M 588.068324 300.15 
L 593.141051 300.15 
L 593.141051 248.687445 
L 588.068324 248.687445 
z
" clip-path="url(#p8b101820e5)" style="fill: #87ceeb"/>
   </g>
   <g id="matplotlib.axis_1">
    <g id="xtick_1">
     <g id="line2d_1">
      <defs>
       <path id="mfa189ae1d1" d="M 0 0 
L 0 3.5 
" style="stroke: #000000; stroke-width: 0.8"/>
      </defs>
      <g>
       <use xlink:href="#mfa189ae1d1" x="123.444081" y="300.15" style="stroke: #000000; stroke-width: 0.8"/>
      </g>
     </g>
     <g id="text_1">
      <!-- 1000 -->
      <g transform="translate(113.444081 314.025) scale(0.1 -0.1)">
       <defs>
        <path id="KaiTi-31" d="M 1400 3600 
Q 1075 3275 575 2975 
L 575 3450 
Q 1200 3875 1600 4450 
L 1900 4450 
L 1900 150 
L 1400 150 
L 1400 3600 
z
" transform="scale(0.015625)"/>
        <path id="KaiTi-30" d="M 225 2537 
Q 250 3200 412 3587 
Q 575 3975 875 4225 
Q 1175 4475 1612 4475 
Q 2050 4475 2375 4112 
Q 2700 3750 2800 3200 
Q 2900 2650 2862 1937 
Q 2825 1225 2612 775 
Q 2400 325 1975 150 
Q 1550 -25 1125 187 
Q 700 400 525 750 
Q 350 1100 275 1487 
Q 200 1875 225 2537 
z
M 750 2687 
Q 675 2000 800 1462 
Q 925 925 1212 700 
Q 1500 475 1800 612 
Q 2100 750 2237 1162 
Q 2375 1575 2375 2062 
Q 2375 2550 2337 2950 
Q 2300 3350 2112 3675 
Q 1925 4000 1612 4012 
Q 1300 4025 1062 3700 
Q 825 3375 750 2687 
z
" transform="scale(0.015625)"/>
       </defs>
       <use xlink:href="#KaiTi-31"/>
       <use xlink:href="#KaiTi-30" transform="translate(50 0)"/>
       <use xlink:href="#KaiTi-30" transform="translate(100 0)"/>
       <use xlink:href="#KaiTi-30" transform="translate(150 0)"/>
      </g>
     </g>
    </g>
    <g id="xtick_2">
     <g id="line2d_2">
      <g>
       <use xlink:href="#mfa189ae1d1" x="217.383475" y="300.15" style="stroke: #000000; stroke-width: 0.8"/>
      </g>
     </g>
     <g id="text_2">
      <!-- 1500 -->
      <g transform="translate(207.383475 314.025) scale(0.1 -0.1)">
       <defs>
        <path id="KaiTi-35" d="M 550 1325 
Q 725 650 1150 575 
Q 1575 500 1837 662 
Q 2100 825 2212 1087 
Q 2325 1350 2312 1675 
Q 2300 2000 2137 2225 
Q 1975 2450 1725 2525 
Q 1475 2600 1162 2525 
Q 850 2450 650 2175 
L 225 2225 
Q 275 2375 700 4375 
L 2675 4375 
L 2675 3925 
L 1075 3925 
Q 950 3250 825 2850 
Q 1200 3025 1525 3012 
Q 1850 3000 2150 2862 
Q 2450 2725 2587 2487 
Q 2725 2250 2787 2012 
Q 2850 1775 2837 1500 
Q 2825 1225 2725 937 
Q 2625 650 2425 462 
Q 2225 275 1937 162 
Q 1650 50 1275 75 
Q 900 100 562 350 
Q 225 600 100 1200 
L 550 1325 
z
" transform="scale(0.015625)"/>
       </defs>
       <use xlink:href="#KaiTi-31"/>
       <use xlink:href="#KaiTi-35" transform="translate(50 0)"/>
       <use xlink:href="#KaiTi-30" transform="translate(100 0)"/>
       <use xlink:href="#KaiTi-30" transform="translate(150 0)"/>
      </g>
     </g>
    </g>
    <g id="xtick_3">
     <g id="line2d_3">
      <g>
       <use xlink:href="#mfa189ae1d1" x="311.322869" y="300.15" style="stroke: #000000; stroke-width: 0.8"/>
      </g>
     </g>
     <g id="text_3">
      <!-- 2000 -->
      <g transform="translate(301.322869 314.025) scale(0.1 -0.1)">
       <defs>
        <path id="KaiTi-32" d="M 300 250 
Q 325 625 650 925 
Q 975 1225 1475 1862 
Q 1975 2500 2125 2850 
Q 2275 3200 2237 3450 
Q 2200 3700 2000 3862 
Q 1800 4025 1537 4000 
Q 1275 3975 1037 3800 
Q 800 3625 675 3275 
L 200 3350 
Q 400 3925 712 4187 
Q 1025 4450 1450 4475 
Q 1700 4500 1900 4462 
Q 2100 4425 2312 4287 
Q 2525 4150 2662 3875 
Q 2800 3600 2762 3212 
Q 2725 2825 2375 2287 
Q 2025 1750 1025 600 
L 2825 600 
L 2825 150 
L 300 150 
L 300 250 
z
" transform="scale(0.015625)"/>
       </defs>
       <use xlink:href="#KaiTi-32"/>
       <use xlink:href="#KaiTi-30" transform="translate(50 0)"/>
       <use xlink:href="#KaiTi-30" transform="translate(100 0)"/>
       <use xlink:href="#KaiTi-30" transform="translate(150 0)"/>
      </g>
     </g>
    </g>
    <g id="xtick_4">
     <g id="line2d_4">
      <g>
       <use xlink:href="#mfa189ae1d1" x="405.262263" y="300.15" style="stroke: #000000; stroke-width: 0.8"/>
      </g>
     </g>
     <g id="text_4">
      <!-- 2500 -->
      <g transform="translate(395.262263 314.025) scale(0.1 -0.1)">
       <use xlink:href="#KaiTi-32"/>
       <use xlink:href="#KaiTi-35" transform="translate(50 0)"/>
       <use xlink:href="#KaiTi-30" transform="translate(100 0)"/>
       <use xlink:href="#KaiTi-30" transform="translate(150 0)"/>
      </g>
     </g>
    </g>
    <g id="xtick_5">
     <g id="line2d_5">
      <g>
       <use xlink:href="#mfa189ae1d1" x="499.201657" y="300.15" style="stroke: #000000; stroke-width: 0.8"/>
      </g>
     </g>
     <g id="text_5">
      <!-- 3000 -->
      <g transform="translate(489.201657 314.025) scale(0.1 -0.1)">
       <defs>
        <path id="KaiTi-33" d="M 250 1225 
L 700 1300 
Q 800 975 1025 762 
Q 1250 550 1587 562 
Q 1925 575 2125 837 
Q 2325 1100 2300 1437 
Q 2275 1775 2037 1962 
Q 1800 2150 1275 2225 
L 1275 2550 
Q 1800 2600 2037 2825 
Q 2275 3050 2250 3412 
Q 2225 3775 1925 3937 
Q 1625 4100 1287 3975 
Q 950 3850 750 3275 
L 300 3350 
Q 450 3800 712 4100 
Q 975 4400 1425 4450 
Q 1875 4500 2212 4337 
Q 2550 4175 2687 3837 
Q 2825 3500 2725 3100 
Q 2625 2700 2150 2400 
Q 2500 2250 2687 1950 
Q 2875 1650 2812 1162 
Q 2750 675 2375 375 
Q 2000 75 1525 87 
Q 1050 100 700 387 
Q 350 675 250 1225 
z
" transform="scale(0.015625)"/>
       </defs>
       <use xlink:href="#KaiTi-33"/>
       <use xlink:href="#KaiTi-30" transform="translate(50 0)"/>
       <use xlink:href="#KaiTi-30" transform="translate(100 0)"/>
       <use xlink:href="#KaiTi-30" transform="translate(150 0)"/>
      </g>
     </g>
    </g>
    <g id="xtick_6">
     <g id="line2d_6">
      <g>
       <use xlink:href="#mfa189ae1d1" x="593.141051" y="300.15" style="stroke: #000000; stroke-width: 0.8"/>
      </g>
     </g>
     <g id="text_6">
      <!-- 3500 -->
      <g transform="translate(583.141051 314.025) scale(0.1 -0.1)">
       <use xlink:href="#KaiTi-33"/>
       <use xlink:href="#KaiTi-35" transform="translate(50 0)"/>
       <use xlink:href="#KaiTi-30" transform="translate(100 0)"/>
       <use xlink:href="#KaiTi-30" transform="translate(150 0)"/>
      </g>
     </g>
    </g>
    <g id="text_7">
     <!-- 难度系数 -->
     <g transform="translate(309.504687 331.4625) scale(0.15 -0.15)">
      <defs>
       <path id="KaiTi-96be" d="M 4325 875 
Q 4325 1175 4350 1500 
Q 4150 1475 4025 1475 
Q 3925 1475 3800 1525 
Q 3675 1575 3850 1625 
Q 4025 1675 4350 1750 
L 4350 2225 
Q 4125 2200 3950 2200 
Q 3775 2200 3687 2250 
Q 3600 2300 3775 2350 
Q 3950 2400 4350 2500 
Q 4350 2775 4325 3000 
Q 4025 2975 3862 2962 
Q 3700 2950 3550 3012 
Q 3400 3075 3712 3162 
Q 4025 3250 4512 3400 
Q 5000 3550 5175 3600 
Q 5350 3650 5512 3575 
Q 5675 3500 5450 3387 
Q 5225 3275 4575 3100 
Q 4775 3000 4750 2937 
Q 4725 2875 4675 2675 
Q 4775 2700 4975 2712 
Q 5175 2725 5237 2612 
Q 5300 2500 5112 2450 
Q 4925 2400 4675 2300 
Q 4650 2075 4650 1850 
Q 4900 1950 5075 1962 
Q 5250 1975 5350 1850 
Q 5400 1775 5137 1700 
Q 4875 1625 4650 1575 
Q 4600 1275 4600 950 
Q 4950 1000 5300 1075 
Q 5650 1150 5825 987 
Q 6000 825 5850 775 
Q 5700 725 5475 750 
Q 5250 775 4612 687 
Q 3975 600 3812 525 
Q 3650 450 3400 600 
Q 3425 -50 3337 -337 
Q 3250 -625 3100 -300 
Q 2950 25 3025 262 
Q 3100 500 3137 1000 
Q 3175 1500 3175 2200 
Q 3175 2925 3100 3250 
Q 2775 2900 2562 2787 
Q 2350 2675 2575 2975 
Q 2800 3275 3112 3875 
Q 3425 4475 3350 4712 
Q 3275 4950 3625 4800 
Q 3975 4650 3875 4525 
Q 3775 4400 3637 4175 
Q 3500 3950 3225 3450 
Q 3400 3275 3412 3012 
Q 3425 2750 3400 750 
Q 3650 750 4325 875 
z
M 1950 2150 
Q 2275 1825 2425 1562 
Q 2575 1300 2525 1050 
Q 2475 800 2250 1075 
Q 2025 1350 1775 1750 
Q 1425 1175 1137 912 
Q 850 650 625 550 
Q 400 450 612 662 
Q 825 875 1037 1162 
Q 1250 1450 1550 2025 
Q 1275 2350 1087 2550 
Q 900 2750 812 2900 
Q 725 3050 1037 2862 
Q 1350 2675 1675 2400 
Q 1800 2750 1887 3162 
Q 1975 3575 1937 3612 
Q 1900 3650 1737 3625 
Q 1575 3600 1325 3500 
Q 1075 3400 837 3525 
Q 600 3650 900 3662 
Q 1200 3675 1500 3775 
Q 1800 3875 1912 4000 
Q 2025 4125 2337 3962 
Q 2650 3800 2537 3712 
Q 2425 3625 2362 3450 
Q 2300 3275 2175 2862 
Q 2050 2450 1950 2150 
z
M 4100 4225 
Q 3900 4450 4275 4400 
Q 4650 4350 4725 4150 
Q 4800 3950 4725 3862 
Q 4650 3775 4475 3900 
Q 4300 4025 4100 4225 
z
" transform="scale(0.015625)"/>
       <path id="KaiTi-5ea6" d="M 3775 675 
Q 4400 275 4937 112 
Q 5475 -50 5925 -125 
Q 6375 -200 5925 -300 
Q 5475 -400 5062 -412 
Q 4650 -425 4387 -225 
Q 4125 -25 3600 425 
Q 3225 125 2762 -50 
Q 2300 -225 1875 -225 
Q 1450 -225 1787 -137 
Q 2125 -50 2562 137 
Q 3000 325 3325 650 
Q 3100 900 2900 1037 
Q 2700 1175 2562 1250 
Q 2425 1325 2662 1350 
Q 2900 1375 3025 1250 
Q 3150 1125 3500 825 
Q 3750 1150 3837 1437 
Q 3925 1725 3800 1737 
Q 3675 1750 3337 1625 
Q 3000 1500 2825 1500 
Q 2675 1500 2475 1587 
Q 2275 1675 2587 1700 
Q 2900 1725 3275 1812 
Q 3650 1900 3775 2012 
Q 3900 2125 4037 2075 
Q 4175 2025 4337 1912 
Q 4500 1800 4387 1700 
Q 4275 1600 4137 1312 
Q 4000 1025 3775 675 
z
M 2125 3825 
Q 2050 2600 1850 1887 
Q 1650 1175 1350 687 
Q 1050 200 650 -87 
Q 250 -375 512 -62 
Q 775 250 1100 812 
Q 1425 1375 1575 2125 
Q 1725 2875 1762 3300 
Q 1800 3725 1737 3937 
Q 1675 4150 1800 4112 
Q 1925 4075 2000 4037 
Q 2075 4000 2450 4037 
Q 2825 4075 3325 4175 
Q 3825 4275 4162 4375 
Q 4500 4475 4687 4387 
Q 4875 4300 4750 4212 
Q 4625 4125 4300 4062 
Q 3975 4000 3300 3912 
Q 2625 3825 2125 3825 
z
M 4200 3275 
Q 4475 3325 4675 3400 
Q 4875 3475 5087 3337 
Q 5300 3200 5025 3137 
Q 4750 3075 4150 3000 
L 4050 2550 
Q 4225 2400 4000 2362 
Q 3775 2325 3125 2200 
Q 2975 2050 2912 2250 
Q 2850 2450 2775 2775 
Q 2525 2750 2412 2712 
Q 2300 2675 2162 2787 
Q 2025 2900 2225 2925 
Q 2425 2950 2700 3000 
Q 2650 3300 2550 3412 
Q 2450 3525 2600 3525 
Q 2775 3525 2900 3487 
Q 3025 3450 3000 3337 
Q 2975 3225 3000 3075 
Q 3425 3150 3900 3225 
Q 3925 3600 3862 3750 
Q 3800 3900 3975 3862 
Q 4150 3825 4262 3750 
Q 4375 3675 4312 3600 
Q 4250 3525 4200 3275 
z
M 3100 2375 
Q 3425 2475 3800 2525 
Q 3825 2725 3850 2975 
Q 3375 2900 3050 2825 
L 3100 2375 
z
M 3100 4850 
Q 2900 5125 3175 5087 
Q 3450 5050 3612 4925 
Q 3775 4800 3725 4575 
Q 3675 4350 3487 4475 
Q 3300 4600 3100 4850 
z
" transform="scale(0.015625)"/>
       <path id="KaiTi-7cfb" d="M 3500 3150 
Q 4050 3650 4062 3775 
Q 4075 3900 4212 3825 
Q 4350 3750 4450 3612 
Q 4550 3475 4287 3325 
Q 4025 3175 3387 2737 
Q 2750 2300 2525 2175 
Q 2300 2050 2612 2075 
Q 2925 2100 4150 2225 
Q 3925 2525 3925 2600 
Q 3925 2700 4275 2537 
Q 4625 2375 4725 2162 
Q 4825 1950 4737 1800 
Q 4650 1650 4525 1787 
Q 4400 1925 4275 2100 
Q 3850 2025 3075 1875 
Q 3475 1725 3437 1562 
Q 3400 1400 3400 1000 
Q 3400 625 3437 250 
Q 3475 -125 3275 -462 
Q 3075 -800 2937 -512 
Q 2800 -225 2562 -37 
Q 2325 150 2487 112 
Q 2650 75 2825 50 
Q 3000 25 3037 137 
Q 3075 250 3087 787 
Q 3100 1325 3000 1750 
L 2950 1850 
Q 2000 1700 1775 1600 
Q 1550 1500 1500 1750 
Q 1450 2000 1762 2075 
Q 2075 2150 2550 2437 
Q 3025 2725 3350 3000 
Q 2250 2875 1975 2762 
Q 1700 2650 1700 2875 
Q 1700 3125 1825 3162 
Q 1950 3200 2137 3312 
Q 2325 3425 2662 3762 
Q 3000 4100 3025 4275 
Q 2025 4050 1700 4112 
Q 1375 4175 1750 4250 
Q 2125 4325 2550 4425 
Q 2975 4525 3525 4725 
Q 4075 4925 4162 5062 
Q 4250 5200 4587 4937 
Q 4925 4675 4612 4637 
Q 4300 4600 3175 4350 
Q 3375 4250 3462 4150 
Q 3550 4050 3350 3937 
Q 3150 3825 2912 3650 
Q 2675 3475 2462 3300 
Q 2250 3125 2512 3137 
Q 2775 3150 3500 3150 
z
M 4225 875 
Q 4050 1075 4025 1137 
Q 4000 1200 4450 1112 
Q 4900 1025 5075 737 
Q 5250 450 5150 287 
Q 5050 125 4737 400 
Q 4425 675 4225 875 
z
M 1625 900 
Q 1775 1100 1862 1175 
Q 1950 1250 1937 1062 
Q 1925 875 1850 650 
Q 1775 425 1537 187 
Q 1300 -50 1225 200 
Q 1150 450 1312 587 
Q 1475 725 1625 900 
z
" transform="scale(0.015625)"/>
       <path id="KaiTi-6570" d="M 4100 1300 
Q 4275 1625 4312 1987 
Q 4350 2350 4325 2725 
Q 4125 2700 3875 2725 
Q 3575 2375 3325 2225 
Q 3075 2075 3387 2462 
Q 3700 2850 3912 3487 
Q 4125 4125 4100 4275 
Q 4075 4425 4062 4537 
Q 4050 4650 4362 4487 
Q 4675 4325 4562 4175 
Q 4450 4025 4337 3712 
Q 4225 3400 3925 2850 
Q 4525 2975 4912 3162 
Q 5300 3350 5512 3212 
Q 5725 3075 5450 2975 
Q 5175 2875 4425 2725 
Q 4800 2600 4712 2350 
Q 4625 2100 4562 1775 
Q 4500 1450 4325 1025 
Q 4550 750 4837 512 
Q 5125 275 5437 150 
Q 5750 25 5975 -62 
Q 6200 -150 5737 -187 
Q 5275 -225 5037 -187 
Q 4800 -150 4687 25 
Q 4575 200 4125 800 
Q 3900 550 3675 400 
Q 3450 250 3175 175 
Q 2900 100 3162 262 
Q 3425 425 3625 625 
Q 3825 825 3975 1050 
Q 3800 1350 3637 1562 
Q 3475 1775 3362 1900 
Q 3250 2025 3387 2037 
Q 3525 2050 3612 1950 
Q 3700 1850 4100 1300 
z
M 2575 1600 
Q 2625 1750 2612 1862 
Q 2600 1975 2750 1875 
Q 2900 1775 2962 1700 
Q 3025 1625 2962 1500 
Q 2900 1375 2800 1112 
Q 2700 850 2525 550 
Q 2700 425 2837 300 
Q 2975 175 2925 -62 
Q 2875 -300 2712 -100 
Q 2550 100 2325 275 
Q 1925 -25 1587 -150 
Q 1250 -275 912 -300 
Q 575 -325 850 -212 
Q 1125 -100 1450 50 
Q 1775 200 2050 475 
Q 1750 700 1637 750 
Q 1525 800 1587 900 
Q 1650 1000 1700 1250 
Q 1050 1175 862 1062 
Q 675 950 425 1150 
Q 175 1350 500 1337 
Q 825 1325 1775 1475 
Q 1850 1800 1800 1987 
Q 1750 2175 2025 2037 
Q 2300 1900 2250 1825 
Q 2200 1750 2075 1525 
L 2575 1600 
z
M 2875 3425 
Q 3125 3475 3225 3387 
Q 3325 3300 3100 3225 
Q 2875 3150 2350 3075 
L 2350 2875 
Q 2775 2825 2975 2687 
Q 3175 2550 3112 2350 
Q 3050 2150 2812 2412 
Q 2575 2675 2350 2800 
Q 2350 2500 2300 2287 
Q 2250 2075 2137 2262 
Q 2025 2450 2062 2600 
Q 2100 2750 2075 2950 
Q 1475 2175 975 1937 
Q 475 1700 762 1925 
Q 1050 2150 1362 2475 
Q 1675 2800 1800 3050 
Q 1450 2925 1312 2900 
Q 1175 2875 975 3012 
Q 775 3150 1050 3137 
Q 1325 3125 2100 3275 
L 2100 4175 
Q 2100 4700 2012 4837 
Q 1925 4975 1987 4987 
Q 2050 5000 2300 4887 
Q 2550 4775 2462 4625 
Q 2375 4475 2375 3325 
L 2875 3425 
z
M 2250 675 
Q 2450 925 2575 1425 
L 2000 1325 
Q 1825 925 1837 875 
Q 1850 825 1937 800 
Q 2025 775 2250 675 
z
M 3250 4275 
Q 3450 4150 3300 4087 
Q 3150 4025 2762 3737 
Q 2375 3450 2600 3737 
Q 2825 4025 2900 4237 
Q 2975 4450 3025 4425 
Q 3075 4400 3250 4275 
z
M 1550 3600 
Q 1350 3875 1287 4000 
Q 1225 4125 1537 4050 
Q 1850 3975 1812 3662 
Q 1775 3350 1550 3600 
z
" transform="scale(0.015625)"/>
      </defs>
      <use xlink:href="#KaiTi-96be"/>
      <use xlink:href="#KaiTi-5ea6" transform="translate(100 0)"/>
      <use xlink:href="#KaiTi-7cfb" transform="translate(200 0)"/>
      <use xlink:href="#KaiTi-6570" transform="translate(300 0)"/>
     </g>
    </g>
   </g>
   <g id="matplotlib.axis_2">
    <g id="ytick_1">
     <g id="line2d_7">
      <defs>
       <path id="mc27c023b58" d="M 0 0 
L -3.5 0 
" style="stroke: #000000; stroke-width: 0.8"/>
      </defs>
      <g>
       <use xlink:href="#mc27c023b58" x="60.504687" y="300.15" style="stroke: #000000; stroke-width: 0.8"/>
      </g>
     </g>
     <g id="text_8">
      <!-- 0.0000 -->
      <g transform="translate(23.504687 303.5875) scale(0.1 -0.1)">
       <defs>
        <path id="KaiTi-2e" d="M 800 75 
Q 675 75 562 162 
Q 450 250 450 425 
Q 450 575 537 662 
Q 625 750 800 775 
Q 975 775 1062 675 
Q 1150 575 1150 425 
Q 1150 250 1050 162 
Q 950 75 800 75 
z
" transform="scale(0.015625)"/>
       </defs>
       <use xlink:href="#KaiTi-30"/>
       <use xlink:href="#KaiTi-2e" transform="translate(50 0)"/>
       <use xlink:href="#KaiTi-30" transform="translate(100 0)"/>
       <use xlink:href="#KaiTi-30" transform="translate(150 0)"/>
       <use xlink:href="#KaiTi-30" transform="translate(200 0)"/>
       <use xlink:href="#KaiTi-30" transform="translate(250 0)"/>
      </g>
     </g>
    </g>
    <g id="ytick_2">
     <g id="line2d_8">
      <g>
       <use xlink:href="#mc27c023b58" x="60.504687" y="261.570093" style="stroke: #000000; stroke-width: 0.8"/>
      </g>
     </g>
     <g id="text_9">
      <!-- 0.0005 -->
      <g transform="translate(23.504687 265.007593) scale(0.1 -0.1)">
       <use xlink:href="#KaiTi-30"/>
       <use xlink:href="#KaiTi-2e" transform="translate(50 0)"/>
       <use xlink:href="#KaiTi-30" transform="translate(100 0)"/>
       <use xlink:href="#KaiTi-30" transform="translate(150 0)"/>
       <use xlink:href="#KaiTi-30" transform="translate(200 0)"/>
       <use xlink:href="#KaiTi-35" transform="translate(250 0)"/>
      </g>
     </g>
    </g>
    <g id="ytick_3">
     <g id="line2d_9">
      <g>
       <use xlink:href="#mc27c023b58" x="60.504687" y="222.990185" style="stroke: #000000; stroke-width: 0.8"/>
      </g>
     </g>
     <g id="text_10">
      <!-- 0.0010 -->
      <g transform="translate(23.504687 226.427685) scale(0.1 -0.1)">
       <use xlink:href="#KaiTi-30"/>
       <use xlink:href="#KaiTi-2e" transform="translate(50 0)"/>
       <use xlink:href="#KaiTi-30" transform="translate(100 0)"/>
       <use xlink:href="#KaiTi-30" transform="translate(150 0)"/>
       <use xlink:href="#KaiTi-31" transform="translate(200 0)"/>
       <use xlink:href="#KaiTi-30" transform="translate(250 0)"/>
      </g>
     </g>
    </g>
    <g id="ytick_4">
     <g id="line2d_10">
      <g>
       <use xlink:href="#mc27c023b58" x="60.504687" y="184.410278" style="stroke: #000000; stroke-width: 0.8"/>
      </g>
     </g>
     <g id="text_11">
      <!-- 0.0015 -->
      <g transform="translate(23.504687 187.847778) scale(0.1 -0.1)">
       <use xlink:href="#KaiTi-30"/>
       <use xlink:href="#KaiTi-2e" transform="translate(50 0)"/>
       <use xlink:href="#KaiTi-30" transform="translate(100 0)"/>
       <use xlink:href="#KaiTi-30" transform="translate(150 0)"/>
       <use xlink:href="#KaiTi-31" transform="translate(200 0)"/>
       <use xlink:href="#KaiTi-35" transform="translate(250 0)"/>
      </g>
     </g>
    </g>
    <g id="ytick_5">
     <g id="line2d_11">
      <g>
       <use xlink:href="#mc27c023b58" x="60.504687" y="145.83037" style="stroke: #000000; stroke-width: 0.8"/>
      </g>
     </g>
     <g id="text_12">
      <!-- 0.0020 -->
      <g transform="translate(23.504687 149.26787) scale(0.1 -0.1)">
       <use xlink:href="#KaiTi-30"/>
       <use xlink:href="#KaiTi-2e" transform="translate(50 0)"/>
       <use xlink:href="#KaiTi-30" transform="translate(100 0)"/>
       <use xlink:href="#KaiTi-30" transform="translate(150 0)"/>
       <use xlink:href="#KaiTi-32" transform="translate(200 0)"/>
       <use xlink:href="#KaiTi-30" transform="translate(250 0)"/>
      </g>
     </g>
    </g>
    <g id="ytick_6">
     <g id="line2d_12">
      <g>
       <use xlink:href="#mc27c023b58" x="60.504687" y="107.250463" style="stroke: #000000; stroke-width: 0.8"/>
      </g>
     </g>
     <g id="text_13">
      <!-- 0.0025 -->
      <g transform="translate(23.504687 110.687963) scale(0.1 -0.1)">
       <use xlink:href="#KaiTi-30"/>
       <use xlink:href="#KaiTi-2e" transform="translate(50 0)"/>
       <use xlink:href="#KaiTi-30" transform="translate(100 0)"/>
       <use xlink:href="#KaiTi-30" transform="translate(150 0)"/>
       <use xlink:href="#KaiTi-32" transform="translate(200 0)"/>
       <use xlink:href="#KaiTi-35" transform="translate(250 0)"/>
      </g>
     </g>
    </g>
    <g id="ytick_7">
     <g id="line2d_13">
      <g>
       <use xlink:href="#mc27c023b58" x="60.504687" y="68.670555" style="stroke: #000000; stroke-width: 0.8"/>
      </g>
     </g>
     <g id="text_14">
      <!-- 0.0030 -->
      <g transform="translate(23.504687 72.108055) scale(0.1 -0.1)">
       <use xlink:href="#KaiTi-30"/>
       <use xlink:href="#KaiTi-2e" transform="translate(50 0)"/>
       <use xlink:href="#KaiTi-30" transform="translate(100 0)"/>
       <use xlink:href="#KaiTi-30" transform="translate(150 0)"/>
       <use xlink:href="#KaiTi-33" transform="translate(200 0)"/>
       <use xlink:href="#KaiTi-30" transform="translate(250 0)"/>
      </g>
     </g>
    </g>
    <g id="ytick_8">
     <g id="line2d_14">
      <g>
       <use xlink:href="#mc27c023b58" x="60.504687" y="30.090648" style="stroke: #000000; stroke-width: 0.8"/>
      </g>
     </g>
     <g id="text_15">
      <!-- 0.0035 -->
      <g transform="translate(23.504687 33.528148) scale(0.1 -0.1)">
       <use xlink:href="#KaiTi-30"/>
       <use xlink:href="#KaiTi-2e" transform="translate(50 0)"/>
       <use xlink:href="#KaiTi-30" transform="translate(100 0)"/>
       <use xlink:href="#KaiTi-30" transform="translate(150 0)"/>
       <use xlink:href="#KaiTi-33" transform="translate(200 0)"/>
       <use xlink:href="#KaiTi-35" transform="translate(250 0)"/>
      </g>
     </g>
    </g>
    <g id="text_16">
     <!-- density -->
     <g transform="translate(17.629687 187.8) rotate(-90) scale(0.15 -0.15)">
      <defs>
       <path id="KaiTi-64" d="M 2750 125 
L 2250 125 
L 2250 500 
Q 2100 275 1900 175 
Q 1700 75 1425 75 
Q 925 75 575 437 
Q 225 800 225 1525 
Q 225 2250 575 2625 
Q 925 3000 1425 3000 
Q 1700 3000 1900 2887 
Q 2100 2775 2250 2550 
L 2250 4400 
L 2750 4400 
L 2750 125 
z
M 2250 1525 
Q 2250 2000 2037 2275 
Q 1825 2550 1525 2550 
Q 1150 2550 962 2275 
Q 775 2000 775 1525 
Q 775 1050 962 787 
Q 1150 525 1525 525 
Q 1825 525 2037 787 
Q 2250 1050 2250 1525 
z
" transform="scale(0.015625)"/>
       <path id="KaiTi-65" d="M 2850 1075 
Q 2800 625 2450 350 
Q 2100 75 1625 75 
Q 1025 75 637 462 
Q 250 850 250 1525 
Q 250 2200 637 2587 
Q 1025 2975 1625 2975 
Q 2150 2975 2487 2637 
Q 2825 2300 2825 1525 
L 800 1525 
Q 800 975 1037 750 
Q 1275 525 1625 525 
Q 1900 525 2075 662 
Q 2250 800 2300 1075 
L 2850 1075 
z
M 2250 1925 
Q 2200 2275 2025 2412 
Q 1850 2550 1575 2550 
Q 1325 2550 1125 2412 
Q 925 2275 825 1925 
L 2250 1925 
z
" transform="scale(0.015625)"/>
       <path id="KaiTi-6e" d="M 2800 125 
L 2300 125 
L 2300 1925 
Q 2300 2225 2150 2400 
Q 2000 2575 1750 2575 
Q 1425 2575 1137 2237 
Q 850 1900 850 1400 
L 850 125 
L 350 125 
L 350 2925 
L 850 2925 
L 850 2400 
Q 1050 2675 1287 2825 
Q 1525 2975 1900 2975 
Q 2350 2975 2575 2725 
Q 2800 2475 2800 2100 
L 2800 125 
z
" transform="scale(0.015625)"/>
       <path id="KaiTi-73" d="M 2750 900 
Q 2750 500 2437 287 
Q 2125 75 1650 75 
Q 1050 75 725 312 
Q 400 550 400 1000 
L 900 1000 
Q 900 700 1112 600 
Q 1325 500 1625 500 
Q 1925 500 2075 612 
Q 2225 725 2225 900 
Q 2225 1025 2100 1150 
Q 1975 1275 1475 1350 
Q 900 1425 687 1637 
Q 475 1850 475 2200 
Q 475 2500 762 2737 
Q 1050 2975 1600 2975 
Q 2100 2975 2387 2750 
Q 2675 2525 2675 2150 
L 2175 2150 
Q 2175 2375 2012 2462 
Q 1850 2550 1600 2550 
Q 1275 2550 1137 2437 
Q 1000 2325 1000 2175 
Q 1000 2000 1125 1900 
Q 1250 1800 1650 1750 
Q 2300 1650 2525 1437 
Q 2750 1225 2750 900 
z
" transform="scale(0.015625)"/>
       <path id="KaiTi-69" d="M 1800 125 
L 1300 125 
L 1300 2925 
L 1800 2925 
L 1800 125 
z
M 1912 4075 
Q 1925 3875 1750 3775 
Q 1575 3675 1400 3762 
Q 1225 3850 1212 4050 
Q 1200 4250 1375 4350 
Q 1550 4450 1725 4362 
Q 1900 4275 1912 4075 
z
" transform="scale(0.015625)"/>
       <path id="KaiTi-74" d="M 2750 200 
Q 2625 150 2462 112 
Q 2300 75 2025 75 
Q 1575 75 1300 325 
Q 1025 575 1025 1025 
L 1025 2525 
L 175 2525 
L 175 2925 
L 1025 2925 
L 1025 3900 
L 1525 3900 
L 1525 2925 
L 2550 2925 
L 2550 2525 
L 1525 2525 
L 1525 1000 
Q 1525 800 1625 662 
Q 1725 525 2000 525 
Q 2275 525 2450 575 
Q 2625 625 2750 700 
L 2750 200 
z
" transform="scale(0.015625)"/>
       <path id="KaiTi-79" d="M 2900 2925 
L 1750 -100 
Q 1650 -450 1450 -625 
Q 1250 -800 950 -800 
Q 825 -800 712 -787 
Q 600 -775 500 -725 
L 500 -225 
Q 600 -275 700 -300 
Q 800 -325 875 -325 
Q 1075 -325 1150 -262 
Q 1225 -200 1300 25 
L 200 2925 
L 750 2925 
L 1550 725 
L 1575 725 
L 2350 2925 
L 2900 2925 
z
" transform="scale(0.015625)"/>
      </defs>
      <use xlink:href="#KaiTi-64"/>
      <use xlink:href="#KaiTi-65" transform="translate(50 0)"/>
      <use xlink:href="#KaiTi-6e" transform="translate(100 0)"/>
      <use xlink:href="#KaiTi-73" transform="translate(150 0)"/>
      <use xlink:href="#KaiTi-69" transform="translate(200 0)"/>
      <use xlink:href="#KaiTi-74" transform="translate(250 0)"/>
      <use xlink:href="#KaiTi-79" transform="translate(300 0)"/>
     </g>
    </g>
   </g>
   <g id="patch_103">
    <path d="M 60.504687 300.15 
L 60.504687 22.95 
" style="fill: none; stroke: #000000; stroke-width: 0.8; stroke-linejoin: miter; stroke-linecap: square"/>
   </g>
   <g id="patch_104">
    <path d="M 618.504688 300.15 
L 618.504688 22.95 
" style="fill: none; stroke: #000000; stroke-width: 0.8; stroke-linejoin: miter; stroke-linecap: square"/>
   </g>
   <g id="patch_105">
    <path d="M 60.504688 300.15 
L 618.504688 300.15 
" style="fill: none; stroke: #000000; stroke-width: 0.8; stroke-linejoin: miter; stroke-linecap: square"/>
   </g>
   <g id="patch_106">
    <path d="M 60.504688 22.95 
L 618.504688 22.95 
" style="fill: none; stroke: #000000; stroke-width: 0.8; stroke-linejoin: miter; stroke-linecap: square"/>
   </g>
   <g id="text_17">
    <!-- Codeforces难度系数分布图 -->
    <g transform="translate(267.504687 16.95) scale(0.12 -0.12)">
     <defs>
      <path id="KaiTi-43" d="M 2975 1825 
Q 2950 875 2575 475 
Q 2200 75 1675 75 
Q 1075 75 650 562 
Q 225 1050 225 2125 
Q 225 3300 637 3875 
Q 1050 4450 1700 4450 
Q 2250 4450 2612 4037 
Q 2975 3625 2950 2875 
L 2400 2875 
Q 2400 3425 2225 3700 
Q 2050 3975 1700 3975 
Q 1300 3975 1062 3562 
Q 825 3150 825 2175 
Q 825 1275 1062 912 
Q 1300 550 1675 550 
Q 1950 550 2175 812 
Q 2400 1075 2400 1825 
L 2975 1825 
z
" transform="scale(0.015625)"/>
      <path id="KaiTi-6f" d="M 2925 1525 
Q 2925 875 2525 475 
Q 2125 75 1575 75 
Q 1025 75 625 475 
Q 225 875 225 1525 
Q 225 2175 625 2575 
Q 1025 2975 1575 2975 
Q 2125 2975 2525 2575 
Q 2925 2175 2925 1525 
z
M 2375 1525 
Q 2375 2025 2125 2275 
Q 1875 2525 1575 2525 
Q 1275 2525 1025 2275 
Q 775 2025 775 1525 
Q 775 1025 1025 775 
Q 1275 525 1575 525 
Q 1875 525 2125 775 
Q 2375 1025 2375 1525 
z
" transform="scale(0.015625)"/>
      <path id="KaiTi-66" d="M 2850 3825 
Q 2725 3900 2550 3950 
Q 2375 4000 2100 4000 
Q 1825 4000 1725 3862 
Q 1625 3725 1625 3525 
L 1625 2925 
L 2650 2925 
L 2650 2525 
L 1625 2525 
L 1625 125 
L 1125 125 
L 1125 2525 
L 275 2525 
L 275 2925 
L 1125 2925 
L 1125 3500 
Q 1125 3950 1400 4200 
Q 1675 4450 2125 4450 
Q 2400 4450 2562 4412 
Q 2725 4375 2850 4325 
L 2850 3825 
z
" transform="scale(0.015625)"/>
      <path id="KaiTi-72" d="M 2500 2425 
Q 2025 2500 1700 2287 
Q 1375 2075 1150 1550 
L 1150 125 
L 650 125 
L 650 2925 
L 1150 2925 
L 1150 2200 
Q 1375 2600 1712 2787 
Q 2050 2975 2500 2975 
L 2500 2425 
z
" transform="scale(0.015625)"/>
      <path id="KaiTi-63" d="M 2850 1250 
Q 2850 725 2487 400 
Q 2125 75 1575 75 
Q 1025 75 625 462 
Q 225 850 225 1525 
Q 225 2200 625 2587 
Q 1025 2975 1575 2975 
Q 2125 2975 2450 2687 
Q 2775 2400 2775 2000 
L 2225 2000 
Q 2200 2300 2012 2412 
Q 1825 2525 1575 2525 
Q 1275 2525 1025 2287 
Q 775 2050 775 1525 
Q 775 1000 1025 762 
Q 1275 525 1575 525 
Q 1900 525 2100 700 
Q 2300 875 2300 1250 
L 2850 1250 
z
" transform="scale(0.015625)"/>
      <path id="KaiTi-5206" d="M 4250 2425 
Q 4625 2175 4462 2025 
Q 4300 1875 4200 1600 
Q 4125 625 3900 200 
Q 3675 -225 3325 -387 
Q 2975 -550 2962 -300 
Q 2950 -50 2762 212 
Q 2575 475 2737 400 
Q 2900 325 3200 200 
Q 3475 200 3637 662 
Q 3800 1125 3825 1512 
Q 3850 1900 3825 2075 
Q 3800 2250 3612 2237 
Q 3425 2225 2600 2075 
Q 2925 1925 2800 1775 
Q 2675 1625 2612 1450 
Q 2550 1275 2262 862 
Q 1975 450 1600 162 
Q 1225 -125 950 -162 
Q 675 -200 887 -75 
Q 1100 50 1425 350 
Q 1750 650 2050 1162 
Q 2350 1675 2300 2000 
Q 2075 1950 1875 1887 
Q 1675 1825 1450 2000 
Q 1250 2150 1600 2162 
Q 1950 2175 2750 2300 
Q 3475 2425 3662 2550 
Q 3850 2675 4250 2425 
z
M 2775 5075 
Q 3150 5075 3325 4787 
Q 3500 4500 3950 4025 
Q 4400 3550 4825 3187 
Q 5250 2825 5762 2625 
Q 6275 2425 6062 2375 
Q 5850 2325 5300 2350 
Q 4750 2375 4625 2550 
Q 4500 2725 4187 3175 
Q 3875 3625 3662 3912 
Q 3450 4200 3250 4475 
Q 3050 4750 2912 4825 
Q 2775 4900 2687 4925 
Q 2600 4950 2575 5012 
Q 2550 5075 2775 5075 
z
M 2350 3575 
Q 2000 3050 1637 2700 
Q 1275 2350 950 2137 
Q 625 1925 475 1887 
Q 325 1850 475 1987 
Q 625 2125 950 2412 
Q 1275 2700 1600 3162 
Q 1925 3625 1962 3825 
Q 2000 4025 1962 4150 
Q 1925 4275 2050 4275 
Q 2175 4275 2462 4162 
Q 2750 4050 2600 3912 
Q 2450 3775 2350 3575 
z
" transform="scale(0.015625)"/>
      <path id="KaiTi-5e03" d="M 2625 2350 
Q 2625 2000 2612 1587 
Q 2600 1175 2500 875 
Q 2400 575 2275 850 
Q 2150 1125 2225 1287 
Q 2300 1450 2325 1887 
Q 2350 2325 2250 2550 
Q 2000 2175 1625 1825 
Q 1250 1475 700 1237 
Q 150 1000 687 1375 
Q 1225 1750 1725 2362 
Q 2225 2975 2625 3725 
Q 1775 3625 1500 3562 
Q 1225 3500 975 3712 
Q 725 3925 1062 3900 
Q 1400 3875 2750 4025 
Q 2850 4300 2925 4575 
Q 3000 4850 2962 5025 
Q 2925 5200 3100 5125 
Q 3275 5050 3412 4950 
Q 3550 4850 3450 4712 
Q 3350 4575 3175 4075 
Q 3875 4150 4187 4187 
Q 4500 4225 4912 4287 
Q 5325 4350 5537 4250 
Q 5750 4150 5800 4025 
Q 5850 3900 5512 3925 
Q 5175 3950 4562 3912 
Q 3950 3875 3075 3800 
Q 2575 2975 2375 2700 
Q 2550 2575 2725 2575 
Q 2900 2575 3475 2650 
Q 3475 3350 3362 3550 
Q 3250 3750 3475 3700 
Q 3700 3650 3812 3587 
Q 3925 3525 3875 3375 
Q 3825 3225 3800 2675 
Q 4425 2750 4575 2812 
Q 4725 2875 4887 2800 
Q 5050 2725 5187 2625 
Q 5325 2525 5225 2375 
Q 5125 2225 5112 1837 
Q 5100 1450 5037 1237 
Q 4975 1025 4800 825 
Q 4625 625 4575 825 
Q 4525 1025 4200 1262 
Q 3875 1500 4225 1412 
Q 4575 1325 4662 1437 
Q 4750 1550 4750 1975 
Q 4750 2425 4662 2487 
Q 4575 2550 4362 2537 
Q 4150 2525 3800 2450 
Q 3800 850 3787 512 
Q 3775 175 3725 -262 
Q 3675 -700 3587 -687 
Q 3500 -675 3487 -112 
Q 3475 450 3475 2425 
Q 2900 2375 2625 2350 
z
" transform="scale(0.015625)"/>
      <path id="KaiTi-56fe" d="M 4750 150 
Q 4000 175 1475 50 
Q 1450 -425 1250 -87 
Q 1050 250 1150 625 
Q 1250 1000 1287 1725 
Q 1325 2450 1325 3300 
Q 1325 4150 1175 4362 
Q 1025 4575 1125 4575 
Q 1250 4575 1412 4525 
Q 1575 4475 2000 4500 
Q 2425 4525 3287 4650 
Q 4150 4775 4350 4862 
Q 4550 4950 4800 4837 
Q 5050 4725 5212 4550 
Q 5375 4375 5287 4200 
Q 5200 4025 5237 2800 
Q 5275 1575 5337 962 
Q 5400 350 5337 -25 
Q 5275 -400 5162 -512 
Q 5050 -625 5000 -425 
Q 4950 -225 4750 150 
z
M 1500 275 
Q 3050 375 3537 425 
Q 4025 475 4262 487 
Q 4500 500 4662 375 
Q 4825 250 4887 487 
Q 4950 725 4937 1562 
Q 4925 2400 4900 3250 
Q 4875 4100 4712 4337 
Q 4550 4575 4150 4537 
Q 3750 4500 1625 4275 
Q 1625 2375 1500 275 
z
M 2825 3650 
Q 3025 3625 3212 3675 
Q 3400 3725 3487 3787 
Q 3575 3850 3725 3800 
Q 3875 3750 4000 3650 
Q 4125 3550 3987 3462 
Q 3850 3375 3725 3175 
Q 3600 2975 3400 2725 
Q 3825 2400 4100 2275 
Q 4375 2150 4687 2050 
Q 5000 1950 4700 1887 
Q 4400 1825 4125 1812 
Q 3850 1800 3712 1987 
Q 3575 2175 3200 2500 
Q 2950 2225 2562 1950 
Q 2175 1675 1825 1575 
Q 1475 1475 1775 1650 
Q 2075 1825 2412 2137 
Q 2750 2450 3000 2750 
Q 2650 3025 2475 3125 
Q 2175 2850 1987 2762 
Q 1800 2675 2025 2900 
Q 2250 3125 2437 3537 
Q 2625 3950 2587 4175 
Q 2550 4400 2750 4325 
Q 2950 4250 3050 4137 
Q 3150 4025 3062 3937 
Q 2975 3850 2825 3650 
z
M 2825 1175 
Q 2600 1500 2962 1387 
Q 3325 1275 3500 1112 
Q 3675 950 3625 712 
Q 3575 475 3325 675 
Q 3075 875 2825 1175 
z
M 2550 3225 
Q 2725 3200 2825 3125 
Q 2925 3050 3125 2925 
Q 3325 3175 3375 3337 
Q 3425 3500 3275 3500 
Q 3150 3500 3025 3462 
Q 2900 3425 2750 3525 
L 2550 3225 
z
M 3325 1550 
Q 3050 1800 2950 1975 
Q 2850 2150 3237 2025 
Q 3625 1900 3625 1600 
Q 3625 1325 3325 1550 
z
" transform="scale(0.015625)"/>
     </defs>
     <use xlink:href="#KaiTi-43"/>
     <use xlink:href="#KaiTi-6f" transform="translate(50 0)"/>
     <use xlink:href="#KaiTi-64" transform="translate(100 0)"/>
     <use xlink:href="#KaiTi-65" transform="translate(150 0)"/>
     <use xlink:href="#KaiTi-66" transform="translate(200 0)"/>
     <use xlink:href="#KaiTi-6f" transform="translate(250 0)"/>
     <use xlink:href="#KaiTi-72" transform="translate(300 0)"/>
     <use xlink:href="#KaiTi-63" transform="translate(350 0)"/>
     <use xlink:href="#KaiTi-65" transform="translate(400 0)"/>
     <use xlink:href="#KaiTi-73" transform="translate(450 0)"/>
     <use xlink:href="#KaiTi-96be" transform="translate(500 0)"/>
     <use xlink:href="#KaiTi-5ea6" transform="translate(600 0)"/>
     <use xlink:href="#KaiTi-7cfb" transform="translate(700 0)"/>
     <use xlink:href="#KaiTi-6570" transform="translate(800 0)"/>
     <use xlink:href="#KaiTi-5206" transform="translate(900 0)"/>
     <use xlink:href="#KaiTi-5e03" transform="translate(1000 0)"/>
     <use xlink:href="#KaiTi-56fe" transform="translate(1100 0)"/>
    </g>
   </g>
  </g>
 </g>
 <defs>
  <clipPath id="p8b101820e5">
   <rect x="60.504687" y="22.95" width="558" height="277.2"/>
  </clipPath>
 </defs>
</svg>
